EncodeSans-Thin.ufo
<glyph name="exclam" format="2">
  <advance width="446.0"/>
  <unicode hex="0021"/>
  <outline>
    <contour>
      <point x="199.0" y="316.0" type="line"/>
      <point x="247.0" y="316.0" type="line"/>
      <point x="259.0" y="890.0" type="line"/>
      <point x="259.0" y="1480.0" type="line"/>
      <point x="187.0" y="1480.0" type="line"/>
      <point x="187.0" y="890.0" type="line"/>
    </contour>
    <contour>
      <point x="223.0" y="-10.0" type="curve" smooth="yes"/>
      <point x="259.0" y="-10.0"/>
      <point x="285.0" y="14.0"/>
      <point x="285.0" y="52.0" type="curve" smooth="yes"/>
      <point x="285.0" y="90.0"/>
      <point x="259.0" y="116.0"/>
      <point x="223.0" y="116.0" type="curve" smooth="yes"/>
      <point x="187.0" y="116.0"/>
      <point x="161.0" y="90.0"/>
      <point x="161.0" y="52.0" type="curve" smooth="yes"/>
      <point x="161.0" y="14.0"/>
      <point x="187.0" y="-10.0"/>
    </contour>
  </outline>
</glyph>
<glyph name="numbersign" format="2">
  <advance width="1100.0"/>
  <unicode hex="0023"/>
  <outline>
    <contour>
      <point x="617.0" y="0.0" type="line"/>
      <point x="683.0" y="0.0" type="line"/>
      <point x="837.0" y="1480.0" type="line"/>
      <point x="771.0" y="1480.0" type="line"/>
    </contour>
    <contour>
      <point x="100.0" y="494.0" type="line"/>
      <point x="1000.0" y="494.0" type="line"/>
      <point x="1000.0" y="560.0" type="line"/>
      <point x="100.0" y="560.0" type="line"/>
    </contour>
    <contour>
      <point x="263.0" y="0.0" type="line"/>
      <point x="329.0" y="0.0" type="line"/>
      <point x="483.0" y="1480.0" type="line"/>
      <point x="417.0" y="1480.0" type="line"/>
    </contour>
    <contour>
      <point x="100.0" y="920.0" type="line"/>
      <point x="1000.0" y="920.0" type="line"/>
      <point x="1000.0" y="986.0" type="line"/>
      <point x="100.0" y="986.0" type="line"/>
    </contour>
  </outline>
</glyph>
<glyph name="ampersand" format="2">
  <advance width="1434.0"/>
  <unicode hex="0026"/>
  <outline>
    <contour>
      <point x="1393.0" y="-20.0" type="line"/>
      <point x="1434.0" y="32.0" type="line"/>
      <point x="684.0" y="645.0" type="line" smooth="yes"/>
      <point x="448.0" y="837.0"/>
      <point x="393.0" y="940.0"/>
      <point x="393.0" y="1095.0" type="curve" smooth="yes"/>
      <point x="393.0" y="1313.0"/>
      <point x="516.0" y="1432.0"/>
      <point x="791.0" y="1432.0" type="curve" smooth="yes"/>
      <point x="875.0" y="1432.0"/>
      <point x="949.0" y="1423.0"/>
      <point x="1026.0" y="1401.0" type="curve"/>
      <point x="1026.0" y="1469.0" type="line"/>
      <point x="960.0" y="1487.0"/>
      <point x="881.0" y="1498.0"/>
      <point x="794.0" y="1498.0" type="curve" smooth="yes"/>
      <point x="477.0" y="1498.0"/>
      <point x="321.0" y="1352.0"/>
      <point x="321.0" y="1094.0" type="curve" smooth="yes"/>
      <point x="321.0" y="916.0"/>
      <point x="398.0" y="793.0"/>
      <point x="643.0" y="593.0" type="curve" smooth="yes"/>
    </contour>
    <contour>
      <point x="669.0" y="-18.0" type="curve" smooth="yes"/>
      <point x="1005.0" y="-18.0"/>
      <point x="1200.0" y="155.0"/>
      <point x="1200.0" y="481.0" type="curve" smooth="yes"/>
      <point x="1200.0" y="572.0"/>
      <point x="1187.0" y="670.0"/>
      <point x="1158.0" y="760.0" type="curve"/>
      <point x="1088.0" y="760.0" type="line"/>
      <point x="1118.0" y="670.0"/>
      <point x="1134.0" y="570.0"/>
      <point x="1134.0" y="481.0" type="curve" smooth="yes"/>
      <point x="1134.0" y="185.0"/>
      <point x="965.0" y="48.0"/>
      <point x="671.0" y="48.0" type="curve" smooth="yes"/>
      <point x="364.0" y="48.0"/>
      <point x="229.0" y="195.0"/>
      <point x="229.0" y="408.0" type="curve" smooth="yes"/>
      <point x="229.0" y="569.0"/>
      <point x="306.0" y="689.0"/>
      <point x="468.0" y="763.0" type="curve"/>
      <point x="430.0" y="820.0" type="line"/>
      <point x="252.0" y="735.0"/>
      <point x="157.0" y="590.0"/>
      <point x="157.0" y="402.0" type="curve" smooth="yes"/>
      <point x="157.0" y="154.0"/>
      <point x="329.0" y="-18.0"/>
    </contour>
  </outline>
</glyph>
<glyph name="quotesingle" format="2">
  <advance width="386.0"/>
  <unicode hex="0027"/>
  <outline>
    <contour>
      <point x="173.0" y="956.0" type="line"/>
      <point x="213.0" y="956.0" type="line"/>
      <point x="233.0" y="1616.0" type="line"/>
      <point x="153.0" y="1616.0" type="line"/>
    </contour>
  </outline>
</glyph>
<glyph name="asterisk" format="2">
  <advance width="868.0"/>
  <unicode hex="002A"/>
  <outline>
    <contour>
      <point x="460.0" y="1208.0" type="line"/>
      <point x="658.0" y="1256.0" type="line"/>
      <point x="838.0" y="1314.0" type="line"/>
      <point x="818.0" y="1374.0" type="line"/>
      <point x="640.0" y="1316.0" type="line"/>
      <point x="450.0" y="1238.0" type="line"/>
      <point x="466.0" y="1442.0" type="line"/>
      <point x="466.0" y="1616.0" type="line"/>
      <point x="402.0" y="1616.0" type="line"/>
      <point x="402.0" y="1442.0" type="line"/>
      <point x="418.0" y="1238.0" type="line"/>
      <point x="228.0" y="1316.0" type="line"/>
      <point x="50.0" y="1374.0" type="line"/>
      <point x="30.0" y="1314.0" type="line"/>
      <point x="210.0" y="1256.0" type="line"/>
      <point x="408.0" y="1208.0" type="line"/>
      <point x="276.0" y="1052.0" type="line"/>
      <point x="169.0" y="907.0" type="line"/>
      <point x="221.0" y="869.0" type="line"/>
      <point x="328.0" y="1014.0" type="line"/>
      <point x="434.0" y="1188.0" type="line"/>
      <point x="540.0" y="1014.0" type="line"/>
      <point x="647.0" y="869.0" type="line"/>
      <point x="699.0" y="907.0" type="line"/>
      <point x="592.0" y="1052.0" type="line"/>
    </contour>
  </outline>
</glyph>
<glyph name="plus" format="2">
  <advance width="1062.0"/>
  <unicode hex="002B"/>
  <outline>
    <contour>
      <point x="497.0" y="378.0" type="line"/>
      <point x="565.0" y="378.0" type="line"/>
      <point x="565.0" y="728.0" type="line"/>
      <point x="895.0" y="728.0" type="line"/>
      <point x="895.0" y="792.0" type="line"/>
      <point x="565.0" y="792.0" type="line"/>
      <point x="565.0" y="1142.0" type="line"/>
      <point x="497.0" y="1142.0" type="line"/>
      <point x="497.0" y="792.0" type="line"/>
      <point x="167.0" y="792.0" type="line"/>
      <point x="167.0" y="728.0" type="line"/>
      <point x="497.0" y="728.0" type="line"/>
    </contour>
  </outline>
</glyph>
<glyph name="hyphen" format="2">
  <advance width="798.0"/>
  <unicode hex="002D"/>
  <outline>
    <contour>
      <point x="167.0" y="528.0" type="line"/>
      <point x="631.0" y="528.0" type="line"/>
      <point x="631.0" y="592.0" type="line"/>
      <point x="167.0" y="592.0" type="line"/>
    </contour>
  </outline>
</glyph>
<glyph name="period" format="2">
  <advance width="406.0"/>
  <unicode hex="002E"/>
  <outline>
    <contour>
      <point x="203.0" y="-10.0" type="curve" smooth="yes"/>
      <point x="239.0" y="-10.0"/>
      <point x="265.0" y="14.0"/>
      <point x="265.0" y="52.0" type="curve" smooth="yes"/>
      <point x="265.0" y="90.0"/>
      <point x="239.0" y="116.0"/>
      <point x="203.0" y="116.0" type="curve" smooth="yes"/>
      <point x="167.0" y="116.0"/>
      <point x="141.0" y="90.0"/>
      <point x="141.0" y="52.0" type="curve" smooth="yes"/>
      <point x="141.0" y="14.0"/>
      <point x="167.0" y="-10.0"/>
    </contour>
  </outline>
</glyph>
<glyph name="zero" format="2">
  <advance width="1198.0"/>
  <unicode hex="0030"/>
  <note>
600
</note>
  <outline>
    <contour>
      <point x="599.0" y="-18.0" type="curve" smooth="yes"/>
      <point x="884.0" y="-18.0"/>
      <point x="1070.0" y="178.0"/>
      <point x="1070.0" y="740.0" type="curve" smooth="yes"/>
      <point x="1070.0" y="1302.0"/>
      <point x="888.0" y="1498.0"/>
      <point x="599.0" y="1498.0" type="curve" smooth="yes"/>
      <point x="310.0" y="1498.0"/>
      <point x="128.0" y="1302.0"/>
      <point x="128.0" y="740.0" type="curve" smooth="yes"/>
      <point x="128.0" y="178.0"/>
      <point x="314.0" y="-18.0"/>
    </contour>
    <contour>
      <point x="599.0" y="48.0" type="curve" smooth="yes"/>
      <point x="359.0" y="48.0"/>
      <point x="200.0" y="206.0"/>
      <point x="200.0" y="744.0" type="curve" smooth="yes"/>
      <point x="200.0" y="1274.0"/>
      <point x="359.0" y="1432.0"/>
      <point x="599.0" y="1432.0" type="curve" smooth="yes"/>
      <point x="839.0" y="1432.0"/>
      <point x="998.0" y="1274.0"/>
      <point x="998.0" y="736.0" type="curve" smooth="yes"/>
      <point x="998.0" y="206.0"/>
      <point x="839.0" y="48.0"/>
    </contour>
  </outline>
</glyph>
<glyph name="two" format="2">
  <advance width="936.0"/>
  <unicode hex="0032"/>
  <outline>
    <contour>
      <point x="67.0" y="0.0" type="line"/>
      <point x="866.0" y="0.0" type="line"/>
      <point x="866.0" y="64.0" type="line"/>
      <point x="130.0" y="64.0" type="line"/>
      <point x="146.0" y="40.0" type="line"/>
      <point x="549.0" y="591.0" type="line" smooth="yes"/>
      <point x="722.0" y="825.0"/>
      <point x="780.0" y="960.0"/>
      <point x="781.0" y="1123.0" type="curve" smooth="yes"/>
      <point x="783.0" y="1384.0"/>
      <point x="628.0" y="1498.0"/>
      <point x="368.0" y="1498.0" type="curve" smooth="yes"/>
      <point x="249.0" y="1498.0"/>
      <point x="134.0" y="1477.0"/>
      <point x="50.0" y="1441.0" type="curve"/>
      <point x="50.0" y="1373.0" type="line"/>
      <point x="150.0" y="1413.0"/>
      <point x="252.0" y="1432.0"/>
      <point x="368.0" y="1432.0" type="curve" smooth="yes"/>
      <point x="591.0" y="1432.0"/>
      <point x="711.0" y="1344.0"/>
      <point x="711.0" y="1121.0" type="curve" smooth="yes"/>
      <point x="711.0" y="979.0"/>
      <point x="654.0" y="845.0"/>
      <point x="499.0" y="635.0" type="curve" smooth="yes"/>
      <point x="67.0" y="40.0" type="line"/>
    </contour>
  </outline>
</glyph>
<glyph name="three" format="2">
  <advance width="969.0"/>
  <unicode hex="0033"/>
  <outline>
    <contour>
      <point x="398.0" y="-18.0" type="curve" smooth="yes"/>
      <point x="721.0" y="-18.0"/>
      <point x="891.0" y="133.0"/>
      <point x="891.0" y="393.0" type="curve" smooth="yes"/>
      <point x="891.0" y="612.0"/>
      <point x="754.0" y="751.0"/>
      <point x="497.0" y="782.0" type="curve"/>
      <point x="496.0" y="756.0" type="line"/>
      <point x="711.0" y="799.0"/>
      <point x="842.0" y="937.0"/>
      <point x="842.0" y="1135.0" type="curve" smooth="yes"/>
      <point x="842.0" y="1365.0"/>
      <point x="689.0" y="1498.0"/>
      <point x="416.0" y="1498.0" type="curve" smooth="yes"/>
      <point x="303.0" y="1498.0"/>
      <point x="189.0" y="1479.0"/>
      <point x="97.0" y="1444.0" type="curve"/>
      <point x="97.0" y="1376.0" type="line"/>
      <point x="203.0" y="1415.0"/>
      <point x="306.0" y="1432.0"/>
      <point x="416.0" y="1432.0" type="curve" smooth="yes"/>
      <point x="647.0" y="1432.0"/>
      <point x="772.0" y="1328.0"/>
      <point x="772.0" y="1135.0" type="curve" smooth="yes"/>
      <point x="772.0" y="915.0"/>
      <point x="610.0" y="794.0"/>
      <point x="314.0" y="794.0" type="curve" smooth="yes"/>
      <point x="259.0" y="794.0" type="line"/>
      <point x="259.0" y="728.0" type="line"/>
      <point x="413.0" y="728.0" type="line" smooth="yes"/>
      <point x="690.0" y="728.0"/>
      <point x="821.0" y="602.0"/>
      <point x="821.0" y="393.0" type="curve" smooth="yes"/>
      <point x="821.0" y="168.0"/>
      <point x="676.0" y="48.0"/>
      <point x="399.0" y="48.0" type="curve" smooth="yes"/>
      <point x="291.0" y="48.0"/>
      <point x="172.0" y="68.0"/>
      <point x="57.0" y="109.0" type="curve"/>
      <point x="57.0" y="41.0" type="line"/>
      <point x="162.0" y="2.0"/>
      <point x="282.0" y="-18.0"/>
    </contour>
  </outline>
</glyph>
<glyph name="four" format="2">
  <advance width="1128.0"/>
  <unicode hex="0034"/>
  <outline>
    <contour>
      <point x="54.0" y="384.0" type="line"/>
      <point x="1082.0" y="384.0" type="line"/>
      <point x="1082.0" y="448.0" type="line"/>
      <point x="112.0" y="448.0" type="line"/>
      <point x="128.0" y="422.0" type="line"/>
      <point x="738.0" y="1480.0" type="line"/>
      <point x="662.0" y="1480.0" type="line"/>
      <point x="54.0" y="424.0" type="line"/>
    </contour>
    <contour>
      <point x="794.0" y="0.0" type="line"/>
      <point x="862.0" y="0.0" type="line"/>
      <point x="862.0" y="980.0" type="line"/>
      <point x="808.0" y="980.0" type="line"/>
      <point x="794.0" y="448.0" type="line"/>
    </contour>
  </outline>
</glyph>
<glyph name="at" format="2">
  <advance width="1815.0"/>
  <unicode hex="0040"/>
  <outline>
    <contour>
      <point x="955.0" y="-460.0" type="curve" smooth="yes"/>
      <point x="1085.0" y="-460.0"/>
      <point x="1213.0" y="-438.0"/>
      <point x="1318.0" y="-404.0" type="curve"/>
      <point x="1318.0" y="-336.0" type="line"/>
      <point x="1192.0" y="-375.0"/>
      <point x="1080.0" y="-394.0"/>
      <point x="955.0" y="-394.0" type="curve" smooth="yes"/>
      <point x="455.0" y="-394.0"/>
      <point x="190.0" y="-137.0"/>
      <point x="190.0" y="524.0" type="curve" smooth="yes"/>
      <point x="190.0" y="1171.0"/>
      <point x="453.0" y="1432.0"/>
      <point x="913.0" y="1432.0" type="curve" smooth="yes"/>
      <point x="1372.0" y="1432.0"/>
      <point x="1629.0" y="1175.0"/>
      <point x="1629.0" y="554.0" type="curve" smooth="yes"/>
      <point x="1629.0" y="181.0"/>
      <point x="1517.0" y="48.0"/>
      <point x="1399.0" y="48.0" type="curve" smooth="yes"/>
      <point x="1306.0" y="48.0"/>
      <point x="1263.0" y="99.0"/>
      <point x="1263.0" y="226.0" type="curve" smooth="yes"/>
      <point x="1263.0" y="749.0" type="line" smooth="yes"/>
      <point x="1263.0" y="1012.0"/>
      <point x="1129.0" y="1096.0"/>
      <point x="900.0" y="1096.0" type="curve" smooth="yes"/>
      <point x="808.0" y="1096.0"/>
      <point x="695.0" y="1079.0"/>
      <point x="612.0" y="1047.0" type="curve"/>
      <point x="612.0" y="979.0" type="line"/>
      <point x="716.0" y="1016.0"/>
      <point x="821.0" y="1030.0"/>
      <point x="900.0" y="1030.0" type="curve" smooth="yes"/>
      <point x="1087.0" y="1030.0"/>
      <point x="1195.0" y="972.0"/>
      <point x="1195.0" y="749.0" type="curve" smooth="yes"/>
      <point x="1195.0" y="220.0" type="line"/>
      <point x="1104.0" y="98.0"/>
      <point x="982.0" y="50.0"/>
      <point x="865.0" y="50.0" type="curve" smooth="yes"/>
      <point x="703.0" y="50.0"/>
      <point x="622.0" y="127.0"/>
      <point x="622.0" y="273.0" type="curve" smooth="yes"/>
      <point x="622.0" y="410.0"/>
      <point x="705.0" y="484.0"/>
      <point x="896.0" y="507.0" type="curve" smooth="yes"/>
      <point x="1234.0" y="548.0" type="line"/>
      <point x="1234.0" y="614.0" type="line"/>
      <point x="897.0" y="573.0" type="line" smooth="yes"/>
      <point x="657.0" y="544.0"/>
      <point x="548.0" y="447.0"/>
      <point x="548.0" y="267.0" type="curve" smooth="yes"/>
      <point x="548.0" y="85.0"/>
      <point x="670.0" y="-16.0"/>
      <point x="862.0" y="-16.0" type="curve" smooth="yes"/>
      <point x="995.0" y="-16.0"/>
      <point x="1117.0" y="38.0"/>
      <point x="1194.0" y="126.0" type="curve"/>
      <point x="1203.0" y="126.0" type="line"/>
      <point x="1222.0" y="41.0"/>
      <point x="1285.0" y="-16.0"/>
      <point x="1395.0" y="-16.0" type="curve" smooth="yes"/>
      <point x="1560.0" y="-16.0"/>
      <point x="1696.0" y="148.0"/>
      <point x="1697.0" y="560.0" type="curve" smooth="yes"/>
      <point x="1698.0" y="1201.0"/>
      <point x="1417.0" y="1498.0"/>
      <point x="913.0" y="1498.0" type="curve" smooth="yes"/>
      <point x="409.0" y="1498.0"/>
      <point x="118.0" y="1201.0"/>
      <point x="118.0" y="520.0" type="curve" smooth="yes"/>
      <point x="118.0" y="-167.0"/>
      <point x="412.0" y="-459.0"/>
    </contour>
  </outline>
</glyph>
<glyph name="B" format="2">
  <advance width="1216.0"/>
  <unicode hex="0042"/>
  <anchor x="624.0" y="0.0" name="bottom"/>
  <anchor x="624.0" y="1480.0" name="top"/>
  <outline>
    <contour>
      <point x="525.0" y="-10.0" type="curve" smooth="yes"/>
      <point x="961.0" y="-10.0"/>
      <point x="1132.0" y="129.0"/>
      <point x="1132.0" y="395.0" type="curve" smooth="yes"/>
      <point x="1132.0" y="597.0"/>
      <point x="1024.0" y="744.0"/>
      <point x="768.0" y="771.0" type="curve"/>
      <point x="765.0" y="756.0" type="line"/>
      <point x="1005.0" y="789.0"/>
      <point x="1089.0" y="935.0"/>
      <point x="1089.0" y="1110.0" type="curve" smooth="yes"/>
      <point x="1089.0" y="1369.0"/>
      <point x="931.0" y="1494.0"/>
      <point x="557.0" y="1494.0" type="curve" smooth="yes"/>
      <point x="408.0" y="1494.0"/>
      <point x="303.0" y="1482.0"/>
      <point x="190.0" y="1460.0" type="curve"/>
      <point x="190.0" y="10.0" type="line"/>
      <point x="314.0" y="-5.0"/>
      <point x="409.0" y="-10.0"/>
    </contour>
    <contour>
      <point x="527.0" y="56.0" type="curve" smooth="yes"/>
      <point x="426.0" y="56.0"/>
      <point x="342.0" y="60.0"/>
      <point x="258.0" y="72.0" type="curve"/>
      <point x="258.0" y="1405.0" type="line"/>
      <point x="341.0" y="1420.0"/>
      <point x="428.0" y="1428.0"/>
      <point x="556.0" y="1428.0" type="curve" smooth="yes"/>
      <point x="890.0" y="1428.0"/>
      <point x="1020.0" y="1337.0"/>
      <point x="1020.0" y="1110.0" type="curve" smooth="yes"/>
      <point x="1020.0" y="899.0"/>
      <point x="899.0" y="794.0"/>
      <point x="593.0" y="794.0" type="curve" smooth="yes"/>
      <point x="242.0" y="794.0" type="line"/>
      <point x="242.0" y="728.0" type="line"/>
      <point x="620.0" y="728.0" type="line" smooth="yes"/>
      <point x="922.0" y="728.0"/>
      <point x="1062.0" y="621.0"/>
      <point x="1062.0" y="395.0" type="curve" smooth="yes"/>
      <point x="1062.0" y="167.0"/>
      <point x="929.0" y="56.0"/>
    </contour>
  </outline>
</glyph>
<glyph name="J" format="2">
  <advance width="448.0"/>
  <unicode hex="004A"/>
  <anchor x="310.0" y="0.0" name="bottom"/>
  <anchor x="224.0" y="1520.0" name="top"/>
  <outline>
    <contour>
      <point x="48.0" y="-340.0" type="line"/>
      <point x="193.0" y="-142.0"/>
      <point x="247.0" y="22.0"/>
      <point x="258.0" y="253.0" type="curve"/>
      <point x="258.0" y="1480.0" type="line"/>
      <point x="190.0" y="1480.0" type="line"/>
      <point x="190.0" y="286.0" type="line" smooth="yes"/>
      <point x="190.0" y="46.0"/>
      <point x="132.0" y="-122.0"/>
      <point x="-1.0" y="-305.0" type="curve"/>
    </contour>
  </outline>
</glyph>
<glyph name="L" format="2">
  <advance width="1027.0"/>
  <unicode hex="004C"/>
  <anchor x="603.0" y="0.0" name="bottom"/>
  <anchor x="666.0" y="1616.0" name="caronalt"/>
  <anchor x="727.0" y="774.0" name="periodcentered"/>
  <anchor x="224.0" y="774.0" name="slash"/>
  <anchor x="224.0" y="1520.0" name="top"/>
  <outline>
    <contour>
      <point x="190.0" y="0.0" type="line"/>
      <point x="1014.0" y="0.0" type="line"/>
      <point x="1014.0" y="66.0" type="line"/>
      <point x="258.0" y="66.0" type="line"/>
      <point x="258.0" y="1480.0" type="line"/>
      <point x="190.0" y="1480.0" type="line"/>
    </contour>
  </outline>
</glyph>
<glyph name="Q" format="2">
  <advance width="1368.0"/>
  <unicode hex="0051"/>
  <outline>
    <contour>
      <point x="1213.0" y="-180.0" type="curve"/>
      <point x="1223.0" y="-114.0" type="line"/>
      <point x="1009.0" y="-97.0"/>
      <point x="760.0" y="-59.0"/>
      <point x="595.0" y="16.0" type="curve"/>
      <point x="600.0" y="-8.0" type="line"/>
      <point x="1025.0" y="-58.0"/>
      <point x="1250.0" y="199.0"/>
      <point x="1250.0" y="740.0" type="curve" smooth="yes"/>
      <point x="1250.0" y="1291.0"/>
      <point x="1020.0" y="1498.0"/>
      <point x="684.0" y="1498.0" type="curve" smooth="yes"/>
      <point x="348.0" y="1498.0"/>
      <point x="118.0" y="1285.0"/>
      <point x="118.0" y="740.0" type="curve" smooth="yes"/>
      <point x="118.0" y="127.0"/>
      <point x="369.0" y="-94.0"/>
    </contour>
    <contour>
      <point x="684.0" y="49.0" type="curve" smooth="yes"/>
      <point x="390.0" y="49.0"/>
      <point x="190.0" y="224.0"/>
      <point x="190.0" y="744.0" type="curve" smooth="yes"/>
      <point x="190.0" y="1256.0"/>
      <point x="390.0" y="1431.0"/>
      <point x="684.0" y="1431.0" type="curve" smooth="yes"/>
      <point x="978.0" y="1431.0"/>
      <point x="1178.0" y="1256.0"/>
      <point x="1178.0" y="736.0" type="curve" smooth="yes"/>
      <point x="1178.0" y="224.0"/>
      <point x="978.0" y="49.0"/>
    </contour>
  </outline>
</glyph>
<glyph name="V" format="2">
  <advance width="1246.0"/>
  <unicode hex="0056"/>
  <outline>
    <contour>
      <point x="576.0" y="0.0" type="line"/>
      <point x="670.0" y="0.0" type="line"/>
      <point x="1229.0" y="1480.0" type="line"/>
      <point x="1158.0" y="1480.0" type="line"/>
      <point x="617.0" y="40.0" type="line"/>
      <point x="633.0" y="40.0" type="line"/>
      <point x="92.0" y="1480.0" type="line"/>
      <point x="17.0" y="1480.0" type="line"/>
    </contour>
  </outline>
</glyph>
<glyph name="asciicircum" format="2">
  <advance width="1100.0"/>
  <unicode hex="005E"/>
  <outline>
    <contour>
      <point x="114.0" y="740.0" type="line"/>
      <point x="193.0" y="740.0" type="line"/>
      <point x="554.0" y="1436.0" type="line"/>
      <point x="546.0" y="1436.0" type="line"/>
      <point x="907.0" y="740.0" type="line"/>
      <point x="986.0" y="740.0" type="line"/>
      <point x="596.0" y="1480.0" type="line"/>
      <point x="502.0" y="1480.0" type="line"/>
    </contour>
  </outline>
</glyph>
<glyph name="l" format="2">
  <advance width="408.0"/>
  <unicode hex="006C"/>
  <anchor x="204.0" y="0.0" name="bottom"/>
  <anchor x="358.0" y="1616.0" name="caronalt"/>
  <anchor x="397.0" y="794.0" name="periodcentered"/>
  <anchor x="204.0" y="714.0" name="slash"/>
  <anchor x="204.0" y="1616.0" name="top"/>
  <outline>
    <contour>
      <point x="170.0" y="0.0" type="line"/>
      <point x="238.0" y="0.0" type="line"/>
      <point x="238.0" y="1616.0" type="line"/>
      <point x="170.0" y="1616.0" type="line"/>
    </contour>
  </outline>
</glyph>
<glyph name="m" format="2">
  <advance width="1632.0"/>
  <unicode hex="006D"/>
  <anchor x="826.0" y="0.0" name="bottom"/>
  <anchor x="826.0" y="1200.0" name="top"/>
  <outline>
    <contour>
      <point x="170.0" y="0.0" type="line"/>
      <point x="238.0" y="0.0" type="line"/>
      <point x="238.0" y="847.0" type="line"/>
      <point x="323.0" y="981.0"/>
      <point x="452.0" y="1030.0"/>
      <point x="555.0" y="1030.0" type="curve" smooth="yes"/>
      <point x="695.0" y="1030.0"/>
      <point x="792.0" y="957.0"/>
      <point x="792.0" y="738.0" type="curve" smooth="yes"/>
      <point x="792.0" y="0.0" type="line"/>
      <point x="860.0" y="0.0" type="line"/>
      <point x="860.0" y="739.0" type="line" smooth="yes"/>
      <point x="860.0" y="1004.0"/>
      <point x="735.0" y="1096.0"/>
      <point x="562.0" y="1096.0" type="curve" smooth="yes"/>
      <point x="444.0" y="1096.0"/>
      <point x="330.0" y="1048.0"/>
      <point x="244.0" y="950.0" type="curve"/>
      <point x="236.0" y="950.0" type="line"/>
      <point x="230.0" y="1080.0" type="line"/>
      <point x="170.0" y="1080.0" type="line"/>
    </contour>
    <contour>
      <point x="1408.0" y="0.0" type="line"/>
      <point x="1476.0" y="0.0" type="line"/>
      <point x="1476.0" y="739.0" type="line" smooth="yes"/>
      <point x="1476.0" y="1004.0"/>
      <point x="1346.0" y="1096.0"/>
      <point x="1170.0" y="1096.0" type="curve" smooth="yes"/>
      <point x="1054.0" y="1096.0"/>
      <point x="914.0" y="1049.0"/>
      <point x="805.0" y="901.0" type="curve"/>
      <point x="831.0" y="817.0" type="line"/>
      <point x="917.0" y="981.0"/>
      <point x="1063.0" y="1030.0"/>
      <point x="1166.0" y="1030.0" type="curve" smooth="yes"/>
      <point x="1307.0" y="1030.0"/>
      <point x="1408.0" y="957.0"/>
      <point x="1408.0" y="738.0" type="curve" smooth="yes"/>
    </contour>
  </outline>
</glyph>
<glyph name="p" format="2">
  <advance width="1071.0"/>
  <unicode hex="0070"/>
  <outline>
    <contour>
      <point x="170.0" y="-440.0" type="line"/>
      <point x="238.0" y="-440.0" type="line"/>
      <point x="238.0" y="-1.0" type="line"/>
      <point x="298.0" y="-10.0"/>
      <point x="373.0" y="-18.0"/>
      <point x="444.0" y="-18.0" type="curve" smooth="yes"/>
      <point x="783.0" y="-18.0"/>
      <point x="963.0" y="163.0"/>
      <point x="963.0" y="560.0" type="curve" smooth="yes"/>
      <point x="963.0" y="962.0"/>
      <point x="778.0" y="1096.0"/>
      <point x="548.0" y="1096.0" type="curve" smooth="yes"/>
      <point x="418.0" y="1096.0"/>
      <point x="310.0" y="1039.0"/>
      <point x="244.0" y="959.0" type="curve"/>
      <point x="237.0" y="959.0" type="line"/>
      <point x="230.0" y="1080.0" type="line"/>
      <point x="170.0" y="1080.0" type="line"/>
    </contour>
    <contour>
      <point x="447.0" y="48.0" type="curve" smooth="yes"/>
      <point x="375.0" y="48.0"/>
      <point x="294.0" y="57.0"/>
      <point x="238.0" y="71.0" type="curve"/>
      <point x="238.0" y="861.0" type="line"/>
      <point x="312.0" y="979.0"/>
      <point x="430.0" y="1030.0"/>
      <point x="545.0" y="1030.0" type="curve" smooth="yes"/>
      <point x="742.0" y="1030.0"/>
      <point x="891.0" y="925.0"/>
      <point x="891.0" y="552.0" type="curve" smooth="yes"/>
      <point x="891.0" y="196.0"/>
      <point x="740.0" y="48.0"/>
    </contour>
  </outline>
</glyph>
<glyph name="q" format="2">
  <advance width="1071.0"/>
  <unicode hex="0071"/>
  <outline>
    <contour>
      <point x="833.0" y="-440.0" type="line"/>
      <point x="901.0" y="-440.0" type="line"/>
      <point x="901.0" y="1054.0" type="line"/>
      <point x="817.0" y="1080.0"/>
      <point x="714.0" y="1096.0"/>
      <point x="617.0" y="1096.0" type="curve" smooth="yes"/>
      <point x="289.0" y="1096.0"/>
      <point x="108.0" y="915.0"/>
      <point x="108.0" y="518.0" type="curve" smooth="yes"/>
      <point x="108.0" y="116.0"/>
      <point x="292.0" y="-18.0"/>
      <point x="517.0" y="-18.0" type="curve" smooth="yes"/>
      <point x="653.0" y="-18.0"/>
      <point x="760.0" y="39.0"/>
      <point x="827.0" y="113.0" type="curve"/>
      <point x="833.0" y="113.0" type="line"/>
    </contour>
    <contour>
      <point x="521.0" y="48.0" type="curve" smooth="yes"/>
      <point x="329.0" y="48.0"/>
      <point x="180.0" y="153.0"/>
      <point x="180.0" y="526.0" type="curve" smooth="yes"/>
      <point x="180.0" y="882.0"/>
      <point x="331.0" y="1030.0"/>
      <point x="613.0" y="1030.0" type="curve" smooth="yes"/>
      <point x="696.0" y="1030.0"/>
      <point x="777.0" y="1018.0"/>
      <point x="833.0" y="1003.0" type="curve"/>
      <point x="833.0" y="209.0" type="line"/>
      <point x="759.0" y="99.0"/>
      <point x="638.0" y="48.0"/>
    </contour>
  </outline>
</glyph>
<glyph name="s" format="2">
  <advance width="856.0"/>
  <unicode hex="0073"/>
  <anchor x="434.0" y="0.0" name="bottom"/>
  <anchor x="434.0" y="1200.0" name="top"/>
  <outline>
    <contour>
      <point x="392.0" y="-18.0" type="curve" smooth="yes"/>
      <point x="648.0" y="-18.0"/>
      <point x="776.0" y="96.0"/>
      <point x="776.0" y="280.0" type="curve" smooth="yes"/>
      <point x="776.0" y="426.0"/>
      <point x="706.0" y="518.0"/>
      <point x="503.0" y="564.0" type="curve" smooth="yes"/>
      <point x="374.0" y="592.0" type="line" smooth="yes"/>
      <point x="226.0" y="625.0"/>
      <point x="175.0" y="697.0"/>
      <point x="175.0" y="806.0" type="curve" smooth="yes"/>
      <point x="175.0" y="933.0"/>
      <point x="263.0" y="1030.0"/>
      <point x="485.0" y="1030.0" type="curve" smooth="yes"/>
      <point x="566.0" y="1030.0"/>
      <point x="631.0" y="1022.0"/>
      <point x="720.0" y="998.0" type="curve"/>
      <point x="720.0" y="1066.0" type="line"/>
      <point x="644.0" y="1086.0"/>
      <point x="570.0" y="1096.0"/>
      <point x="485.0" y="1096.0" type="curve" smooth="yes"/>
      <point x="226.0" y="1096.0"/>
      <point x="104.0" y="970.0"/>
      <point x="104.0" y="803.0" type="curve" smooth="yes"/>
      <point x="104.0" y="659.0"/>
      <point x="175.0" y="565.0"/>
      <point x="369.0" y="520.0" type="curve" smooth="yes"/>
      <point x="498.0" y="492.0" type="line" smooth="yes"/>
      <point x="646.0" y="459.0"/>
      <point x="705.0" y="399.0"/>
      <point x="705.0" y="274.0" type="curve" smooth="yes"/>
      <point x="705.0" y="130.0"/>
      <point x="608.0" y="48.0"/>
      <point x="395.0" y="48.0" type="curve" smooth="yes"/>
      <point x="306.0" y="48.0"/>
      <point x="226.0" y="59.0"/>
      <point x="120.0" y="91.0" type="curve"/>
      <point x="120.0" y="23.0" type="line"/>
      <point x="206.0" y="-5.0"/>
      <point x="293.0" y="-18.0"/>
    </contour>
  </outline>
</glyph>
<glyph name="v" format="2">
  <advance width="995.0"/>
  <unicode hex="0076"/>
  <anchor x="499.0" y="0.0" name="bottom"/>
  <anchor x="499.0" y="1200.0" name="top"/>
  <outline>
    <contour>
      <point x="451.0" y="0.0" type="line"/>
      <point x="544.0" y="0.0" type="line"/>
      <point x="970.0" y="1080.0" type="line"/>
      <point x="897.0" y="1080.0" type="line"/>
      <point x="490.0" y="36.0" type="line"/>
      <point x="508.0" y="36.0" type="line"/>
      <point x="101.0" y="1080.0" type="line"/>
      <point x="25.0" y="1080.0" type="line"/>
    </contour>
  </outline>
</glyph>
<glyph name="y" format="2">
  <advance width="995.0"/>
  <unicode hex="0079"/>
  <anchor x="723.0" y="0.0" name="bottom"/>
  <anchor x="499.0" y="1200.0" name="top"/>
  <outline>
    <contour>
      <point x="299.0" y="-440.0" type="line"/>
      <point x="371.0" y="-440.0" type="line"/>
      <point x="970.0" y="1080.0" type="line"/>
      <point x="897.0" y="1080.0" type="line"/>
      <point x="490.0" y="36.0" type="line"/>
      <point x="473.0" y="0.0" type="line"/>
    </contour>
    <contour>
      <point x="451.0" y="0.0" type="line"/>
      <point x="521.0" y="0.0" type="line"/>
      <point x="101.0" y="1080.0" type="line"/>
      <point x="25.0" y="1080.0" type="line"/>
    </contour>
  </outline>
</glyph>
<glyph name="braceright" format="2">
  <advance width="666.0"/>
  <unicode hex="007D"/>
  <outline>
    <contour>
      <point x="80.0" y="-460.0" type="curve" smooth="yes"/>
      <point x="302.0" y="-460.0"/>
      <point x="416.0" y="-353.0"/>
      <point x="416.0" y="-134.0" type="curve" smooth="yes"/>
      <point x="416.0" y="404.0" type="line" smooth="yes"/>
      <point x="416.0" y="536.0"/>
      <point x="478.0" y="590.0"/>
      <point x="600.0" y="590.0" type="curve" smooth="yes"/>
      <point x="615.0" y="590.0" type="line"/>
      <point x="615.0" y="654.0" type="line"/>
      <point x="600.0" y="654.0" type="line" smooth="yes"/>
      <point x="478.0" y="654.0"/>
      <point x="416.0" y="708.0"/>
      <point x="416.0" y="840.0" type="curve" smooth="yes"/>
      <point x="416.0" y="1310.0" type="line" smooth="yes"/>
      <point x="416.0" y="1529.0"/>
      <point x="302.0" y="1636.0"/>
      <point x="80.0" y="1636.0" type="curve" smooth="yes"/>
      <point x="36.0" y="1636.0"/>
      <point x="-10.0" y="1632.0"/>
      <point x="-40.0" y="1626.0" type="curve"/>
      <point x="-40.0" y="1570.0" type="line"/>
      <point x="84.0" y="1570.0" type="line" smooth="yes"/>
      <point x="261.0" y="1570.0"/>
      <point x="348.0" y="1495.0"/>
      <point x="348.0" y="1317.0" type="curve" smooth="yes"/>
      <point x="348.0" y="850.0" type="line" smooth="yes"/>
      <point x="348.0" y="714.0"/>
      <point x="394.0" y="642.0"/>
      <point x="492.0" y="616.0" type="curve"/>
      <point x="492.0" y="628.0" type="line"/>
      <point x="394.0" y="602.0"/>
      <point x="348.0" y="530.0"/>
      <point x="348.0" y="394.0" type="curve" smooth="yes"/>
      <point x="348.0" y="-141.0" type="line" smooth="yes"/>
      <point x="348.0" y="-319.0"/>
      <point x="261.0" y="-394.0"/>
      <point x="84.0" y="-394.0" type="curve" smooth="yes"/>
      <point x="-40.0" y="-394.0" type="line"/>
      <point x="-40.0" y="-450.0" type="line"/>
      <point x="-10.0" y="-456.0"/>
      <point x="36.0" y="-460.0"/>
    </contour>
  </outline>
</glyph>
<glyph name="exclamdown" format="2">
  <advance width="446.0"/>
  <unicode hex="00A1"/>
  <outline>
    <contour>
      <point x="199.0" y="764.0" type="line"/>
      <point x="187.0" y="190.0" type="line"/>
      <point x="187.0" y="-380.0" type="line"/>
      <point x="259.0" y="-380.0" type="line"/>
      <point x="259.0" y="190.0" type="line"/>
      <point x="247.0" y="764.0" type="line"/>
    </contour>
    <contour>
      <point x="223.0" y="1090.0" type="curve" smooth="yes"/>
      <point x="187.0" y="1090.0"/>
      <point x="161.0" y="1066.0"/>
      <point x="161.0" y="1028.0" type="curve" smooth="yes"/>
      <point x="161.0" y="990.0"/>
      <point x="187.0" y="964.0"/>
      <point x="223.0" y="964.0" type="curve" smooth="yes"/>
      <point x="259.0" y="964.0"/>
      <point x="285.0" y="990.0"/>
      <point x="285.0" y="1028.0" type="curve" smooth="yes"/>
      <point x="285.0" y="1066.0"/>
      <point x="259.0" y="1090.0"/>
    </contour>
  </outline>
</glyph>
<glyph name="cent" format="2">
  <advance width="831.0"/>
  <unicode hex="00A2"/>
  <outline>
    <contour>
      <point x="538.0" y="-18.0" type="curve" smooth="yes"/>
      <point x="621.0" y="-18.0"/>
      <point x="706.0" y="-3.0"/>
      <point x="793.0" y="29.0" type="curve"/>
      <point x="793.0" y="97.0" type="line"/>
      <point x="695.0" y="62.0"/>
      <point x="615.0" y="48.0"/>
      <point x="545.0" y="48.0" type="curve" smooth="yes"/>
      <point x="307.0" y="48.0"/>
      <point x="180.0" y="177.0"/>
      <point x="180.0" y="544.0" type="curve" smooth="yes"/>
      <point x="180.0" y="905.0"/>
      <point x="312.0" y="1030.0"/>
      <point x="581.0" y="1030.0" type="curve" smooth="yes"/>
      <point x="649.0" y="1030.0"/>
      <point x="719.0" y="1020.0"/>
      <point x="793.0" y="999.0" type="curve"/>
      <point x="793.0" y="1067.0" type="line"/>
      <point x="723.0" y="1087.0"/>
      <point x="653.0" y="1096.0"/>
      <point x="584.0" y="1096.0" type="curve" smooth="yes"/>
      <point x="274.0" y="1096.0"/>
      <point x="108.0" y="938.0"/>
      <point x="108.0" y="540.0" type="curve" smooth="yes"/>
      <point x="108.0" y="141.0"/>
      <point x="263.0" y="-18.0"/>
    </contour>
    <contour>
      <point x="506.0" y="-240.0" type="line"/>
      <point x="570.0" y="-240.0" type="line"/>
      <point x="570.0" y="0.0" type="line"/>
      <point x="506.0" y="0.0" type="line"/>
    </contour>
    <contour>
      <point x="506.0" y="1080.0" type="line"/>
      <point x="570.0" y="1080.0" type="line"/>
      <point x="570.0" y="1320.0" type="line"/>
      <point x="506.0" y="1320.0" type="line"/>
    </contour>
  </outline>
</glyph>
<glyph name="yen" format="2">
  <advance width="1164.0"/>
  <unicode hex="00A5"/>
  <outline>
    <contour>
      <point x="548.0" y="0.0" type="line"/>
      <point x="616.0" y="0.0" type="line"/>
      <point x="616.0" y="707.0" type="line"/>
      <point x="598.0" y="652.0" type="line"/>
      <point x="1153.0" y="1480.0" type="line"/>
      <point x="1073.0" y="1480.0" type="line"/>
      <point x="566.0" y="720.0" type="line"/>
      <point x="600.0" y="720.0" type="line"/>
      <point x="94.0" y="1480.0" type="line"/>
      <point x="11.0" y="1480.0" type="line"/>
      <point x="566.0" y="652.0" type="line"/>
      <point x="548.0" y="707.0" type="line"/>
    </contour>
    <contour>
      <point x="228.0" y="320.0" type="line"/>
      <point x="936.0" y="320.0" type="line"/>
      <point x="936.0" y="384.0" type="line"/>
      <point x="228.0" y="384.0" type="line"/>
    </contour>
    <contour>
      <point x="228.0" y="664.0" type="line"/>
      <point x="936.0" y="664.0" type="line"/>
      <point x="936.0" y="728.0" type="line"/>
      <point x="228.0" y="728.0" type="line"/>
    </contour>
  </outline>
</glyph>
<glyph name="ordfeminine" format="2">
  <advance width="828.0"/>
  <unicode hex="00AA"/>
  <outline>
    <contour>
      <point x="352.0" y="596.0" type="curve" smooth="yes"/>
      <point x="463.0" y="596.0"/>
      <point x="566.0" y="640.0"/>
      <point x="630.0" y="712.0" type="curve"/>
      <point x="636.0" y="712.0" type="line"/>
      <point x="642.0" y="610.0" type="line"/>
      <point x="698.0" y="610.0" type="line"/>
      <point x="698.0" y="1203.0" type="line" smooth="yes"/>
      <point x="698.0" y="1422.0"/>
      <point x="586.0" y="1492.0"/>
      <point x="383.0" y="1492.0" type="curve" smooth="yes"/>
      <point x="302.0" y="1492.0"/>
      <point x="209.0" y="1478.0"/>
      <point x="137.0" y="1451.0" type="curve"/>
      <point x="137.0" y="1387.0" type="line"/>
      <point x="225.0" y="1417.0"/>
      <point x="311.0" y="1430.0"/>
      <point x="380.0" y="1430.0" type="curve" smooth="yes"/>
      <point x="543.0" y="1430.0"/>
      <point x="634.0" y="1382.0"/>
      <point x="634.0" y="1205.0" type="curve" smooth="yes"/>
      <point x="634.0" y="790.0" type="line"/>
      <point x="558.0" y="697.0"/>
      <point x="456.0" y="658.0"/>
      <point x="359.0" y="658.0" type="curve" smooth="yes"/>
      <point x="222.0" y="658.0"/>
      <point x="154.0" y="720.0"/>
      <point x="154.0" y="833.0" type="curve" smooth="yes"/>
      <point x="154.0" y="940.0"/>
      <point x="223.0" y="999.0"/>
      <point x="392.0" y="1017.0" type="curve" smooth="yes"/>
      <point x="671.0" y="1047.0" type="line"/>
      <point x="668.0" y="1106.0" type="line"/>
      <point x="391.0" y="1076.0" type="line" smooth="yes"/>
      <point x="177.0" y="1053.0"/>
      <point x="86.0" y="971.0"/>
      <point x="86.0" y="827.0" type="curve" smooth="yes"/>
      <point x="86.0" y="683.0"/>
      <point x="189.0" y="596.0"/>
    </contour>
  </outline>
</glyph>
<glyph name="logicalnot" format="2">
  <advance width="1334.0"/>
  <unicode hex="00AC"/>
  <outline>
    <contour>
      <point x="1110.0" y="192.0" type="line"/>
      <point x="1178.0" y="192.0" type="line"/>
      <point x="1178.0" y="792.0" type="line"/>
      <point x="167.0" y="792.0" type="line"/>
      <point x="167.0" y="728.0" type="line"/>
      <point x="1110.0" y="728.0" type="line"/>
    </contour>
  </outline>
</glyph>
<glyph name="degree" format="2">
  <advance width="984.0"/>
  <unicode hex="00B0"/>
  <outline>
    <contour>
      <point x="492.0" y="832.0" type="curve" smooth="yes"/>
      <point x="686.0" y="832.0"/>
      <point x="824.0" y="972.0"/>
      <point x="824.0" y="1164.0" type="curve" smooth="yes"/>
      <point x="824.0" y="1356.0"/>
      <point x="686.0" y="1496.0"/>
      <point x="492.0" y="1496.0" type="curve" smooth="yes"/>
      <point x="298.0" y="1496.0"/>
      <point x="160.0" y="1356.0"/>
      <point x="160.0" y="1164.0" type="curve" smooth="yes"/>
      <point x="160.0" y="972.0"/>
      <point x="298.0" y="832.0"/>
    </contour>
    <contour>
      <point x="492.0" y="896.0" type="curve" smooth="yes"/>
      <point x="337.0" y="896.0"/>
      <point x="227.0" y="1000.0"/>
      <point x="227.0" y="1164.0" type="curve" smooth="yes"/>
      <point x="227.0" y="1328.0"/>
      <point x="337.0" y="1432.0"/>
      <point x="492.0" y="1432.0" type="curve" smooth="yes"/>
      <point x="647.0" y="1432.0"/>
      <point x="757.0" y="1328.0"/>
      <point x="757.0" y="1164.0" type="curve" smooth="yes"/>
      <point x="757.0" y="1000.0"/>
      <point x="647.0" y="896.0"/>
    </contour>
  </outline>
</glyph>
<glyph name="paragraph" format="2">
  <advance width="1184.0"/>
  <unicode hex="00B6"/>
  <outline>
    <contour>
      <point x="728.0" y="0.0" type="line"/>
      <point x="796.0" y="0.0" type="line"/>
      <point x="796.0" y="1480.0" type="line"/>
      <point x="717.0" y="1488.0"/>
      <point x="626.0" y="1494.0"/>
      <point x="530.0" y="1494.0" type="curve" smooth="yes"/>
      <point x="250.0" y="1494.0"/>
      <point x="99.0" y="1343.0"/>
      <point x="99.0" y="1007.0" type="curve" smooth="yes"/>
      <point x="99.0" y="691.0"/>
      <point x="240.0" y="518.0"/>
      <point x="568.0" y="518.0" type="curve" smooth="yes"/>
      <point x="627.0" y="518.0"/>
      <point x="674.0" y="521.0"/>
      <point x="728.0" y="528.0" type="curve"/>
    </contour>
    <contour>
      <point x="926.0" y="0.0" type="line"/>
      <point x="994.0" y="0.0" type="line"/>
      <point x="994.0" y="1480.0" type="line"/>
      <point x="926.0" y="1480.0" type="line"/>
    </contour>
  </outline>
</glyph>
<glyph name="ordmasculine" format="2">
  <advance width="904.0"/>
  <unicode hex="00BA"/>
  <outline>
    <contour>
      <point x="452.0" y="596.0" type="curve" smooth="yes"/>
      <point x="665.0" y="596.0"/>
      <point x="812.0" y="728.0"/>
      <point x="812.0" y="1046.0" type="curve" smooth="yes"/>
      <point x="812.0" y="1364.0"/>
      <point x="665.0" y="1492.0"/>
      <point x="452.0" y="1492.0" type="curve" smooth="yes"/>
      <point x="239.0" y="1492.0"/>
      <point x="92.0" y="1364.0"/>
      <point x="92.0" y="1046.0" type="curve" smooth="yes"/>
      <point x="92.0" y="728.0"/>
      <point x="239.0" y="596.0"/>
    </contour>
    <contour>
      <point x="452.0" y="659.0" type="curve" smooth="yes"/>
      <point x="275.0" y="659.0"/>
      <point x="160.0" y="758.0"/>
      <point x="160.0" y="1046.0" type="curve" smooth="yes"/>
      <point x="160.0" y="1334.0"/>
      <point x="275.0" y="1429.0"/>
      <point x="452.0" y="1429.0" type="curve" smooth="yes"/>
      <point x="629.0" y="1429.0"/>
      <point x="744.0" y="1334.0"/>
      <point x="744.0" y="1046.0" type="curve" smooth="yes"/>
      <point x="744.0" y="758.0"/>
      <point x="629.0" y="659.0"/>
    </contour>
  </outline>
</glyph>
<glyph name="Thorn" format="2">
  <advance width="1194.0"/>
  <unicode hex="00DE"/>
  <outline>
    <contour>
      <point x="190.0" y="0.0" type="line"/>
      <point x="258.0" y="0.0" type="line"/>
      <point x="258.0" y="283.0" type="line"/>
      <point x="337.0" y="275.0"/>
      <point x="403.0" y="272.0"/>
      <point x="482.0" y="272.0" type="curve" smooth="yes"/>
      <point x="904.0" y="272.0"/>
      <point x="1085.0" y="445.0"/>
      <point x="1085.0" y="761.0" type="curve" smooth="yes"/>
      <point x="1085.0" y="1097.0"/>
      <point x="892.0" y="1248.0"/>
      <point x="530.0" y="1248.0" type="curve" smooth="yes"/>
      <point x="418.0" y="1248.0"/>
      <point x="328.0" y="1238.0"/>
      <point x="258.0" y="1226.0" type="curve"/>
      <point x="258.0" y="1481.0" type="line"/>
      <point x="190.0" y="1481.0" type="line"/>
    </contour>
    <contour>
      <point x="485.0" y="338.0" type="curve" smooth="yes"/>
      <point x="402.0" y="338.0"/>
      <point x="331.0" y="342.0"/>
      <point x="258.0" y="352.0" type="curve"/>
      <point x="258.0" y="1160.0" type="line"/>
      <point x="341.0" y="1174.0"/>
      <point x="428.0" y="1182.0"/>
      <point x="530.0" y="1182.0" type="curve" smooth="yes"/>
      <point x="854.0" y="1182.0"/>
      <point x="1013.0" y="1054.0"/>
      <point x="1013.0" y="758.0" type="curve" smooth="yes"/>
      <point x="1013.0" y="478.0"/>
      <point x="858.0" y="338.0"/>
    </contour>
  </outline>
</glyph>
<glyph name="germandbls" format="2">
  <advance width="1288.0"/>
  <unicode hex="00DF"/>
  <outline>
    <contour>
      <point x="826.0" y="-18.0" type="curve" smooth="yes"/>
      <point x="1080.0" y="-18.0"/>
      <point x="1208.0" y="96.0"/>
      <point x="1208.0" y="280.0" type="curve" smooth="yes"/>
      <point x="1208.0" y="426.0"/>
      <point x="1140.0" y="517.0"/>
      <point x="935.0" y="564.0" type="curve" smooth="yes"/>
      <point x="806.0" y="592.0" type="line" smooth="yes"/>
      <point x="660.0" y="625.0"/>
      <point x="607.0" y="697.0"/>
      <point x="607.0" y="806.0" type="curve" smooth="yes"/>
      <point x="607.0" y="933.0"/>
      <point x="695.0" y="1030.0"/>
      <point x="917.0" y="1030.0" type="curve" smooth="yes"/>
      <point x="985.0" y="1030.0"/>
      <point x="1024.0" y="1023.0"/>
      <point x="1062.0" y="1015.0" type="curve"/>
      <point x="1074.0" y="1061.0"/>
      <point x="1086.0" y="1144.0"/>
      <point x="1086.0" y="1209.0" type="curve" smooth="yes"/>
      <point x="1086.0" y="1513.0"/>
      <point x="908.0" y="1636.0"/>
      <point x="674.0" y="1636.0" type="curve" smooth="yes"/>
      <point x="399.0" y="1636.0"/>
      <point x="235.0" y="1485.0"/>
      <point x="235.0" y="1152.0" type="curve" smooth="yes"/>
      <point x="235.0" y="0.0" type="line"/>
      <point x="303.0" y="0.0" type="line"/>
      <point x="303.0" y="1146.0" type="line" smooth="yes"/>
      <point x="303.0" y="1455.0"/>
      <point x="442.0" y="1570.0"/>
      <point x="674.0" y="1570.0" type="curve" smooth="yes"/>
      <point x="871.0" y="1570.0"/>
      <point x="1022.0" y="1479.0"/>
      <point x="1021.0" y="1206.0" type="curve" smooth="yes"/>
      <point x="1021.0" y="1161.0"/>
      <point x="1015.0" y="1108.0"/>
      <point x="1005.0" y="1063.0" type="curve"/>
      <point x="1042.0" y="1084.0" type="line"/>
      <point x="998.0" y="1091.0"/>
      <point x="956.0" y="1094.0"/>
      <point x="917.0" y="1094.0" type="curve" smooth="yes"/>
      <point x="658.0" y="1094.0"/>
      <point x="536.0" y="969.0"/>
      <point x="536.0" y="801.0" type="curve" smooth="yes"/>
      <point x="536.0" y="659.0"/>
      <point x="607.0" y="564.0"/>
      <point x="801.0" y="520.0" type="curve" smooth="yes"/>
      <point x="930.0" y="492.0" type="line" smooth="yes"/>
      <point x="1078.0" y="459.0"/>
      <point x="1137.0" y="399.0"/>
      <point x="1137.0" y="274.0" type="curve" smooth="yes"/>
      <point x="1137.0" y="130.0"/>
      <point x="1040.0" y="48.0"/>
      <point x="827.0" y="48.0" type="curve" smooth="yes"/>
      <point x="738.0" y="48.0"/>
      <point x="658.0" y="58.0"/>
      <point x="552.0" y="90.0" type="curve"/>
      <point x="552.0" y="22.0" type="line"/>
      <point x="638.0" y="-6.0"/>
      <point x="725.0" y="-18.0"/>
    </contour>
    <contour>
      <point x="15.0" y="1014.0" type="line"/>
      <point x="284.0" y="1014.0" type="line"/>
      <point x="284.0" y="1080.0" type="line"/>
      <point x="15.0" y="1080.0" type="line"/>
    </contour>
  </outline>
</glyph>
<glyph name="eth" format="2">
  <advance width="1058.0"/>
  <unicode hex="00F0"/>
  <guideline x="589.0" y="944.0" angle="90.0"/>
  <outline>
    <contour>
      <point x="531.0" y="-18.0" type="curve" smooth="yes"/>
      <point x="781.0" y="-18.0"/>
      <point x="948.0" y="158.0"/>
      <point x="948.0" y="570.0" type="curve" smooth="yes"/>
      <point x="948.0" y="978.0"/>
      <point x="722.0" y="1410.0"/>
      <point x="439.0" y="1616.0" type="curve"/>
      <point x="344.0" y="1616.0" type="line"/>
      <point x="614.0" y="1413.0"/>
      <point x="748.0" y="1177.0"/>
      <point x="822.0" y="937.0" type="curve"/>
      <point x="865.0" y="894.0" type="line"/>
      <point x="783.0" y="1051.0"/>
      <point x="663.0" y="1096.0"/>
      <point x="529.0" y="1096.0" type="curve" smooth="yes"/>
      <point x="277.0" y="1096.0"/>
      <point x="108.0" y="937.0"/>
      <point x="108.0" y="540.0" type="curve" smooth="yes"/>
      <point x="108.0" y="139.0"/>
      <point x="277.0" y="-18.0"/>
    </contour>
    <contour>
      <point x="531.0" y="48.0" type="curve" smooth="yes"/>
      <point x="317.0" y="48.0"/>
      <point x="180.0" y="172.0"/>
      <point x="180.0" y="543.0" type="curve" smooth="yes"/>
      <point x="180.0" y="908.0"/>
      <point x="317.0" y="1030.0"/>
      <point x="529.0" y="1030.0" type="curve" smooth="yes"/>
      <point x="741.0" y="1030.0"/>
      <point x="878.0" y="908.0"/>
      <point x="878.0" y="537.0" type="curve" smooth="yes"/>
      <point x="878.0" y="187.0"/>
      <point x="739.0" y="48.0"/>
    </contour>
    <contour>
      <point x="214.0" y="1248.0" type="line"/>
      <point x="927.0" y="1363.0" type="line"/>
      <point x="918.0" y="1421.0" type="line"/>
      <point x="205.0" y="1306.0" type="line"/>
    </contour>
  </outline>
</glyph>
<glyph name="thorn" format="2">
  <advance width="1071.0"/>
  <unicode hex="00FE"/>
  <outline>
    <contour>
      <point x="170.0" y="-440.0" type="line"/>
      <point x="238.0" y="-440.0" type="line"/>
      <point x="238.0" y="-1.0" type="line"/>
      <point x="298.0" y="-10.0"/>
      <point x="373.0" y="-18.0"/>
      <point x="444.0" y="-18.0" type="curve" smooth="yes"/>
      <point x="783.0" y="-18.0"/>
      <point x="963.0" y="163.0"/>
      <point x="963.0" y="560.0" type="curve" smooth="yes"/>
      <point x="963.0" y="962.0"/>
      <point x="779.0" y="1096.0"/>
      <point x="555.0" y="1096.0" type="curve" smooth="yes"/>
      <point x="418.0" y="1096.0"/>
      <point x="312.0" y="1040.0"/>
      <point x="244.0" y="963.0" type="curve"/>
      <point x="238.0" y="963.0" type="line"/>
      <point x="238.0" y="1616.0" type="line"/>
      <point x="170.0" y="1616.0" type="line"/>
    </contour>
    <contour>
      <point x="447.0" y="48.0" type="curve" smooth="yes"/>
      <point x="375.0" y="48.0"/>
      <point x="294.0" y="57.0"/>
      <point x="238.0" y="71.0" type="curve"/>
      <point x="238.0" y="864.0" type="line"/>
      <point x="312.0" y="979.0"/>
      <point x="433.0" y="1030.0"/>
      <point x="550.0" y="1030.0" type="curve" smooth="yes"/>
      <point x="742.0" y="1030.0"/>
      <point x="891.0" y="925.0"/>
      <point x="891.0" y="552.0" type="curve" smooth="yes"/>
      <point x="891.0" y="196.0"/>
      <point x="740.0" y="48.0"/>
    </contour>
  </outline>
</glyph>
<glyph name="idotless" format="2">
  <advance width="408.0"/>
  <unicode hex="0131"/>
  <anchor x="204.0" y="0.0" name="bottom"/>
  <anchor x="238.0" y="0.0" name="ogonek"/>
  <anchor x="204.0" y="1200.0" name="top"/>
  <outline>
    <contour>
      <point x="170.0" y="0.0" type="line"/>
      <point x="238.0" y="0.0" type="line"/>
      <point x="238.0" y="1080.0" type="line"/>
      <point x="170.0" y="1080.0" type="line"/>
    </contour>
  </outline>
</glyph>
<glyph name="kgreenlandic" format="2">
  <advance width="957.0"/>
  <unicode hex="0138"/>
  <outline>
    <contour>
      <point x="887.0" y="0.0" type="line"/>
      <point x="972.0" y="0.0" type="line"/>
      <point x="500.0" y="563.0" type="line"/>
      <point x="500.0" y="541.0" type="line"/>
      <point x="940.0" y="1080.0" type="line"/>
      <point x="856.0" y="1080.0" type="line"/>
      <point x="423.0" y="552.0" type="line"/>
    </contour>
    <contour>
      <point x="170.0" y="0.0" type="line"/>
      <point x="238.0" y="0.0" type="line"/>
      <point x="238.0" y="1080.0" type="line"/>
      <point x="170.0" y="1080.0" type="line"/>
    </contour>
    <contour>
      <point x="222.0" y="520.0" type="line"/>
      <point x="466.0" y="520.0" type="line"/>
      <point x="466.0" y="584.0" type="line"/>
      <point x="222.0" y="584.0" type="line"/>
    </contour>
  </outline>
</glyph>
<glyph name="ldot" format="2">
  <advance width="408.0"/>
  <unicode hex="0140"/>
  <outline>
    <contour>
      <point x="170.0" y="0.0" type="line"/>
      <point x="238.0" y="0.0" type="line"/>
      <point x="238.0" y="1616.0" type="line"/>
      <point x="170.0" y="1616.0" type="line"/>
    </contour>
    <contour>
      <point x="397.0" y="730.0" type="curve" smooth="yes"/>
      <point x="433.0" y="730.0"/>
      <point x="459.0" y="754.0"/>
      <point x="459.0" y="792.0" type="curve" smooth="yes"/>
      <point x="459.0" y="830.0"/>
      <point x="433.0" y="856.0"/>
      <point x="397.0" y="856.0" type="curve" smooth="yes"/>
      <point x="361.0" y="856.0"/>
      <point x="335.0" y="830.0"/>
      <point x="335.0" y="792.0" type="curve" smooth="yes"/>
      <point x="335.0" y="754.0"/>
      <point x="361.0" y="730.0"/>
    </contour>
  </outline>
</glyph>
<glyph name="eng" format="2">
  <advance width="1087.0"/>
  <unicode hex="014B"/>
  <outline>
    <contour>
      <point x="721.0" y="-460.0" type="line"/>
      <point x="866.0" y="-262.0"/>
      <point x="920.0" y="-98.0"/>
      <point x="931.0" y="133.0" type="curve" smooth="yes"/>
      <point x="931.0" y="739.0" type="line" smooth="yes"/>
      <point x="931.0" y="1004.0"/>
      <point x="793.0" y="1096.0"/>
      <point x="597.0" y="1096.0" type="curve" smooth="yes"/>
      <point x="464.0" y="1096.0"/>
      <point x="339.0" y="1049.0"/>
      <point x="244.0" y="951.0" type="curve"/>
      <point x="236.0" y="951.0" type="line"/>
      <point x="230.0" y="1080.0" type="line"/>
      <point x="170.0" y="1080.0" type="line"/>
      <point x="170.0" y="0.0" type="line"/>
      <point x="238.0" y="0.0" type="line"/>
      <point x="238.0" y="852.0" type="line"/>
      <point x="332.0" y="981.0"/>
      <point x="476.0" y="1030.0"/>
      <point x="594.0" y="1030.0" type="curve" smooth="yes"/>
      <point x="755.0" y="1030.0"/>
      <point x="863.0" y="957.0"/>
      <point x="863.0" y="740.0" type="curve" smooth="yes"/>
      <point x="863.0" y="166.0" type="line" smooth="yes"/>
      <point x="863.0" y="-74.0"/>
      <point x="805.0" y="-242.0"/>
      <point x="672.0" y="-425.0" type="curve"/>
    </contour>
  </outline>
</glyph>
<glyph name="OE" format="2">
  <advance width="1946.0"/>
  <unicode hex="0152"/>
  <anchor x="1087.0" y="0.0" name="bottom"/>
  <anchor x="1087.0" y="1520.0" name="top"/>
  <outline>
    <contour>
      <point x="818.0" y="-10.0" type="curve" smooth="yes"/>
      <point x="927.0" y="-10.0"/>
      <point x="1037.0" y="0.0"/>
      <point x="1116.0" y="0.0" type="curve" smooth="yes"/>
      <point x="1875.0" y="0.0" type="line"/>
      <point x="1875.0" y="66.0" type="line"/>
      <point x="1121.0" y="66.0" type="line"/>
      <point x="1121.0" y="1414.0" type="line"/>
      <point x="1865.0" y="1414.0" type="line"/>
      <point x="1865.0" y="1480.0" type="line"/>
      <point x="1103.0" y="1480.0" type="line" smooth="yes"/>
      <point x="1018.0" y="1480.0"/>
      <point x="912.0" y="1494.0"/>
      <point x="800.0" y="1494.0" type="curve" smooth="yes"/>
      <point x="355.0" y="1494.0"/>
      <point x="118.0" y="1250.0"/>
      <point x="118.0" y="740.0" type="curve" smooth="yes"/>
      <point x="118.0" y="222.0"/>
      <point x="364.0" y="-10.0"/>
    </contour>
    <contour>
      <point x="816.0" y="56.0" type="curve" smooth="yes"/>
      <point x="404.0" y="56.0"/>
      <point x="190.0" y="259.0"/>
      <point x="190.0" y="740.0" type="curve" smooth="yes"/>
      <point x="190.0" y="1216.0"/>
      <point x="395.0" y="1428.0"/>
      <point x="805.0" y="1428.0" type="curve" smooth="yes"/>
      <point x="896.0" y="1428.0"/>
      <point x="971.0" y="1423.0"/>
      <point x="1053.0" y="1413.0" type="curve"/>
      <point x="1053.0" y="67.0" type="line"/>
      <point x="992.0" y="59.0"/>
      <point x="917.0" y="56.0"/>
    </contour>
    <contour>
      <point x="1113.0" y="728.0" type="line"/>
      <point x="1770.0" y="728.0" type="line"/>
      <point x="1770.0" y="794.0" type="line"/>
      <point x="1113.0" y="794.0" type="line"/>
    </contour>
  </outline>
</glyph>
<glyph name="Uogonek" format="2">
  <advance width="1372.0"/>
  <unicode hex="0172"/>
  <outline>
    <contour>
      <point x="780.0" y="-398.0" type="curve" smooth="yes"/>
      <point x="835.0" y="-398.0"/>
      <point x="891.0" y="-385.0"/>
      <point x="947.0" y="-359.0" type="curve"/>
      <point x="947.0" y="-305.0" type="line"/>
      <point x="877.0" y="-334.0"/>
      <point x="829.0" y="-346.0"/>
      <point x="777.0" y="-346.0" type="curve" smooth="yes"/>
      <point x="679.0" y="-346.0"/>
      <point x="627.0" y="-305.0"/>
      <point x="627.0" y="-224.0" type="curve" smooth="yes"/>
      <point x="627.0" y="-137.0"/>
      <point x="689.0" y="-51.0"/>
      <point x="882.0" y="5.0" type="curve" smooth="yes"/>
      <point x="1103.0" y="68.0"/>
      <point x="1190.0" y="245.0"/>
      <point x="1190.0" y="529.0" type="curve" smooth="yes"/>
      <point x="1190.0" y="1480.0" type="line"/>
      <point x="1124.0" y="1480.0" type="line"/>
      <point x="1124.0" y="519.0" type="line" smooth="yes"/>
      <point x="1124.0" y="194.0"/>
      <point x="992.0" y="48.0"/>
      <point x="687.0" y="48.0" type="curve" smooth="yes"/>
      <point x="382.0" y="48.0"/>
      <point x="250.0" y="194.0"/>
      <point x="250.0" y="519.0" type="curve" smooth="yes"/>
      <point x="250.0" y="1480.0" type="line"/>
      <point x="182.0" y="1480.0" type="line"/>
      <point x="182.0" y="529.0" type="line" smooth="yes"/>
      <point x="182.0" y="150.0"/>
      <point x="340.0" y="-18.0"/>
      <point x="687.0" y="-18.0" type="curve" smooth="yes"/>
      <point x="732.0" y="-18.0" type="line"/>
      <point x="725.0" y="-5.0" type="line"/>
      <point x="613.0" y="-62.0"/>
      <point x="571.0" y="-143.0"/>
      <point x="571.0" y="-225.0" type="curve" smooth="yes"/>
      <point x="571.0" y="-337.0"/>
      <point x="644.0" y="-398.0"/>
    </contour>
  </outline>
</glyph>
<glyph name="Schwa" format="2">
  <advance width="1370.0"/>
  <unicode hex="018F"/>
  <anchor x="686.0" y="0.0" name="bottom"/>
  <anchor x="686.0" y="1520.0" name="top"/>
  <outline>
    <contour>
      <point x="684.0" y="-18.0" type="curve" smooth="yes"/>
      <point x="1023.0" y="-18.0"/>
      <point x="1252.0" y="189.0"/>
      <point x="1252.0" y="739.0" type="curve" smooth="yes"/>
      <point x="1252.0" y="1288.0"/>
      <point x="993.0" y="1498.0"/>
      <point x="561.0" y="1498.0" type="curve" smooth="yes"/>
      <point x="432.0" y="1498.0"/>
      <point x="309.0" y="1485.0"/>
      <point x="181.0" y="1451.0" type="curve"/>
      <point x="181.0" y="1383.0" type="line"/>
      <point x="307.0" y="1419.0"/>
      <point x="446.0" y="1432.0"/>
      <point x="559.0" y="1432.0" type="curve" smooth="yes"/>
      <point x="961.0" y="1432.0"/>
      <point x="1180.0" y="1258.0"/>
      <point x="1180.0" y="737.0" type="curve" smooth="yes"/>
      <point x="1180.0" y="224.0"/>
      <point x="980.0" y="49.0"/>
      <point x="684.0" y="49.0" type="curve" smooth="yes"/>
      <point x="374.0" y="49.0"/>
      <point x="180.0" y="224.0"/>
      <point x="180.0" y="738.0" type="curve"/>
      <point x="150.0" y="714.0" type="line"/>
      <point x="1209.0" y="714.0" type="line"/>
      <point x="1209.0" y="780.0" type="line"/>
      <point x="108.0" y="780.0" type="line"/>
      <point x="108.0" y="730.0" type="line" smooth="yes"/>
      <point x="108.0" y="191.0"/>
      <point x="334.0" y="-18.0"/>
    </contour>
  </outline>
</glyph>
<glyph name="florin" format="2">
  <advance width="667.0"/>
  <unicode hex="0192"/>
  <outline>
    <contour>
      <point x="-33.0" y="-460.0" type="curve" smooth="yes"/>
      <point x="189.0" y="-460.0"/>
      <point x="303.0" y="-353.0"/>
      <point x="303.0" y="-134.0" type="curve" smooth="yes"/>
      <point x="303.0" y="1317.0" type="line" smooth="yes"/>
      <point x="303.0" y="1498.0"/>
      <point x="393.0" y="1570.0"/>
      <point x="567.0" y="1570.0" type="curve" smooth="yes"/>
      <point x="616.0" y="1570.0"/>
      <point x="655.0" y="1565.0"/>
      <point x="713.0" y="1556.0" type="curve"/>
      <point x="713.0" y="1624.0" type="line"/>
      <point x="664.0" y="1633.0"/>
      <point x="613.0" y="1636.0"/>
      <point x="571.0" y="1636.0" type="curve" smooth="yes"/>
      <point x="349.0" y="1636.0"/>
      <point x="235.0" y="1529.0"/>
      <point x="235.0" y="1310.0" type="curve" smooth="yes"/>
      <point x="235.0" y="-141.0" type="line" smooth="yes"/>
      <point x="235.0" y="-322.0"/>
      <point x="145.0" y="-394.0"/>
      <point x="-29.0" y="-394.0" type="curve" smooth="yes"/>
      <point x="-78.0" y="-394.0"/>
      <point x="-117.0" y="-389.0"/>
      <point x="-175.0" y="-380.0" type="curve"/>
      <point x="-175.0" y="-448.0" type="line"/>
      <point x="-126.0" y="-457.0"/>
      <point x="-75.0" y="-460.0"/>
    </contour>
    <contour>
      <point x="15.0" y="1014.0" type="line"/>
      <point x="674.0" y="1014.0" type="line"/>
      <point x="674.0" y="1080.0" type="line"/>
      <point x="15.0" y="1080.0" type="line"/>
    </contour>
  </outline>
</glyph>
<glyph name="Oogonek" format="2">
  <advance width="1368.0"/>
  <unicode hex="01EA"/>
  <outline>
    <contour>
      <point x="802.0" y="-400.0" type="curve" smooth="yes"/>
      <point x="857.0" y="-400.0"/>
      <point x="913.0" y="-387.0"/>
      <point x="969.0" y="-361.0" type="curve"/>
      <point x="969.0" y="-307.0" type="line"/>
      <point x="899.0" y="-336.0"/>
      <point x="851.0" y="-348.0"/>
      <point x="799.0" y="-348.0" type="curve" smooth="yes"/>
      <point x="701.0" y="-348.0"/>
      <point x="649.0" y="-307.0"/>
      <point x="649.0" y="-228.0" type="curve" smooth="yes"/>
      <point x="649.0" y="-141.0"/>
      <point x="706.0" y="-56.0"/>
      <point x="896.0" y="15.0" type="curve" smooth="yes"/>
      <point x="1106.0" y="95.0"/>
      <point x="1250.0" y="304.0"/>
      <point x="1250.0" y="740.0" type="curve" smooth="yes"/>
      <point x="1250.0" y="1291.0"/>
      <point x="1020.0" y="1498.0"/>
      <point x="684.0" y="1498.0" type="curve" smooth="yes"/>
      <point x="348.0" y="1498.0"/>
      <point x="118.0" y="1285.0"/>
      <point x="118.0" y="740.0" type="curve" smooth="yes"/>
      <point x="118.0" y="195.0"/>
      <point x="346.0" y="-18.0"/>
      <point x="688.0" y="-18.0" type="curve" smooth="yes"/>
      <point x="749.0" y="-18.0" type="line"/>
      <point x="749.0" y="-2.0" type="line"/>
      <point x="632.0" y="-67.0"/>
      <point x="591.0" y="-145.0"/>
      <point x="591.0" y="-231.0" type="curve" smooth="yes"/>
      <point x="591.0" y="-339.0"/>
      <point x="668.0" y="-400.0"/>
    </contour>
    <contour>
      <point x="684.0" y="49.0" type="curve" smooth="yes"/>
      <point x="390.0" y="49.0"/>
      <point x="190.0" y="224.0"/>
      <point x="190.0" y="744.0" type="curve" smooth="yes"/>
      <point x="190.0" y="1256.0"/>
      <point x="390.0" y="1431.0"/>
      <point x="684.0" y="1431.0" type="curve" smooth="yes"/>
      <point x="978.0" y="1431.0"/>
      <point x="1178.0" y="1256.0"/>
      <point x="1178.0" y="736.0" type="curve" smooth="yes"/>
      <point x="1178.0" y="224.0"/>
      <point x="978.0" y="49.0"/>
    </contour>
  </outline>
</glyph>
<glyph name="commaturnedmod" format="2">
  <advance width="1000.0"/>
  <unicode hex="02BB"/>
  <anchor x="500.0" y="1200.0" name="_top"/>
  <anchor x="500.0" y="1616.0" name="top"/>
  <outline>
    <contour>
      <point x="504.0" y="1360.0" type="curve" smooth="yes"/>
      <point x="538.0" y="1360.0"/>
      <point x="562.0" y="1386.0"/>
      <point x="562.0" y="1422.0" type="curve" smooth="yes"/>
      <point x="562.0" y="1460.0"/>
      <point x="536.0" y="1486.0"/>
      <point x="500.0" y="1486.0" type="curve" smooth="yes"/>
      <point x="488.0" y="1486.0" type="line"/>
      <point x="492.0" y="1454.0" type="line"/>
      <point x="492.0" y="1502.0"/>
      <point x="498.0" y="1552.0"/>
      <point x="526.0" y="1624.0" type="curve"/>
      <point x="482.0" y="1624.0" type="line"/>
      <point x="452.0" y="1562.0"/>
      <point x="438.0" y="1494.0"/>
      <point x="438.0" y="1446.0" type="curve" smooth="yes"/>
      <point x="438.0" y="1388.0"/>
      <point x="464.0" y="1360.0"/>
    </contour>
  </outline>
</glyph>
<glyph name="fourthtonechinese" format="2">
  <advance width="1000.0"/>
  <unicode hex="02CB"/>
  <anchor x="500.0" y="1200.0" name="_top"/>
  <anchor x="500.0" y="1556.0" name="top"/>
  <outline>
    <contour>
      <point x="468.0" y="1264.0" type="line"/>
      <point x="532.0" y="1264.0" type="line"/>
      <point x="324.0" y="1616.0" type="line"/>
      <point x="246.0" y="1616.0" type="line"/>
    </contour>
  </outline>
</glyph>
<glyph name="macroncomb" format="2">
  <unicode hex="0304"/>
  <anchor x="500.0" y="1200.0" name="_top"/>
  <anchor x="500.0" y="1556.0" name="top"/>
  <outline>
    <contour>
      <point x="217.0" y="1394.0" type="line"/>
      <point x="783.0" y="1394.0" type="line"/>
      <point x="783.0" y="1453.0" type="line"/>
      <point x="217.0" y="1453.0" type="line"/>
    </contour>
  </outline>
</glyph>
<glyph name="hookabovecomb" format="2">
  <unicode hex="0309"/>
  <anchor x="500.0" y="1200.0" name="_top"/>
  <anchor x="500.0" y="1616.0" name="top"/>
  <outline>
    <contour>
      <point x="469.0" y="1264.0" type="curve"/>
      <point x="531.0" y="1264.0" type="line"/>
      <point x="534.0" y="1381.0"/>
      <point x="689.0" y="1368.0"/>
      <point x="689.0" y="1496.0" type="curve" smooth="yes"/>
      <point x="689.0" y="1578.0"/>
      <point x="630.0" y="1628.0"/>
      <point x="498.0" y="1628.0" type="curve" smooth="yes"/>
      <point x="445.0" y="1628.0"/>
      <point x="388.0" y="1618.0"/>
      <point x="349.0" y="1604.0" type="curve"/>
      <point x="349.0" y="1548.0" type="line"/>
      <point x="393.0" y="1564.0"/>
      <point x="454.0" y="1572.0"/>
      <point x="502.0" y="1572.0" type="curve" smooth="yes"/>
      <point x="592.0" y="1572.0"/>
      <point x="630.0" y="1547.0"/>
      <point x="630.0" y="1495.0" type="curve" smooth="yes"/>
      <point x="630.0" y="1407.0"/>
      <point x="472.0" y="1408.0"/>
    </contour>
  </outline>
</glyph>
<glyph name="caroncomb" format="2">
  <unicode hex="030C"/>
  <anchor x="500.0" y="1200.0" name="_top"/>
  <anchor x="500.0" y="1556.0" name="top"/>
  <outline>
    <contour>
      <point x="462.0" y="1264.0" type="line"/>
      <point x="538.0" y="1264.0" type="line"/>
      <point x="760.0" y="1616.0" type="line"/>
      <point x="689.0" y="1616.0" type="line"/>
      <point x="487.0" y="1288.0" type="line"/>
      <point x="513.0" y="1288.0" type="line"/>
      <point x="311.0" y="1616.0" type="line"/>
      <point x="240.0" y="1616.0" type="line"/>
    </contour>
  </outline>
</glyph>
<glyph name="dblgravecomb" format="2">
  <unicode hex="030F"/>
  <anchor x="500.0" y="1200.0" name="_top"/>
  <anchor x="500.0" y="1616.0" name="top"/>
  <outline>
    <contour>
      <point x="617.0" y="1264.0" type="line"/>
      <point x="678.0" y="1264.0" type="line"/>
      <point x="545.0" y="1616.0" type="line"/>
      <point x="475.0" y="1616.0" type="line"/>
    </contour>
    <contour>
      <point x="322.0" y="1264.0" type="line"/>
      <point x="383.0" y="1264.0" type="line"/>
      <point x="250.0" y="1616.0" type="line"/>
      <point x="180.0" y="1616.0" type="line"/>
    </contour>
  </outline>
</glyph>
<glyph name="breveinvertedcomb" format="2">
  <unicode hex="0311"/>
  <anchor x="500.0" y="1200.0" name="_top"/>
  <anchor x="500.0" y="1616.0" name="top"/>
  <outline>
    <contour>
      <point x="238.0" y="1292.0" type="curve"/>
      <point x="296.0" y="1292.0" type="line"/>
      <point x="304.0" y="1458.0"/>
      <point x="367.0" y="1545.0"/>
      <point x="498.0" y="1545.0" type="curve" smooth="yes"/>
      <point x="629.0" y="1545.0"/>
      <point x="694.0" y="1458.0"/>
      <point x="704.0" y="1292.0" type="curve"/>
      <point x="762.0" y="1292.0" type="line"/>
      <point x="755.0" y="1490.0"/>
      <point x="660.0" y="1604.0"/>
      <point x="498.0" y="1604.0" type="curve" smooth="yes"/>
      <point x="336.0" y="1604.0"/>
      <point x="245.0" y="1492.0"/>
    </contour>
  </outline>
</glyph>
<glyph name="dotbelowcomb" format="2">
  <unicode hex="0323"/>
  <anchor x="500.0" y="0.0" name="_bottom"/>
  <anchor x="500.0" y="-440.0" name="bottom"/>
  <outline>
    <contour>
      <point x="500.0" y="-310.0" type="curve" smooth="yes"/>
      <point x="536.0" y="-310.0"/>
      <point x="562.0" y="-286.0"/>
      <point x="562.0" y="-248.0" type="curve" smooth="yes"/>
      <point x="562.0" y="-210.0"/>
      <point x="536.0" y="-184.0"/>
      <point x="500.0" y="-184.0" type="curve" smooth="yes"/>
      <point x="464.0" y="-184.0"/>
      <point x="438.0" y="-210.0"/>
      <point x="438.0" y="-248.0" type="curve" smooth="yes"/>
      <point x="438.0" y="-286.0"/>
      <point x="464.0" y="-310.0"/>
    </contour>
  </outline>
</glyph>
<glyph name="dieresisbelowcomb" format="2">
  <unicode hex="0324"/>
  <anchor x="500.0" y="0.0" name="_bottom"/>
  <anchor x="500.0" y="-440.0" name="bottom"/>
  <outline>
    <contour>
      <point x="700.0" y="-310.0" type="curve" smooth="yes"/>
      <point x="736.0" y="-310.0"/>
      <point x="762.0" y="-286.0"/>
      <point x="762.0" y="-248.0" type="curve" smooth="yes"/>
      <point x="762.0" y="-210.0"/>
      <point x="736.0" y="-184.0"/>
      <point x="700.0" y="-184.0" type="curve" smooth="yes"/>
      <point x="664.0" y="-184.0"/>
      <point x="638.0" y="-210.0"/>
      <point x="638.0" y="-248.0" type="curve" smooth="yes"/>
      <point x="638.0" y="-286.0"/>
      <point x="664.0" y="-310.0"/>
    </contour>
    <contour>
      <point x="300.0" y="-310.0" type="curve" smooth="yes"/>
      <point x="336.0" y="-310.0"/>
      <point x="362.0" y="-286.0"/>
      <point x="362.0" y="-248.0" type="curve" smooth="yes"/>
      <point x="362.0" y="-210.0"/>
      <point x="336.0" y="-184.0"/>
      <point x="300.0" y="-184.0" type="curve" smooth="yes"/>
      <point x="264.0" y="-184.0"/>
      <point x="238.0" y="-210.0"/>
      <point x="238.0" y="-248.0" type="curve" smooth="yes"/>
      <point x="238.0" y="-286.0"/>
      <point x="264.0" y="-310.0"/>
    </contour>
  </outline>
</glyph>
<glyph name="cedillacomb" format="2">
  <unicode hex="0327"/>
  <anchor x="500.0" y="0.0" name="_bottom"/>
  <outline>
    <contour>
      <point x="505.0" y="-400.0" type="curve" smooth="yes"/>
      <point x="616.0" y="-400.0"/>
      <point x="681.0" y="-346.0"/>
      <point x="681.0" y="-257.0" type="curve" smooth="yes"/>
      <point x="681.0" y="-166.0"/>
      <point x="619.0" y="-113.0"/>
      <point x="507.0" y="-113.0" type="curve"/>
      <point x="530.0" y="-142.0" type="line"/>
      <point x="530.0" y="20.0" type="line"/>
      <point x="474.0" y="20.0" type="line"/>
      <point x="474.0" y="-164.0" type="line"/>
      <point x="506.0" y="-164.0" type="line" smooth="yes"/>
      <point x="585.0" y="-164.0"/>
      <point x="626.0" y="-193.0"/>
      <point x="626.0" y="-257.0" type="curve" smooth="yes"/>
      <point x="626.0" y="-318.0"/>
      <point x="587.0" y="-348.0"/>
      <point x="508.0" y="-348.0" type="curve" smooth="yes"/>
      <point x="456.0" y="-348.0"/>
      <point x="401.0" y="-338.0"/>
      <point x="342.0" y="-307.0" type="curve"/>
      <point x="342.0" y="-363.0" type="line"/>
      <point x="384.0" y="-387.0"/>
      <point x="450.0" y="-400.0"/>
    </contour>
  </outline>
</glyph>
<glyph name="ogonekcomb" format="2">
  <unicode hex="0328"/>
  <anchor x="500.0" y="0.0" name="_ogonek"/>
  <outline>
    <contour>
      <point x="458.0" y="-400.0" type="curve" smooth="yes"/>
      <point x="507.0" y="-400.0"/>
      <point x="565.0" y="-385.0"/>
      <point x="608.0" y="-359.0" type="curve"/>
      <point x="608.0" y="-303.0" type="line"/>
      <point x="558.0" y="-333.0"/>
      <point x="507.0" y="-348.0"/>
      <point x="455.0" y="-348.0" type="curve" smooth="yes"/>
      <point x="374.0" y="-348.0"/>
      <point x="325.0" y="-304.0"/>
      <point x="325.0" y="-228.0" type="curve" smooth="yes"/>
      <point x="325.0" y="-144.0"/>
      <point x="376.0" y="-77.0"/>
      <point x="500.0" y="0.0" type="curve"/>
      <point x="474.0" y="47.0" type="line"/>
      <point x="332.0" y="-40.0"/>
      <point x="269.0" y="-126.0"/>
      <point x="269.0" y="-231.0" type="curve" smooth="yes"/>
      <point x="269.0" y="-336.0"/>
      <point x="340.0" y="-400.0"/>
    </contour>
  </outline>
</glyph>
<glyph name="macronbelowcomb" format="2">
  <unicode hex="0331"/>
  <anchor x="500.0" y="0.0" name="_bottom"/>
  <anchor x="500.0" y="-440.0" name="bottom"/>
  <outline>
    <contour>
      <point x="250.0" y="-278.0" type="line"/>
      <point x="750.0" y="-278.0" type="line"/>
      <point x="750.0" y="-219.0" type="line"/>
      <point x="250.0" y="-219.0" type="line"/>
    </contour>
  </outline>
</glyph>
<glyph name="slashshortcomb" format="2">
  <unicode hex="0337"/>
  <anchor x="400.0" y="774.0" name="_slash"/>
  <outline>
    <contour>
      <point x="247.0" y="600.0" type="line"/>
      <point x="594.0" y="904.0" type="line"/>
      <point x="555.0" y="948.0" type="line"/>
      <point x="208.0" y="644.0" type="line"/>
    </contour>
  </outline>
</glyph>
<glyph name="Germandbls" format="2">
  <advance width="1622.0"/>
  <unicode hex="1E9E"/>
  <outline>
    <contour>
      <point x="1050.0" y="-18.0" type="curve" smooth="yes"/>
      <point x="1362.0" y="-18.0"/>
      <point x="1537.0" y="123.0"/>
      <point x="1537.0" y="380.0" type="curve" smooth="yes"/>
      <point x="1537.0" y="587.0"/>
      <point x="1417.0" y="706.0"/>
      <point x="1151.0" y="774.0" type="curve" smooth="yes"/>
      <point x="1089.0" y="790.0" type="line" smooth="yes"/>
      <point x="857.0" y="851.0"/>
      <point x="769.0" y="937.0"/>
      <point x="769.0" y="1116.0" type="curve" smooth="yes"/>
      <point x="769.0" y="1319.0"/>
      <point x="902.0" y="1432.0"/>
      <point x="1169.0" y="1432.0" type="curve" smooth="yes"/>
      <point x="1273.0" y="1432.0"/>
      <point x="1374.0" y="1418.0"/>
      <point x="1479.0" y="1385.0" type="curve"/>
      <point x="1479.0" y="1453.0" type="line"/>
      <point x="1388.0" y="1483.0"/>
      <point x="1275.0" y="1498.0"/>
      <point x="1173.0" y="1498.0" type="curve" smooth="yes"/>
      <point x="859.0" y="1498.0"/>
      <point x="697.0" y="1350.0"/>
      <point x="697.0" y="1112.0" type="curve" smooth="yes"/>
      <point x="697.0" y="906.0"/>
      <point x="817.0" y="786.0"/>
      <point x="1064.0" y="722.0" type="curve" smooth="yes"/>
      <point x="1126.0" y="706.0" type="line" smooth="yes"/>
      <point x="1366.0" y="643.0"/>
      <point x="1465.0" y="561.0"/>
      <point x="1465.0" y="377.0" type="curve" smooth="yes"/>
      <point x="1465.0" y="160.0"/>
      <point x="1326.0" y="48.0"/>
      <point x="1054.0" y="48.0" type="curve" smooth="yes"/>
      <point x="951.0" y="48.0"/>
      <point x="837.0" y="65.0"/>
      <point x="713.0" y="107.0" type="curve"/>
      <point x="713.0" y="39.0" type="line"/>
      <point x="824.0" y="0.0"/>
      <point x="947.0" y="-18.0"/>
    </contour>
    <contour>
      <point x="190.0" y="0.0" type="line"/>
      <point x="258.0" y="0.0" type="line"/>
      <point x="258.0" y="961.0" type="line" smooth="yes"/>
      <point x="258.0" y="1286.0"/>
      <point x="390.0" y="1432.0"/>
      <point x="695.0" y="1432.0" type="curve" smooth="yes"/>
      <point x="774.0" y="1432.0"/>
      <point x="841.0" y="1422.0"/>
      <point x="899.0" y="1402.0" type="curve"/>
      <point x="970.0" y="1442.0" type="line"/>
      <point x="898.0" y="1480.0"/>
      <point x="806.0" y="1498.0"/>
      <point x="695.0" y="1498.0" type="curve" smooth="yes"/>
      <point x="348.0" y="1498.0"/>
      <point x="190.0" y="1330.0"/>
      <point x="190.0" y="951.0" type="curve" smooth="yes"/>
    </contour>
  </outline>
</glyph>
<glyph name="ohorntilde" format="2">
  <advance width="1058.0"/>
  <unicode hex="1EE1"/>
  <outline>
    <contour>
      <point x="529.0" y="-18.0" type="curve" smooth="yes"/>
      <point x="781.0" y="-18.0"/>
      <point x="950.0" y="143.0"/>
      <point x="950.0" y="540.0" type="curve" smooth="yes"/>
      <point x="950.0" y="801.0"/>
      <point x="881.0" y="966.0"/>
      <point x="738.0" y="1048.0" type="curve"/>
      <point x="711.0" y="1020.0" type="line"/>
      <point x="870.0" y="1020.0"/>
      <point x="970.0" y="1104.0"/>
      <point x="970.0" y="1252.0" type="curve" smooth="yes"/>
      <point x="970.0" y="1312.0"/>
      <point x="962.0" y="1350.0"/>
      <point x="945.0" y="1396.0" type="curve"/>
      <point x="879.0" y="1396.0" type="line"/>
      <point x="894.0" y="1350.0"/>
      <point x="904.0" y="1310.0"/>
      <point x="904.0" y="1254.0" type="curve" smooth="yes"/>
      <point x="904.0" y="1138.0"/>
      <point x="826.0" y="1087.0"/>
      <point x="705.0" y="1087.0" type="curve" smooth="yes"/>
      <point x="660.0" y="1087.0"/>
      <point x="599.0" y="1096.0"/>
      <point x="529.0" y="1096.0" type="curve" smooth="yes"/>
      <point x="277.0" y="1096.0"/>
      <point x="108.0" y="937.0"/>
      <point x="108.0" y="540.0" type="curve" smooth="yes"/>
      <point x="108.0" y="139.0"/>
      <point x="277.0" y="-18.0"/>
    </contour>
    <contour>
      <point x="529.0" y="48.0" type="curve" smooth="yes"/>
      <point x="317.0" y="48.0"/>
      <point x="180.0" y="172.0"/>
      <point x="180.0" y="543.0" type="curve" smooth="yes"/>
      <point x="180.0" y="908.0"/>
      <point x="317.0" y="1030.0"/>
      <point x="529.0" y="1030.0" type="curve" smooth="yes"/>
      <point x="741.0" y="1030.0"/>
      <point x="878.0" y="908.0"/>
      <point x="878.0" y="537.0" type="curve" smooth="yes"/>
      <point x="878.0" y="172.0"/>
      <point x="741.0" y="48.0"/>
    </contour>
    <contour>
      <point x="660.0" y="1380.0" type="curve" smooth="yes"/>
      <point x="723.0" y="1380.0"/>
      <point x="774.0" y="1402.0"/>
      <point x="809.0" y="1441.0" type="curve"/>
      <point x="809.0" y="1508.0" type="line"/>
      <point x="766.0" y="1460.0"/>
      <point x="720.0" y="1437.0"/>
      <point x="660.0" y="1437.0" type="curve" smooth="yes"/>
      <point x="578.0" y="1437.0"/>
      <point x="494.0" y="1513.0"/>
      <point x="392.0" y="1513.0" type="curve" smooth="yes"/>
      <point x="329.0" y="1513.0"/>
      <point x="278.0" y="1491.0"/>
      <point x="243.0" y="1452.0" type="curve"/>
      <point x="243.0" y="1385.0" type="line"/>
      <point x="286.0" y="1433.0"/>
      <point x="332.0" y="1456.0"/>
      <point x="392.0" y="1456.0" type="curve" smooth="yes"/>
      <point x="474.0" y="1456.0"/>
      <point x="558.0" y="1380.0"/>
    </contour>
  </outline>
</glyph>
<glyph name="uhorntilde" format="2">
  <advance width="1097.0"/>
  <unicode hex="1EEF"/>
  <outline>
    <contour>
      <point x="486.0" y="-18.0" type="curve" smooth="yes"/>
      <point x="614.0" y="-18.0"/>
      <point x="739.0" y="29.0"/>
      <point x="833.0" y="124.0" type="curve"/>
      <point x="841.0" y="124.0" type="line"/>
      <point x="847.0" y="0.0" type="line"/>
      <point x="907.0" y="0.0" type="line"/>
      <point x="907.0" y="1044.0" type="line"/>
      <point x="878.0" y="1013.0" type="line"/>
      <point x="1037.0" y="1013.0"/>
      <point x="1137.0" y="1098.0"/>
      <point x="1137.0" y="1245.0" type="curve" smooth="yes"/>
      <point x="1137.0" y="1305.0"/>
      <point x="1129.0" y="1343.0"/>
      <point x="1112.0" y="1389.0" type="curve"/>
      <point x="1046.0" y="1389.0" type="line"/>
      <point x="1061.0" y="1343.0"/>
      <point x="1071.0" y="1303.0"/>
      <point x="1071.0" y="1247.0" type="curve" smooth="yes"/>
      <point x="1071.0" y="1131.0"/>
      <point x="993.0" y="1080.0"/>
      <point x="872.0" y="1080.0" type="curve" smooth="yes"/>
      <point x="839.0" y="1080.0" type="line"/>
      <point x="839.0" y="225.0" type="line"/>
      <point x="746.0" y="97.0"/>
      <point x="602.0" y="48.0"/>
      <point x="488.0" y="48.0" type="curve" smooth="yes"/>
      <point x="332.0" y="48.0"/>
      <point x="224.0" y="121.0"/>
      <point x="224.0" y="338.0" type="curve" smooth="yes"/>
      <point x="224.0" y="1080.0" type="line"/>
      <point x="156.0" y="1080.0" type="line"/>
      <point x="156.0" y="339.0" type="line" smooth="yes"/>
      <point x="156.0" y="74.0"/>
      <point x="294.0" y="-18.0"/>
    </contour>
    <contour>
      <point x="666.0" y="1380.0" type="curve" smooth="yes"/>
      <point x="729.0" y="1380.0"/>
      <point x="780.0" y="1402.0"/>
      <point x="815.0" y="1441.0" type="curve"/>
      <point x="815.0" y="1508.0" type="line"/>
      <point x="772.0" y="1460.0"/>
      <point x="726.0" y="1437.0"/>
      <point x="666.0" y="1437.0" type="curve" smooth="yes"/>
      <point x="584.0" y="1437.0"/>
      <point x="500.0" y="1513.0"/>
      <point x="398.0" y="1513.0" type="curve" smooth="yes"/>
      <point x="335.0" y="1513.0"/>
      <point x="284.0" y="1491.0"/>
      <point x="249.0" y="1452.0" type="curve"/>
      <point x="249.0" y="1385.0" type="line"/>
      <point x="292.0" y="1433.0"/>
      <point x="338.0" y="1456.0"/>
      <point x="398.0" y="1456.0" type="curve" smooth="yes"/>
      <point x="480.0" y="1456.0"/>
      <point x="564.0" y="1380.0"/>
    </contour>
  </outline>
</glyph>
<glyph name="daggerdbl" format="2">
  <advance width="954.0"/>
  <unicode hex="2021"/>
  <outline>
    <contour>
      <point x="441.0" y="160.0" type="line"/>
      <point x="509.0" y="160.0" type="line"/>
      <point x="509.0" y="290.0" type="line"/>
      <point x="497.0" y="510.0" type="line"/>
      <point x="779.0" y="500.0" type="line"/>
      <point x="869.0" y="500.0" type="line"/>
      <point x="869.0" y="564.0" type="line"/>
      <point x="779.0" y="564.0" type="line"/>
      <point x="497.0" y="554.0" type="line"/>
      <point x="509.0" y="794.0" type="line"/>
      <point x="509.0" y="1002.0" type="line"/>
      <point x="497.0" y="1222.0" type="line"/>
      <point x="779.0" y="1212.0" type="line"/>
      <point x="869.0" y="1212.0" type="line"/>
      <point x="869.0" y="1276.0" type="line"/>
      <point x="779.0" y="1276.0" type="line"/>
      <point x="497.0" y="1266.0" type="line"/>
      <point x="509.0" y="1486.0" type="line"/>
      <point x="509.0" y="1616.0" type="line"/>
      <point x="441.0" y="1616.0" type="line"/>
      <point x="441.0" y="1486.0" type="line"/>
      <point x="453.0" y="1266.0" type="line"/>
      <point x="175.0" y="1276.0" type="line"/>
      <point x="85.0" y="1276.0" type="line"/>
      <point x="85.0" y="1212.0" type="line"/>
      <point x="175.0" y="1212.0" type="line"/>
      <point x="453.0" y="1222.0" type="line"/>
      <point x="441.0" y="1002.0" type="line"/>
      <point x="441.0" y="794.0" type="line"/>
      <point x="453.0" y="554.0" type="line"/>
      <point x="175.0" y="564.0" type="line"/>
      <point x="85.0" y="564.0" type="line"/>
      <point x="85.0" y="500.0" type="line"/>
      <point x="175.0" y="500.0" type="line"/>
      <point x="453.0" y="510.0" type="line"/>
      <point x="441.0" y="290.0" type="line"/>
    </contour>
  </outline>
</glyph>
<glyph name="bullet" format="2">
  <advance width="682.0"/>
  <unicode hex="2022"/>
  <outline>
    <contour>
      <point x="341.0" y="360.0" type="curve" smooth="yes"/>
      <point x="453.0" y="360.0"/>
      <point x="541.0" y="444.0"/>
      <point x="541.0" y="560.0" type="curve" smooth="yes"/>
      <point x="541.0" y="676.0"/>
      <point x="453.0" y="760.0"/>
      <point x="341.0" y="760.0" type="curve" smooth="yes"/>
      <point x="229.0" y="760.0"/>
      <point x="141.0" y="676.0"/>
      <point x="141.0" y="560.0" type="curve" smooth="yes"/>
      <point x="141.0" y="444.0"/>
      <point x="229.0" y="360.0"/>
    </contour>
  </outline>
</glyph>
<glyph name="perthousand" format="2">
  <advance width="2425.0"/>
  <unicode hex="2030"/>
  <outline>
    <contour>
      <point x="2004.0" y="-18.0" type="curve" smooth="yes"/>
      <point x="2183.0" y="-18.0"/>
      <point x="2309.0" y="104.0"/>
      <point x="2309.0" y="442.0" type="curve" smooth="yes"/>
      <point x="2309.0" y="780.0"/>
      <point x="2184.0" y="902.0"/>
      <point x="2004.0" y="902.0" type="curve" smooth="yes"/>
      <point x="1824.0" y="902.0"/>
      <point x="1699.0" y="780.0"/>
      <point x="1699.0" y="442.0" type="curve" smooth="yes"/>
      <point x="1699.0" y="104.0"/>
      <point x="1825.0" y="-18.0"/>
    </contour>
    <contour>
      <point x="2004.0" y="45.0" type="curve" smooth="yes"/>
      <point x="1863.0" y="45.0"/>
      <point x="1766.0" y="145.0"/>
      <point x="1766.0" y="444.0" type="curve" smooth="yes"/>
      <point x="1766.0" y="741.0"/>
      <point x="1863.0" y="839.0"/>
      <point x="2004.0" y="839.0" type="curve" smooth="yes"/>
      <point x="2145.0" y="839.0"/>
      <point x="2242.0" y="741.0"/>
      <point x="2242.0" y="440.0" type="curve" smooth="yes"/>
      <point x="2242.0" y="141.0"/>
      <point x="2145.0" y="45.0"/>
    </contour>
    <component base="percent"/>
  </outline>
</glyph>
<glyph name="fraction" format="2">
  <advance width="223.0"/>
  <unicode hex="2044"/>
  <outline>
    <contour>
      <point x="-315.0" y="-136.0" type="line"/>
      <point x="-249.0" y="-136.0" type="line"/>
      <point x="538.0" y="1616.0" type="line"/>
      <point x="472.0" y="1616.0" type="line"/>
    </contour>
  </outline>
</glyph>
<glyph name="colonsign" format="2">
  <advance width="1101.0"/>
  <unicode hex="20A1"/>
  <outline>
    <contour>
      <point x="729.0" y="-18.0" type="curve" smooth="yes"/>
      <point x="846.0" y="-18.0"/>
      <point x="957.0" y="0.0"/>
      <point x="1065.0" y="39.0" type="curve"/>
      <point x="1065.0" y="107.0" type="line"/>
      <point x="934.0" y="62.0"/>
      <point x="835.0" y="48.0"/>
      <point x="729.0" y="48.0" type="curve" smooth="yes"/>
      <point x="389.0" y="48.0"/>
      <point x="190.0" y="225.0"/>
      <point x="190.0" y="742.0" type="curve" smooth="yes"/>
      <point x="190.0" y="1255.0"/>
      <point x="394.0" y="1432.0"/>
      <point x="740.0" y="1432.0" type="curve" smooth="yes"/>
      <point x="844.0" y="1432.0"/>
      <point x="950.0" y="1419.0"/>
      <point x="1065.0" y="1383.0" type="curve"/>
      <point x="1065.0" y="1451.0" type="line"/>
      <point x="957.0" y="1483.0"/>
      <point x="855.0" y="1498.0"/>
      <point x="743.0" y="1498.0" type="curve" smooth="yes"/>
      <point x="352.0" y="1498.0"/>
      <point x="118.0" y="1286.0"/>
      <point x="118.0" y="738.0" type="curve" smooth="yes"/>
      <point x="118.0" y="192.0"/>
      <point x="346.0" y="-18.0"/>
    </contour>
    <contour>
      <point x="318.0" y="158.0" type="line"/>
      <point x="272.0" y="220.0" type="line"/>
      <point x="128.0" y="-240.0" type="line"/>
      <point x="193.0" y="-240.0" type="line"/>
    </contour>
    <contour>
      <point x="539.0" y="35.0" type="line"/>
      <point x="480.0" y="54.0" type="line"/>
      <point x="388.0" y="-240.0" type="line"/>
      <point x="453.0" y="-240.0" type="line"/>
    </contour>
    <contour>
      <point x="656.0" y="1452.0" type="line"/>
      <point x="721.0" y="1452.0" type="line"/>
      <point x="805.0" y="1720.0" type="line"/>
      <point x="740.0" y="1720.0" type="line"/>
    </contour>
    <contour>
      <point x="916.0" y="1452.0" type="line"/>
      <point x="981.0" y="1452.0" type="line"/>
      <point x="1065.0" y="1720.0" type="line"/>
      <point x="1000.0" y="1720.0" type="line"/>
    </contour>
  </outline>
</glyph>
<glyph name="won" format="2">
  <advance width="2153.0"/>
  <unicode hex="20A9"/>
  <outline>
    <contour>
      <point x="568.0" y="0.0" type="line"/>
      <point x="662.0" y="0.0" type="line"/>
      <point x="1085.0" y="1432.0" type="line"/>
      <point x="1068.0" y="1432.0" type="line"/>
      <point x="1491.0" y="0.0" type="line"/>
      <point x="1585.0" y="0.0" type="line"/>
      <point x="2017.0" y="1480.0" type="line"/>
      <point x="1948.0" y="1480.0" type="line"/>
      <point x="1531.0" y="40.0" type="line"/>
      <point x="1547.0" y="40.0" type="line"/>
      <point x="1124.0" y="1480.0" type="line"/>
      <point x="1030.0" y="1480.0" type="line"/>
      <point x="608.0" y="40.0" type="line"/>
      <point x="624.0" y="40.0" type="line"/>
      <point x="208.0" y="1480.0" type="line"/>
      <point x="135.0" y="1480.0" type="line"/>
    </contour>
    <contour>
      <point x="80.0" y="546.0" type="line"/>
      <point x="438.0" y="546.0" type="line"/>
      <point x="419.0" y="610.0" type="line"/>
      <point x="80.0" y="610.0" type="line"/>
    </contour>
    <contour>
      <point x="80.0" y="890.0" type="line"/>
      <point x="336.0" y="890.0" type="line"/>
      <point x="317.0" y="954.0" type="line"/>
      <point x="80.0" y="954.0" type="line"/>
    </contour>
    <contour>
      <point x="1709.0" y="546.0" type="line"/>
      <point x="2073.0" y="546.0" type="line"/>
      <point x="2073.0" y="610.0" type="line"/>
      <point x="1727.0" y="610.0" type="line"/>
    </contour>
    <contour>
      <point x="1805.0" y="890.0" type="line"/>
      <point x="2073.0" y="890.0" type="line"/>
      <point x="2073.0" y="954.0" type="line"/>
      <point x="1822.0" y="954.0" type="line"/>
    </contour>
  </outline>
</glyph>
<glyph name="dong" format="2">
  <advance width="1071.0"/>
  <unicode hex="20AB"/>
  <outline>
    <contour>
      <point x="523.0" y="-18.0" type="curve" smooth="yes"/>
      <point x="653.0" y="-18.0"/>
      <point x="761.0" y="39.0"/>
      <point x="827.0" y="119.0" type="curve"/>
      <point x="835.0" y="119.0" type="line"/>
      <point x="841.0" y="0.0" type="line"/>
      <point x="901.0" y="0.0" type="line"/>
      <point x="901.0" y="1616.0" type="line"/>
      <point x="833.0" y="1616.0" type="line"/>
      <point x="833.0" y="1079.0" type="line"/>
      <point x="773.0" y="1088.0"/>
      <point x="698.0" y="1096.0"/>
      <point x="627.0" y="1096.0" type="curve" smooth="yes"/>
      <point x="288.0" y="1096.0"/>
      <point x="108.0" y="915.0"/>
      <point x="108.0" y="518.0" type="curve" smooth="yes"/>
      <point x="108.0" y="116.0"/>
      <point x="293.0" y="-18.0"/>
    </contour>
    <contour>
      <point x="153.0" y="-240.0" type="line"/>
      <point x="901.0" y="-240.0" type="line"/>
      <point x="901.0" y="-180.0" type="line"/>
      <point x="153.0" y="-180.0" type="line"/>
    </contour>
    <contour>
      <point x="526.0" y="48.0" type="curve" smooth="yes"/>
      <point x="329.0" y="48.0"/>
      <point x="180.0" y="153.0"/>
      <point x="180.0" y="526.0" type="curve" smooth="yes"/>
      <point x="180.0" y="882.0"/>
      <point x="331.0" y="1030.0"/>
      <point x="624.0" y="1030.0" type="curve" smooth="yes"/>
      <point x="696.0" y="1030.0"/>
      <point x="777.0" y="1021.0"/>
      <point x="833.0" y="1007.0" type="curve"/>
      <point x="833.0" y="217.0" type="line"/>
      <point x="759.0" y="99.0"/>
      <point x="641.0" y="48.0"/>
    </contour>
    <contour>
      <point x="469.0" y="1326.0" type="line"/>
      <point x="1060.0" y="1326.0" type="line"/>
      <point x="1060.0" y="1386.0" type="line"/>
      <point x="469.0" y="1386.0" type="line"/>
    </contour>
  </outline>
</glyph>
<glyph name="euro" format="2">
  <advance width="1237.0"/>
  <unicode hex="20AC"/>
  <outline>
    <contour>
      <point x="865.0" y="-18.0" type="curve" smooth="yes"/>
      <point x="991.0" y="-18.0"/>
      <point x="1100.0" y="3.0"/>
      <point x="1201.0" y="40.0" type="curve"/>
      <point x="1201.0" y="108.0" type="line"/>
      <point x="1076.0" y="64.0"/>
      <point x="979.0" y="48.0"/>
      <point x="865.0" y="48.0" type="curve" smooth="yes"/>
      <point x="539.0" y="48.0"/>
      <point x="326.0" y="209.0"/>
      <point x="326.0" y="742.0" type="curve" smooth="yes"/>
      <point x="326.0" y="1254.0"/>
      <point x="529.0" y="1432.0"/>
      <point x="876.0" y="1432.0" type="curve" smooth="yes"/>
      <point x="986.0" y="1432.0"/>
      <point x="1091.0" y="1418.0"/>
      <point x="1201.0" y="1383.0" type="curve"/>
      <point x="1201.0" y="1451.0" type="line"/>
      <point x="1097.0" y="1482.0"/>
      <point x="995.0" y="1498.0"/>
      <point x="881.0" y="1498.0" type="curve" smooth="yes"/>
      <point x="494.0" y="1498.0"/>
      <point x="254.0" y="1288.0"/>
      <point x="254.0" y="738.0" type="curve" smooth="yes"/>
      <point x="254.0" y="170.0"/>
      <point x="504.0" y="-18.0"/>
    </contour>
    <contour>
      <point x="80.0" y="546.0" type="line"/>
      <point x="1031.0" y="546.0" type="line"/>
      <point x="1031.0" y="610.0" type="line"/>
      <point x="80.0" y="610.0" type="line"/>
    </contour>
    <contour>
      <point x="80.0" y="890.0" type="line"/>
      <point x="1031.0" y="890.0" type="line"/>
      <point x="1031.0" y="954.0" type="line"/>
      <point x="80.0" y="954.0" type="line"/>
    </contour>
  </outline>
</glyph>
<glyph name="kip" format="2">
  <advance width="1317.0"/>
  <unicode hex="20AD"/>
  <outline>
    <contour>
      <point x="1232.0" y="0.0" type="line"/>
      <point x="1317.0" y="0.0" type="line"/>
      <point x="685.0" y="774.0" type="line"/>
      <point x="685.0" y="750.0" type="line"/>
      <point x="1275.0" y="1480.0" type="line"/>
      <point x="1192.0" y="1480.0" type="line"/>
      <point x="612.0" y="758.0" type="line"/>
    </contour>
    <contour>
      <point x="314.0" y="0.0" type="line"/>
      <point x="382.0" y="0.0" type="line"/>
      <point x="382.0" y="1480.0" type="line"/>
      <point x="314.0" y="1480.0" type="line"/>
    </contour>
    <contour>
      <point x="80.0" y="728.0" type="line"/>
      <point x="1185.0" y="728.0" type="line"/>
      <point x="1185.0" y="792.0" type="line"/>
      <point x="80.0" y="792.0" type="line"/>
    </contour>
  </outline>
</glyph>
<glyph name="peso" format="2">
  <advance width="1409.0"/>
  <unicode hex="20B1"/>
  <outline>
    <contour>
      <point x="314.0" y="0.0" type="line"/>
      <point x="382.0" y="0.0" type="line"/>
      <point x="382.0" y="528.0" type="line"/>
      <point x="461.0" y="521.0"/>
      <point x="517.0" y="518.0"/>
      <point x="589.0" y="518.0" type="curve" smooth="yes"/>
      <point x="995.0" y="518.0"/>
      <point x="1175.0" y="691.0"/>
      <point x="1175.0" y="1007.0" type="curve" smooth="yes"/>
      <point x="1175.0" y="1343.0"/>
      <point x="983.0" y="1494.0"/>
      <point x="637.0" y="1494.0" type="curve" smooth="yes"/>
      <point x="532.0" y="1494.0"/>
      <point x="432.0" y="1482.0"/>
      <point x="314.0" y="1461.0" type="curve"/>
    </contour>
    <contour>
      <point x="80.0" y="802.0" type="line"/>
      <point x="346.0" y="802.0" type="line"/>
      <point x="346.0" y="866.0" type="line"/>
      <point x="80.0" y="866.0" type="line"/>
    </contour>
    <contour>
      <point x="80.0" y="1146.0" type="line"/>
      <point x="346.0" y="1146.0" type="line"/>
      <point x="346.0" y="1210.0" type="line"/>
      <point x="80.0" y="1210.0" type="line"/>
    </contour>
    <contour>
      <point x="592.0" y="584.0" type="curve" smooth="yes"/>
      <point x="506.0" y="584.0"/>
      <point x="455.0" y="588.0"/>
      <point x="382.0" y="597.0" type="curve"/>
      <point x="382.0" y="1404.0" type="line"/>
      <point x="470.0" y="1420.0"/>
      <point x="552.0" y="1428.0"/>
      <point x="637.0" y="1428.0" type="curve" smooth="yes"/>
      <point x="945.0" y="1428.0"/>
      <point x="1103.0" y="1300.0"/>
      <point x="1103.0" y="1004.0" type="curve" smooth="yes"/>
      <point x="1103.0" y="724.0"/>
      <point x="949.0" y="584.0"/>
    </contour>
    <contour>
      <point x="1115.0" y="802.0" type="line"/>
      <point x="1369.0" y="802.0" type="line"/>
      <point x="1369.0" y="866.0" type="line"/>
      <point x="1135.0" y="866.0" type="line"/>
    </contour>
    <contour>
      <point x="1135.0" y="1146.0" type="line"/>
      <point x="1369.0" y="1146.0" type="line"/>
      <point x="1369.0" y="1210.0" type="line"/>
      <point x="1115.0" y="1210.0" type="line"/>
    </contour>
  </outline>
</glyph>
<glyph name="guarani" format="2">
  <advance width="1301.0"/>
  <unicode hex="20B2"/>
  <outline>
    <contour>
      <point x="827.0" y="-10.0" type="curve" smooth="yes"/>
      <point x="928.0" y="-10.0"/>
      <point x="1012.0" y="-4.0"/>
      <point x="1136.0" y="17.0" type="curve"/>
      <point x="1136.0" y="720.0" type="line"/>
      <point x="1068.0" y="720.0" type="line"/>
      <point x="1068.0" y="45.0" type="line"/>
      <point x="1090.0" y="80.0" type="line"/>
      <point x="1013.0" y="64.0"/>
      <point x="930.0" y="56.0"/>
      <point x="827.0" y="56.0" type="curve" smooth="yes"/>
      <point x="406.0" y="56.0"/>
      <point x="191.0" y="248.0"/>
      <point x="190.0" y="740.0" type="curve" smooth="yes"/>
      <point x="189.0" y="1255.0"/>
      <point x="428.0" y="1432.0"/>
      <point x="776.0" y="1432.0" type="curve" smooth="yes"/>
      <point x="876.0" y="1432.0"/>
      <point x="978.0" y="1421.0"/>
      <point x="1107.0" y="1383.0" type="curve"/>
      <point x="1107.0" y="1451.0" type="line"/>
      <point x="995.0" y="1482.0"/>
      <point x="888.0" y="1498.0"/>
      <point x="777.0" y="1498.0" type="curve" smooth="yes"/>
      <point x="390.0" y="1498.0"/>
      <point x="117.0" y="1291.0"/>
      <point x="118.0" y="738.0" type="curve" smooth="yes"/>
      <point x="119.0" y="209.0"/>
      <point x="365.0" y="-10.0"/>
    </contour>
    <contour>
      <point x="698.0" y="-240.0" type="line"/>
      <point x="762.0" y="-240.0" type="line"/>
      <point x="762.0" y="0.0" type="line"/>
      <point x="698.0" y="0.0" type="line"/>
    </contour>
    <contour>
      <point x="698.0" y="1480.0" type="line"/>
      <point x="762.0" y="1480.0" type="line"/>
      <point x="762.0" y="1720.0" type="line"/>
      <point x="698.0" y="1720.0" type="line"/>
    </contour>
  </outline>
</glyph>
<glyph name="rupeeIndian" format="2">
  <advance width="1154.0"/>
  <unicode hex="20B9"/>
  <outline>
    <contour>
      <point x="313.0" y="651.0" type="curve" smooth="yes"/>
      <point x="714.0" y="651.0"/>
      <point x="911.0" y="788.0"/>
      <point x="909.0" y="1072.0" type="curve" smooth="yes"/>
      <point x="907.0" y="1358.0"/>
      <point x="736.0" y="1460.0"/>
      <point x="364.0" y="1460.0" type="curve"/>
      <point x="363.0" y="1416.0" type="line"/>
      <point x="702.0" y="1416.0"/>
      <point x="841.0" y="1321.0"/>
      <point x="841.0" y="1069.0" type="curve" smooth="yes"/>
      <point x="841.0" y="828.0"/>
      <point x="687.0" y="716.0"/>
      <point x="311.0" y="716.0" type="curve" smooth="yes"/>
      <point x="217.0" y="716.0"/>
      <point x="168.0" y="719.0"/>
      <point x="80.0" y="728.0" type="curve"/>
      <point x="80.0" y="661.0" type="line"/>
      <point x="154.0" y="655.0"/>
      <point x="227.0" y="651.0"/>
    </contour>
    <contour>
      <point x="934.0" y="0.0" type="line"/>
      <point x="1019.0" y="0.0" type="line"/>
      <point x="470.0" y="703.0" type="line"/>
      <point x="385.0" y="703.0" type="line"/>
    </contour>
    <contour>
      <point x="80.0" y="1062.0" type="line"/>
      <point x="1094.0" y="1062.0" type="line"/>
      <point x="1094.0" y="1126.0" type="line"/>
      <point x="80.0" y="1126.0" type="line"/>
    </contour>
    <contour>
      <point x="80.0" y="1416.0" type="line"/>
      <point x="1094.0" y="1416.0" type="line"/>
      <point x="1094.0" y="1480.0" type="line"/>
      <point x="80.0" y="1480.0" type="line"/>
    </contour>
  </outline>
</glyph>
<glyph name="liraTurkish" format="2">
  <advance width="1144.0"/>
  <unicode hex="20BA"/>
  <outline>
    <contour>
      <point x="774.0" y="-18.0" type="curve" smooth="yes"/>
      <point x="880.0" y="-18.0"/>
      <point x="1013.0" y="-3.0"/>
      <point x="1104.0" y="27.0" type="curve"/>
      <point x="1104.0" y="95.0" type="line"/>
      <point x="999.0" y="62.0"/>
      <point x="878.0" y="48.0"/>
      <point x="774.0" y="48.0" type="curve" smooth="yes"/>
      <point x="497.0" y="48.0"/>
      <point x="382.0" y="135.0"/>
      <point x="382.0" y="336.0" type="curve" smooth="yes"/>
      <point x="382.0" y="1480.0" type="line"/>
      <point x="314.0" y="1480.0" type="line"/>
      <point x="314.0" y="331.0" type="line" smooth="yes"/>
      <point x="314.0" y="103.0"/>
      <point x="454.0" y="-18.0"/>
    </contour>
    <contour>
      <point x="80.0" y="533.0" type="line"/>
      <point x="934.0" y="922.0" type="line"/>
      <point x="934.0" y="989.0" type="line"/>
      <point x="80.0" y="600.0" type="line"/>
    </contour>
    <contour>
      <point x="80.0" y="877.0" type="line"/>
      <point x="934.0" y="1266.0" type="line"/>
      <point x="934.0" y="1333.0" type="line"/>
      <point x="80.0" y="944.0" type="line"/>
    </contour>
  </outline>
</glyph>
<glyph name="manat" format="2">
  <advance width="1368.0"/>
  <unicode hex="20BC"/>
  <outline>
    <contour>
      <point x="169.0" y="0.0" type="curve"/>
      <point x="237.0" y="0.0" type="line"/>
      <point x="237.0" y="1133.0"/>
      <point x="332.0" y="1434.0"/>
      <point x="684.0" y="1434.0" type="curve" smooth="yes"/>
      <point x="1035.0" y="1434.0"/>
      <point x="1131.0" y="1131.0"/>
      <point x="1131.0" y="0.0" type="curve"/>
      <point x="1199.0" y="0.0" type="line"/>
      <point x="1199.0" y="1180.0"/>
      <point x="1089.0" y="1498.0"/>
      <point x="684.0" y="1498.0" type="curve" smooth="yes"/>
      <point x="279.0" y="1498.0"/>
      <point x="169.0" y="1180.0"/>
    </contour>
    <contour>
      <point x="652.0" y="550.0" type="line"/>
      <point x="716.0" y="550.0" type="line"/>
      <point x="716.0" y="1444.0" type="line"/>
      <point x="716.0" y="1490.0" type="line"/>
      <point x="716.0" y="1720.0" type="line"/>
      <point x="652.0" y="1720.0" type="line"/>
      <point x="652.0" y="1490.0" type="line"/>
      <point x="652.0" y="1444.0" type="line"/>
    </contour>
  </outline>
</glyph>
<glyph name="uni20BF" format="2">
  <advance width="1216.0"/>
  <unicode hex="20BF"/>
  <outline>
    <contour>
      <point x="525.0" y="-10.0" type="curve" smooth="yes"/>
      <point x="961.0" y="-10.0"/>
      <point x="1132.0" y="129.0"/>
      <point x="1132.0" y="395.0" type="curve" smooth="yes"/>
      <point x="1132.0" y="597.0"/>
      <point x="1024.0" y="744.0"/>
      <point x="766.0" y="770.0" type="curve"/>
      <point x="763.0" y="755.0" type="line"/>
      <point x="1005.0" y="789.0"/>
      <point x="1089.0" y="935.0"/>
      <point x="1089.0" y="1110.0" type="curve" smooth="yes"/>
      <point x="1089.0" y="1369.0"/>
      <point x="931.0" y="1494.0"/>
      <point x="557.0" y="1494.0" type="curve" smooth="yes"/>
      <point x="423.0" y="1494.0"/>
      <point x="308.0" y="1482.0"/>
      <point x="190.0" y="1461.0" type="curve"/>
      <point x="190.0" y="10.0" type="line"/>
      <point x="308.0" y="-4.0"/>
      <point x="403.0" y="-10.0"/>
    </contour>
    <contour>
      <point x="430.0" y="-240.0" type="line"/>
      <point x="492.0" y="-240.0" type="line"/>
      <point x="492.0" y="20.0" type="line"/>
      <point x="430.0" y="20.0" type="line"/>
    </contour>
    <contour>
      <point x="687.0" y="-240.0" type="line"/>
      <point x="749.0" y="-240.0" type="line"/>
      <point x="750.0" y="20.0" type="line"/>
      <point x="687.0" y="20.0" type="line"/>
    </contour>
    <contour>
      <point x="527.0" y="56.0" type="curve" smooth="yes"/>
      <point x="417.0" y="56.0"/>
      <point x="331.0" y="61.0"/>
      <point x="258.0" y="72.0" type="curve"/>
      <point x="258.0" y="1404.0" type="line"/>
      <point x="346.0" y="1420.0"/>
      <point x="440.0" y="1428.0"/>
      <point x="556.0" y="1428.0" type="curve" smooth="yes"/>
      <point x="889.0" y="1428.0"/>
      <point x="1019.0" y="1337.0"/>
      <point x="1019.0" y="1110.0" type="curve" smooth="yes"/>
      <point x="1019.0" y="899.0"/>
      <point x="898.0" y="794.0"/>
      <point x="593.0" y="794.0" type="curve" smooth="yes"/>
      <point x="242.0" y="794.0" type="line"/>
      <point x="242.0" y="728.0" type="line"/>
      <point x="620.0" y="728.0" type="line" smooth="yes"/>
      <point x="921.0" y="728.0"/>
      <point x="1061.0" y="621.0"/>
      <point x="1061.0" y="395.0" type="curve" smooth="yes"/>
      <point x="1061.0" y="167.0"/>
      <point x="928.0" y="56.0"/>
    </contour>
    <contour>
      <point x="430.0" y="1460.0" type="line"/>
      <point x="492.0" y="1460.0" type="line"/>
      <point x="492.0" y="1720.0" type="line"/>
      <point x="430.0" y="1720.0" type="line"/>
    </contour>
    <contour>
      <point x="687.0" y="1460.0" type="line"/>
      <point x="750.0" y="1460.0" type="line"/>
      <point x="749.0" y="1720.0" type="line"/>
      <point x="687.0" y="1720.0" type="line"/>
    </contour>
  </outline>
</glyph>
<glyph name="trademark" format="2">
  <advance width="1931.0"/>
  <unicode hex="2122"/>
  <outline>
    <contour>
      <point x="352.0" y="480.0" type="line"/>
      <point x="416.0" y="480.0" type="line"/>
      <point x="416.0" y="1417.0" type="line"/>
      <point x="754.0" y="1417.0" type="line"/>
      <point x="754.0" y="1480.0" type="line"/>
      <point x="14.0" y="1480.0" type="line"/>
      <point x="14.0" y="1417.0" type="line"/>
      <point x="352.0" y="1417.0" type="line"/>
    </contour>
    <contour>
      <point x="854.0" y="480.0" type="line"/>
      <point x="916.0" y="480.0" type="line"/>
      <point x="916.0" y="1419.0" type="line"/>
      <point x="887.0" y="1419.0" type="line"/>
      <point x="1270.0" y="616.0" type="line"/>
      <point x="1335.0" y="616.0" type="line"/>
      <point x="1716.0" y="1419.0" type="line"/>
      <point x="1689.0" y="1419.0" type="line"/>
      <point x="1689.0" y="480.0" type="line"/>
      <point x="1751.0" y="480.0" type="line"/>
      <point x="1751.0" y="1480.0" type="line"/>
      <point x="1678.0" y="1480.0" type="line"/>
      <point x="1293.0" y="662.0" type="line"/>
      <point x="1315.0" y="662.0" type="line"/>
      <point x="928.0" y="1480.0" type="line"/>
      <point x="854.0" y="1480.0" type="line"/>
    </contour>
  </outline>
</glyph>
<glyph name="upArrow" format="2">
  <advance width="1346.0"/>
  <unicode hex="2191"/>
  <outline>
    <contour>
      <point x="639.0" y="200.0" type="line"/>
      <point x="707.0" y="200.0" type="line"/>
      <point x="707.0" y="1200.0" type="line"/>
      <point x="1135.0" y="772.0" type="line"/>
      <point x="1179.0" y="816.0" type="line"/>
      <point x="673.0" y="1322.0" type="line"/>
      <point x="167.0" y="816.0" type="line"/>
      <point x="211.0" y="772.0" type="line"/>
      <point x="639.0" y="1200.0" type="line"/>
    </contour>
  </outline>
</glyph>
<glyph name="rightArrow" format="2">
  <advance width="1456.0"/>
  <unicode hex="2192"/>
  <outline>
    <contour>
      <point x="783.0" y="254.0" type="line"/>
      <point x="1289.0" y="760.0" type="line"/>
      <point x="783.0" y="1266.0" type="line"/>
      <point x="739.0" y="1222.0" type="line"/>
      <point x="1167.0" y="794.0" type="line"/>
      <point x="167.0" y="794.0" type="line"/>
      <point x="167.0" y="726.0" type="line"/>
      <point x="1167.0" y="726.0" type="line"/>
      <point x="739.0" y="298.0" type="line"/>
    </contour>
  </outline>
</glyph>
<glyph name="summation" format="2">
  <advance width="1103.0"/>
  <unicode hex="2211"/>
  <outline>
    <contour>
      <point x="63.0" y="-440.0" type="line"/>
      <point x="936.0" y="-440.0" type="line"/>
      <point x="936.0" y="-376.0" type="line"/>
      <point x="155.0" y="-376.0" type="line"/>
      <point x="705.0" y="520.0" type="line"/>
      <point x="155.0" y="1416.0" type="line"/>
      <point x="936.0" y="1416.0" type="line"/>
      <point x="936.0" y="1480.0" type="line"/>
      <point x="63.0" y="1480.0" type="line"/>
      <point x="63.0" y="1440.0" type="line"/>
      <point x="644.0" y="493.0" type="line"/>
      <point x="644.0" y="547.0" type="line"/>
      <point x="63.0" y="-400.0" type="line"/>
    </contour>
  </outline>
</glyph>
<glyph name="divisionslash" format="2">
  <advance width="517.0"/>
  <unicode hex="2215"/>
  <outline>
    <contour>
      <point x="58.0" y="0.0" type="line"/>
      <point x="127.0" y="0.0" type="line"/>
      <point x="484.0" y="1480.0" type="line"/>
      <point x="415.0" y="1480.0" type="line"/>
    </contour>
  </outline>
</glyph>
<glyph name="bulletoperator" format="2">
  <advance width="406.0"/>
  <unicode hex="2219"/>
  <anchor x="203.0" y="760.0" name="_periodcentered"/>
  <outline>
    <contour>
      <point x="203.0" y="696.0" type="curve" smooth="yes"/>
      <point x="239.0" y="696.0"/>
      <point x="265.0" y="720.0"/>
      <point x="265.0" y="758.0" type="curve" smooth="yes"/>
      <point x="265.0" y="796.0"/>
      <point x="239.0" y="822.0"/>
      <point x="203.0" y="822.0" type="curve" smooth="yes"/>
      <point x="167.0" y="822.0"/>
      <point x="141.0" y="796.0"/>
      <point x="141.0" y="758.0" type="curve" smooth="yes"/>
      <point x="141.0" y="720.0"/>
      <point x="167.0" y="696.0"/>
    </contour>
  </outline>
</glyph>
<glyph name="radical" format="2">
  <advance width="1354.0"/>
  <unicode hex="221A"/>
  <outline>
    <contour>
      <point x="737.0" y="0.0" type="line"/>
      <point x="831.0" y="0.0" type="line"/>
      <point x="1337.0" y="1480.0" type="line"/>
      <point x="1265.0" y="1480.0" type="line"/>
      <point x="777.0" y="40.0" type="line"/>
      <point x="793.0" y="40.0" type="line"/>
      <point x="441.0" y="1080.0" type="line"/>
      <point x="127.0" y="1080.0" type="line"/>
      <point x="127.0" y="1016.0" type="line"/>
      <point x="389.0" y="1016.0" type="line"/>
    </contour>
  </outline>
</glyph>
<glyph name="integral" format="2">
  <advance width="554.0"/>
  <unicode hex="222B"/>
  <outline>
    <contour>
      <point x="136.0" y="-460.0" type="curve" smooth="yes"/>
      <point x="302.0" y="-460.0"/>
      <point x="390.0" y="-362.0"/>
      <point x="374.0" y="-176.0" type="curve" smooth="yes"/>
      <point x="248.0" y="1216.0" type="line" smooth="yes"/>
      <point x="234.0" y="1368.0"/>
      <point x="292.0" y="1436.0"/>
      <point x="422.0" y="1436.0" type="curve" smooth="yes"/>
      <point x="462.0" y="1436.0"/>
      <point x="492.0" y="1432.0"/>
      <point x="534.0" y="1420.0" type="curve"/>
      <point x="534.0" y="1484.0" type="line"/>
      <point x="506.0" y="1494.0"/>
      <point x="464.0" y="1500.0"/>
      <point x="418.0" y="1500.0" type="curve" smooth="yes"/>
      <point x="252.0" y="1500.0"/>
      <point x="164.0" y="1402.0"/>
      <point x="180.0" y="1216.0" type="curve" smooth="yes"/>
      <point x="306.0" y="-176.0" type="line" smooth="yes"/>
      <point x="320.0" y="-328.0"/>
      <point x="262.0" y="-396.0"/>
      <point x="132.0" y="-396.0" type="curve" smooth="yes"/>
      <point x="92.0" y="-396.0"/>
      <point x="62.0" y="-392.0"/>
      <point x="20.0" y="-380.0" type="curve"/>
      <point x="20.0" y="-444.0" type="line"/>
      <point x="48.0" y="-454.0"/>
      <point x="90.0" y="-460.0"/>
    </contour>
  </outline>
</glyph>
<glyph name="approxequal" format="2">
  <advance width="1062.0"/>
  <unicode hex="2248"/>
  <outline>
    <contour>
      <point x="703.0" y="852.0" type="curve" smooth="yes"/>
      <point x="781.0" y="852.0"/>
      <point x="851.0" y="884.0"/>
      <point x="895.0" y="942.0" type="curve"/>
      <point x="895.0" y="1022.0" type="line"/>
      <point x="841.0" y="950.0"/>
      <point x="777.0" y="914.0"/>
      <point x="701.0" y="914.0" type="curve" smooth="yes"/>
      <point x="597.0" y="914.0"/>
      <point x="491.0" y="1030.0"/>
      <point x="359.0" y="1030.0" type="curve" smooth="yes"/>
      <point x="281.0" y="1030.0"/>
      <point x="211.0" y="998.0"/>
      <point x="167.0" y="940.0" type="curve"/>
      <point x="167.0" y="860.0" type="line"/>
      <point x="221.0" y="932.0"/>
      <point x="285.0" y="968.0"/>
      <point x="361.0" y="968.0" type="curve" smooth="yes"/>
      <point x="465.0" y="968.0"/>
      <point x="571.0" y="852.0"/>
    </contour>
    <contour>
      <point x="703.0" y="490.0" type="curve" smooth="yes"/>
      <point x="781.0" y="490.0"/>
      <point x="851.0" y="522.0"/>
      <point x="895.0" y="580.0" type="curve"/>
      <point x="895.0" y="660.0" type="line"/>
      <point x="841.0" y="588.0"/>
      <point x="777.0" y="552.0"/>
      <point x="701.0" y="552.0" type="curve" smooth="yes"/>
      <point x="597.0" y="552.0"/>
      <point x="491.0" y="668.0"/>
      <point x="359.0" y="668.0" type="curve" smooth="yes"/>
      <point x="281.0" y="668.0"/>
      <point x="211.0" y="636.0"/>
      <point x="167.0" y="578.0" type="curve"/>
      <point x="167.0" y="498.0" type="line"/>
      <point x="221.0" y="570.0"/>
      <point x="285.0" y="606.0"/>
      <point x="361.0" y="606.0" type="curve" smooth="yes"/>
      <point x="465.0" y="606.0"/>
      <point x="571.0" y="490.0"/>
    </contour>
  </outline>
</glyph>
<glyph name="lessequal" format="2">
  <advance width="1062.0"/>
  <unicode hex="2264"/>
  <outline>
    <contour>
      <point x="895.0" y="406.0" type="line"/>
      <point x="895.0" y="478.0" type="line"/>
      <point x="231.0" y="772.0" type="line"/>
      <point x="231.0" y="748.0" type="line"/>
      <point x="895.0" y="1042.0" type="line"/>
      <point x="895.0" y="1114.0" type="line"/>
      <point x="167.0" y="786.0" type="line"/>
      <point x="167.0" y="734.0" type="line"/>
    </contour>
    <contour>
      <point x="167.0" y="0.0" type="line"/>
      <point x="895.0" y="0.0" type="line"/>
      <point x="895.0" y="64.0" type="line"/>
      <point x="167.0" y="64.0" type="line"/>
    </contour>
  </outline>
</glyph>
<glyph name="lozenge" format="2">
  <advance width="1100.0"/>
  <unicode hex="25CA"/>
  <outline>
    <contour>
      <point x="502.0" y="0.0" type="line"/>
      <point x="596.0" y="0.0" type="line"/>
      <point x="986.0" y="740.0" type="line"/>
      <point x="596.0" y="1480.0" type="line"/>
      <point x="502.0" y="1480.0" type="line"/>
      <point x="114.0" y="740.0" type="line"/>
    </contour>
    <contour>
      <point x="546.0" y="44.0" type="line"/>
      <point x="554.0" y="44.0" type="line"/>
      <point x="177.0" y="770.0" type="line"/>
      <point x="177.0" y="710.0" type="line"/>
      <point x="554.0" y="1436.0" type="line"/>
      <point x="546.0" y="1436.0" type="line"/>
      <point x="923.0" y="710.0" type="line"/>
      <point x="923.0" y="770.0" type="line"/>
    </contour>
  </outline>
</glyph>
<glyph name="Omega.tf" format="2">
  <advance width="1100.0"/>
  <outline>
    <contour>
      <point x="102.0" y="0.0" type="line"/>
      <point x="468.0" y="0.0" type="line"/>
      <point x="468.0" y="64.0" type="line"/>
      <point x="265.0" y="232.0"/>
      <point x="186.0" y="456.0"/>
      <point x="186.0" y="790.0" type="curve" smooth="yes"/>
      <point x="186.0" y="1274.0"/>
      <point x="331.0" y="1430.0"/>
      <point x="550.0" y="1431.0" type="curve" smooth="yes"/>
      <point x="769.0" y="1432.0"/>
      <point x="914.0" y="1274.0"/>
      <point x="914.0" y="790.0" type="curve" smooth="yes"/>
      <point x="914.0" y="456.0"/>
      <point x="835.0" y="232.0"/>
      <point x="632.0" y="64.0" type="curve"/>
      <point x="632.0" y="0.0" type="line"/>
      <point x="998.0" y="0.0" type="line"/>
      <point x="998.0" y="66.0" type="line"/>
      <point x="694.0" y="66.0" type="line"/>
      <point x="708.0" y="56.0" type="line"/>
      <point x="899.0" y="219.0"/>
      <point x="986.0" y="461.0"/>
      <point x="986.0" y="790.0" type="curve" smooth="yes"/>
      <point x="986.0" y="1302.0"/>
      <point x="818.0" y="1498.0"/>
      <point x="550.0" y="1498.0" type="curve" smooth="yes"/>
      <point x="282.0" y="1498.0"/>
      <point x="114.0" y="1302.0"/>
      <point x="114.0" y="790.0" type="curve" smooth="yes"/>
      <point x="114.0" y="461.0"/>
      <point x="200.0" y="219.0"/>
      <point x="392.0" y="56.0" type="curve"/>
      <point x="406.0" y="66.0" type="line"/>
      <point x="102.0" y="66.0" type="line"/>
    </contour>
  </outline>
</glyph>
<glyph name="acutecomb_dotaccentcomb.case" format="2">
  <outline>
    <contour>
      <point x="460.0" y="1848.0" type="curve" smooth="yes"/>
      <point x="496.0" y="1848.0"/>
      <point x="522.0" y="1872.0"/>
      <point x="522.0" y="1910.0" type="curve" smooth="yes"/>
      <point x="522.0" y="1948.0"/>
      <point x="496.0" y="1974.0"/>
      <point x="460.0" y="1974.0" type="curve" smooth="yes"/>
      <point x="424.0" y="1974.0"/>
      <point x="398.0" y="1948.0"/>
      <point x="398.0" y="1910.0" type="curve" smooth="yes"/>
      <point x="398.0" y="1872.0"/>
      <point x="424.0" y="1848.0"/>
    </contour>
    <component base="acutecomb.case"/>
  </outline>
</glyph>
<glyph name="acutecomb_dotaccentcomb" format="2">
  <outline>
    <contour>
      <point x="460.0" y="1576.0" type="curve" smooth="yes"/>
      <point x="496.0" y="1576.0"/>
      <point x="522.0" y="1600.0"/>
      <point x="522.0" y="1638.0" type="curve" smooth="yes"/>
      <point x="522.0" y="1676.0"/>
      <point x="496.0" y="1702.0"/>
      <point x="460.0" y="1702.0" type="curve" smooth="yes"/>
      <point x="424.0" y="1702.0"/>
      <point x="398.0" y="1676.0"/>
      <point x="398.0" y="1638.0" type="curve" smooth="yes"/>
      <point x="398.0" y="1600.0"/>
      <point x="424.0" y="1576.0"/>
    </contour>
    <component base="acutecomb"/>
  </outline>
</glyph>
<glyph name="approxequal.osf" format="2">
  <advance width="1062.0"/>
  <outline>
    <contour>
      <point x="703.0" y="652.0" type="curve" smooth="yes"/>
      <point x="781.0" y="652.0"/>
      <point x="851.0" y="684.0"/>
      <point x="895.0" y="742.0" type="curve"/>
      <point x="895.0" y="822.0" type="line"/>
      <point x="841.0" y="750.0"/>
      <point x="777.0" y="714.0"/>
      <point x="701.0" y="714.0" type="curve" smooth="yes"/>
      <point x="597.0" y="714.0"/>
      <point x="491.0" y="830.0"/>
      <point x="359.0" y="830.0" type="curve" smooth="yes"/>
      <point x="281.0" y="830.0"/>
      <point x="211.0" y="798.0"/>
      <point x="167.0" y="740.0" type="curve"/>
      <point x="167.0" y="660.0" type="line"/>
      <point x="221.0" y="732.0"/>
      <point x="285.0" y="768.0"/>
      <point x="361.0" y="768.0" type="curve" smooth="yes"/>
      <point x="465.0" y="768.0"/>
      <point x="571.0" y="652.0"/>
    </contour>
    <contour>
      <point x="703.0" y="290.0" type="curve" smooth="yes"/>
      <point x="781.0" y="290.0"/>
      <point x="851.0" y="322.0"/>
      <point x="895.0" y="380.0" type="curve"/>
      <point x="895.0" y="460.0" type="line"/>
      <point x="841.0" y="388.0"/>
      <point x="777.0" y="352.0"/>
      <point x="701.0" y="352.0" type="curve" smooth="yes"/>
      <point x="597.0" y="352.0"/>
      <point x="491.0" y="468.0"/>
      <point x="359.0" y="468.0" type="curve" smooth="yes"/>
      <point x="281.0" y="468.0"/>
      <point x="211.0" y="436.0"/>
      <point x="167.0" y="378.0" type="curve"/>
      <point x="167.0" y="298.0" type="line"/>
      <point x="221.0" y="370.0"/>
      <point x="285.0" y="406.0"/>
      <point x="361.0" y="406.0" type="curve" smooth="yes"/>
      <point x="465.0" y="406.0"/>
      <point x="571.0" y="290.0"/>
    </contour>
  </outline>
</glyph>
<glyph name="approxequal.tosf" format="2">
  <advance width="1100.0"/>
  <outline>
    <contour>
      <point x="722.0" y="652.0" type="curve" smooth="yes"/>
      <point x="800.0" y="652.0"/>
      <point x="870.0" y="684.0"/>
      <point x="914.0" y="742.0" type="curve"/>
      <point x="914.0" y="822.0" type="line"/>
      <point x="860.0" y="750.0"/>
      <point x="796.0" y="714.0"/>
      <point x="720.0" y="714.0" type="curve" smooth="yes"/>
      <point x="616.0" y="714.0"/>
      <point x="510.0" y="830.0"/>
      <point x="378.0" y="830.0" type="curve" smooth="yes"/>
      <point x="300.0" y="830.0"/>
      <point x="230.0" y="798.0"/>
      <point x="186.0" y="740.0" type="curve"/>
      <point x="186.0" y="660.0" type="line"/>
      <point x="240.0" y="732.0"/>
      <point x="304.0" y="768.0"/>
      <point x="380.0" y="768.0" type="curve" smooth="yes"/>
      <point x="484.0" y="768.0"/>
      <point x="590.0" y="652.0"/>
    </contour>
    <contour>
      <point x="722.0" y="290.0" type="curve" smooth="yes"/>
      <point x="800.0" y="290.0"/>
      <point x="870.0" y="322.0"/>
      <point x="914.0" y="380.0" type="curve"/>
      <point x="914.0" y="460.0" type="line"/>
      <point x="860.0" y="388.0"/>
      <point x="796.0" y="352.0"/>
      <point x="720.0" y="352.0" type="curve" smooth="yes"/>
      <point x="616.0" y="352.0"/>
      <point x="510.0" y="468.0"/>
      <point x="378.0" y="468.0" type="curve" smooth="yes"/>
      <point x="300.0" y="468.0"/>
      <point x="230.0" y="436.0"/>
      <point x="186.0" y="378.0" type="curve"/>
      <point x="186.0" y="298.0" type="line"/>
      <point x="240.0" y="370.0"/>
      <point x="304.0" y="406.0"/>
      <point x="380.0" y="406.0" type="curve" smooth="yes"/>
      <point x="484.0" y="406.0"/>
      <point x="590.0" y="290.0"/>
    </contour>
  </outline>
</glyph>
<glyph name="asciitilde.osf" format="2">
  <advance width="1062.0"/>
  <outline>
    <contour>
      <point x="703.0" y="464.0" type="curve" smooth="yes"/>
      <point x="781.0" y="464.0"/>
      <point x="851.0" y="496.0"/>
      <point x="895.0" y="554.0" type="curve"/>
      <point x="895.0" y="636.0" type="line"/>
      <point x="841.0" y="564.0"/>
      <point x="777.0" y="528.0"/>
      <point x="701.0" y="528.0" type="curve" smooth="yes"/>
      <point x="597.0" y="528.0"/>
      <point x="491.0" y="644.0"/>
      <point x="359.0" y="644.0" type="curve" smooth="yes"/>
      <point x="281.0" y="644.0"/>
      <point x="211.0" y="612.0"/>
      <point x="167.0" y="554.0" type="curve"/>
      <point x="167.0" y="472.0" type="line"/>
      <point x="221.0" y="544.0"/>
      <point x="285.0" y="580.0"/>
      <point x="361.0" y="580.0" type="curve" smooth="yes"/>
      <point x="465.0" y="580.0"/>
      <point x="571.0" y="464.0"/>
    </contour>
  </outline>
</glyph>
<glyph name="asciitilde.tf" format="2">
  <advance width="1100.0"/>
  <outline>
    <contour>
      <point x="722.0" y="664.0" type="curve" smooth="yes"/>
      <point x="800.0" y="664.0"/>
      <point x="870.0" y="696.0"/>
      <point x="914.0" y="754.0" type="curve"/>
      <point x="914.0" y="836.0" type="line"/>
      <point x="860.0" y="764.0"/>
      <point x="796.0" y="728.0"/>
      <point x="720.0" y="728.0" type="curve" smooth="yes"/>
      <point x="616.0" y="728.0"/>
      <point x="510.0" y="844.0"/>
      <point x="378.0" y="844.0" type="curve" smooth="yes"/>
      <point x="300.0" y="844.0"/>
      <point x="230.0" y="812.0"/>
      <point x="186.0" y="754.0" type="curve"/>
      <point x="186.0" y="672.0" type="line"/>
      <point x="240.0" y="744.0"/>
      <point x="304.0" y="780.0"/>
      <point x="380.0" y="780.0" type="curve" smooth="yes"/>
      <point x="484.0" y="780.0"/>
      <point x="590.0" y="664.0"/>
    </contour>
  </outline>
</glyph>
<glyph name="b.sc" format="2">
  <advance width="1088.0"/>
  <anchor x="567.0" y="0.0" name="bottom"/>
  <anchor x="567.0" y="1230.0" name="top"/>
  <outline>
    <contour>
      <point x="483.0" y="-8.0" type="curve" smooth="yes"/>
      <point x="856.0" y="-8.0"/>
      <point x="1004.0" y="105.0"/>
      <point x="1004.0" y="318.0" type="curve" smooth="yes"/>
      <point x="1004.0" y="487.0"/>
      <point x="905.0" y="599.0"/>
      <point x="698.0" y="622.0" type="curve"/>
      <point x="695.0" y="610.0" type="line"/>
      <point x="895.0" y="634.0"/>
      <point x="967.0" y="753.0"/>
      <point x="967.0" y="891.0" type="curve" smooth="yes"/>
      <point x="967.0" y="1099.0"/>
      <point x="831.0" y="1202.0"/>
      <point x="509.0" y="1202.0" type="curve" smooth="yes"/>
      <point x="391.0" y="1202.0"/>
      <point x="289.0" y="1192.0"/>
      <point x="192.0" y="1173.0" type="curve"/>
      <point x="192.0" y="8.0" type="line"/>
      <point x="297.0" y="-4.0"/>
      <point x="382.0" y="-8.0"/>
    </contour>
    <contour>
      <point x="486.0" y="53.0" type="curve" smooth="yes"/>
      <point x="401.0" y="53.0"/>
      <point x="330.0" y="57.0"/>
      <point x="260.0" y="66.0" type="curve"/>
      <point x="260.0" y="1120.0" type="line"/>
      <point x="329.0" y="1132.0"/>
      <point x="413.0" y="1139.0"/>
      <point x="510.0" y="1139.0" type="curve" smooth="yes"/>
      <point x="790.0" y="1139.0"/>
      <point x="900.0" y="1066.0"/>
      <point x="900.0" y="889.0" type="curve" smooth="yes"/>
      <point x="900.0" y="735.0"/>
      <point x="810.0" y="644.0"/>
      <point x="540.0" y="644.0" type="curve" smooth="yes"/>
      <point x="245.0" y="644.0" type="line"/>
      <point x="245.0" y="581.0" type="line"/>
      <point x="564.0" y="581.0" type="line" smooth="yes"/>
      <point x="825.0" y="581.0"/>
      <point x="936.0" y="492.0"/>
      <point x="936.0" y="320.0" type="curve" smooth="yes"/>
      <point x="936.0" y="143.0"/>
      <point x="823.0" y="53.0"/>
    </contour>
  </outline>
</glyph>
<glyph name="bar.tf" format="2">
  <advance width="1100.0"/>
  <outline>
    <contour>
      <point x="516.0" y="-440.0" type="line"/>
      <point x="584.0" y="-440.0" type="line"/>
      <point x="584.0" y="1616.0" type="line"/>
      <point x="516.0" y="1616.0" type="line"/>
    </contour>
  </outline>
</glyph>
<glyph name="braceright.sc" format="2">
  <advance width="636.0"/>
  <outline>
    <contour>
      <point x="80.0" y="-260.0" type="curve" smooth="yes"/>
      <point x="272.0" y="-260.0"/>
      <point x="386.0" y="-153.0"/>
      <point x="386.0" y="41.0" type="curve" smooth="yes"/>
      <point x="386.0" y="434.0" type="line" smooth="yes"/>
      <point x="386.0" y="566.0"/>
      <point x="448.0" y="620.0"/>
      <point x="570.0" y="620.0" type="curve" smooth="yes"/>
      <point x="585.0" y="620.0" type="line"/>
      <point x="585.0" y="684.0" type="line"/>
      <point x="570.0" y="684.0" type="line" smooth="yes"/>
      <point x="448.0" y="684.0"/>
      <point x="386.0" y="738.0"/>
      <point x="386.0" y="870.0" type="curve" smooth="yes"/>
      <point x="386.0" y="1199.0" type="line" smooth="yes"/>
      <point x="386.0" y="1393.0"/>
      <point x="272.0" y="1500.0"/>
      <point x="80.0" y="1500.0" type="curve" smooth="yes"/>
      <point x="36.0" y="1500.0"/>
      <point x="-10.0" y="1496.0"/>
      <point x="-40.0" y="1490.0" type="curve"/>
      <point x="-40.0" y="1434.0" type="line"/>
      <point x="84.0" y="1434.0" type="line" smooth="yes"/>
      <point x="231.0" y="1434.0"/>
      <point x="318.0" y="1359.0"/>
      <point x="318.0" y="1206.0" type="curve" smooth="yes"/>
      <point x="318.0" y="880.0" type="line" smooth="yes"/>
      <point x="318.0" y="744.0"/>
      <point x="364.0" y="672.0"/>
      <point x="462.0" y="646.0" type="curve"/>
      <point x="462.0" y="658.0" type="line"/>
      <point x="364.0" y="632.0"/>
      <point x="318.0" y="560.0"/>
      <point x="318.0" y="424.0" type="curve" smooth="yes"/>
      <point x="318.0" y="34.0" type="line" smooth="yes"/>
      <point x="318.0" y="-119.0"/>
      <point x="231.0" y="-194.0"/>
      <point x="84.0" y="-194.0" type="curve" smooth="yes"/>
      <point x="-40.0" y="-194.0" type="line"/>
      <point x="-40.0" y="-250.0" type="line"/>
      <point x="-10.0" y="-256.0"/>
      <point x="36.0" y="-260.0"/>
    </contour>
  </outline>
</glyph>
<glyph name="brevecomb.case" format="2">
  <anchor x="500.0" y="1520.0" name="_top"/>
  <anchor x="500.0" y="1788.0" name="top"/>
  <outline>
    <contour>
      <point x="502.0" y="1628.0" type="curve" smooth="yes"/>
      <point x="681.0" y="1628.0"/>
      <point x="770.0" y="1717.0"/>
      <point x="782.0" y="1860.0" type="curve"/>
      <point x="724.0" y="1860.0" type="line"/>
      <point x="711.0" y="1747.0"/>
      <point x="653.0" y="1687.0"/>
      <point x="502.0" y="1687.0" type="curve" smooth="yes"/>
      <point x="351.0" y="1687.0"/>
      <point x="291.0" y="1747.0"/>
      <point x="276.0" y="1860.0" type="curve"/>
      <point x="218.0" y="1860.0" type="line"/>
      <point x="230.0" y="1719.0"/>
      <point x="323.0" y="1628.0"/>
    </contour>
  </outline>
</glyph>
<glyph name="brevecomb_gravecomb.case" format="2">
  <anchor x="500.0" y="1520.0" name="_top"/>
  <outline>
    <contour>
      <point x="499.0" y="1628.0" type="curve" smooth="yes"/>
      <point x="677.0" y="1628.0"/>
      <point x="770.0" y="1719.0"/>
      <point x="782.0" y="1860.0" type="curve"/>
      <point x="724.0" y="1860.0" type="line"/>
      <point x="709.0" y="1747.0"/>
      <point x="651.0" y="1687.0"/>
      <point x="499.0" y="1687.0" type="curve" smooth="yes"/>
      <point x="347.0" y="1687.0"/>
      <point x="289.0" y="1747.0"/>
      <point x="276.0" y="1860.0" type="curve"/>
      <point x="218.0" y="1860.0" type="line"/>
      <point x="230.0" y="1717.0"/>
      <point x="319.0" y="1628.0"/>
    </contour>
    <contour>
      <point x="468.0" y="1846.0" type="line"/>
      <point x="532.0" y="1846.0" type="line"/>
      <point x="357.0" y="2098.0" type="line"/>
      <point x="278.0" y="2098.0" type="line"/>
    </contour>
  </outline>
</glyph>
<glyph name="brevecomb_hookabovecomb.case" format="2">
  <anchor x="500.0" y="1520.0" name="_top"/>
  <outline>
    <contour>
      <point x="498.0" y="1628.0" type="curve" smooth="yes"/>
      <point x="677.0" y="1628.0"/>
      <point x="770.0" y="1719.0"/>
      <point x="782.0" y="1860.0" type="curve"/>
      <point x="724.0" y="1860.0" type="line"/>
      <point x="709.0" y="1747.0"/>
      <point x="649.0" y="1687.0"/>
      <point x="498.0" y="1687.0" type="curve" smooth="yes"/>
      <point x="347.0" y="1687.0"/>
      <point x="289.0" y="1747.0"/>
      <point x="276.0" y="1860.0" type="curve"/>
      <point x="218.0" y="1860.0" type="line"/>
      <point x="230.0" y="1717.0"/>
      <point x="319.0" y="1628.0"/>
    </contour>
    <contour>
      <point x="468.0" y="1846.0" type="curve"/>
      <point x="531.0" y="1846.0" type="line"/>
      <point x="539.0" y="1926.0"/>
      <point x="695.0" y="1904.0"/>
      <point x="695.0" y="2012.0" type="curve" smooth="yes"/>
      <point x="695.0" y="2072.0"/>
      <point x="640.0" y="2118.0"/>
      <point x="515.0" y="2118.0" type="curve" smooth="yes"/>
      <point x="437.0" y="2118.0"/>
      <point x="369.0" y="2104.0"/>
      <point x="318.0" y="2082.0" type="curve"/>
      <point x="318.0" y="2027.0" type="line"/>
      <point x="386.0" y="2053.0"/>
      <point x="445.0" y="2064.0"/>
      <point x="515.0" y="2064.0" type="curve" smooth="yes"/>
      <point x="611.0" y="2064.0"/>
      <point x="636.0" y="2042.0"/>
      <point x="636.0" y="2011.0" type="curve" smooth="yes"/>
      <point x="636.0" y="1938.0"/>
      <point x="474.0" y="1958.0"/>
    </contour>
  </outline>
</glyph>
<glyph name="breveinvertedcomb.case" format="2">
  <anchor x="500.0" y="1520.0" name="_top"/>
  <anchor x="500.0" y="1848.0" name="top"/>
  <outline>
    <contour>
      <point x="218.0" y="1644.0" type="curve"/>
      <point x="276.0" y="1644.0" type="line"/>
      <point x="289.0" y="1757.0"/>
      <point x="347.0" y="1817.0"/>
      <point x="498.0" y="1817.0" type="curve" smooth="yes"/>
      <point x="649.0" y="1817.0"/>
      <point x="709.0" y="1757.0"/>
      <point x="724.0" y="1644.0" type="curve"/>
      <point x="782.0" y="1644.0" type="line"/>
      <point x="770.0" y="1785.0"/>
      <point x="677.0" y="1876.0"/>
      <point x="498.0" y="1876.0" type="curve" smooth="yes"/>
      <point x="319.0" y="1876.0"/>
      <point x="230.0" y="1787.0"/>
    </contour>
  </outline>
</glyph>
<glyph name="bulletoperator.tosf" format="2">
  <advance width="1100.0"/>
  <anchor x="550.0" y="560.0" name="_periodcentered"/>
  <outline>
    <contour>
      <point x="550.0" y="496.0" type="curve" smooth="yes"/>
      <point x="586.0" y="496.0"/>
      <point x="612.0" y="520.0"/>
      <point x="612.0" y="558.0" type="curve" smooth="yes"/>
      <point x="612.0" y="596.0"/>
      <point x="586.0" y="622.0"/>
      <point x="550.0" y="622.0" type="curve" smooth="yes"/>
      <point x="514.0" y="622.0"/>
      <point x="488.0" y="596.0"/>
      <point x="488.0" y="558.0" type="curve" smooth="yes"/>
      <point x="488.0" y="520.0"/>
      <point x="514.0" y="496.0"/>
    </contour>
  </outline>
</glyph>
<glyph name="caroncomb_dotaccentcomb.case" format="2">
  <advance width="1000.0"/>
  <outline>
    <contour>
      <point x="500.0" y="1888.0" type="curve" smooth="yes"/>
      <point x="536.0" y="1888.0"/>
      <point x="562.0" y="1912.0"/>
      <point x="562.0" y="1950.0" type="curve" smooth="yes"/>
      <point x="562.0" y="1988.0"/>
      <point x="536.0" y="2014.0"/>
      <point x="500.0" y="2014.0" type="curve" smooth="yes"/>
      <point x="464.0" y="2014.0"/>
      <point x="438.0" y="1988.0"/>
      <point x="438.0" y="1950.0" type="curve" smooth="yes"/>
      <point x="438.0" y="1912.0"/>
      <point x="464.0" y="1888.0"/>
    </contour>
    <component base="caroncomb.case"/>
  </outline>
</glyph>
<glyph name="caroncomb_dotaccentcomb" format="2">
  <advance width="1000.0"/>
  <outline>
    <contour>
      <point x="500.0" y="1614.0" type="curve" smooth="yes"/>
      <point x="536.0" y="1614.0"/>
      <point x="562.0" y="1638.0"/>
      <point x="562.0" y="1676.0" type="curve" smooth="yes"/>
      <point x="562.0" y="1714.0"/>
      <point x="536.0" y="1740.0"/>
      <point x="500.0" y="1740.0" type="curve" smooth="yes"/>
      <point x="464.0" y="1740.0"/>
      <point x="438.0" y="1714.0"/>
      <point x="438.0" y="1676.0" type="curve" smooth="yes"/>
      <point x="438.0" y="1638.0"/>
      <point x="464.0" y="1614.0"/>
    </contour>
    <component base="caroncomb"/>
  </outline>
</glyph>
<glyph name="cent.tf" format="2">
  <advance width="1100.0"/>
  <outline>
    <contour>
      <point x="688.0" y="-18.0" type="curve" smooth="yes"/>
      <point x="799.0" y="-18.0"/>
      <point x="912.0" y="0.0"/>
      <point x="1020.0" y="36.0" type="curve"/>
      <point x="1020.0" y="104.0" type="line"/>
      <point x="892.0" y="64.0"/>
      <point x="787.0" y="48.0"/>
      <point x="693.0" y="48.0" type="curve" smooth="yes"/>
      <point x="392.0" y="48.0"/>
      <point x="220.0" y="192.0"/>
      <point x="220.0" y="544.0" type="curve" smooth="yes"/>
      <point x="220.0" y="888.0"/>
      <point x="392.0" y="1030.0"/>
      <point x="734.0" y="1030.0" type="curve" smooth="yes"/>
      <point x="839.0" y="1030.0"/>
      <point x="926.0" y="1016.0"/>
      <point x="1020.0" y="992.0" type="curve"/>
      <point x="1020.0" y="1060.0" type="line"/>
      <point x="927.0" y="1084.0"/>
      <point x="839.0" y="1096.0"/>
      <point x="730.0" y="1096.0" type="curve" smooth="yes"/>
      <point x="356.0" y="1096.0"/>
      <point x="148.0" y="924.0"/>
      <point x="148.0" y="540.0" type="curve" smooth="yes"/>
      <point x="148.0" y="155.0"/>
      <point x="345.0" y="-18.0"/>
    </contour>
    <contour>
      <point x="646.0" y="-240.0" type="line"/>
      <point x="710.0" y="-240.0" type="line"/>
      <point x="710.0" y="0.0" type="line"/>
      <point x="646.0" y="0.0" type="line"/>
    </contour>
    <contour>
      <point x="646.0" y="1080.0" type="line"/>
      <point x="710.0" y="1080.0" type="line"/>
      <point x="710.0" y="1300.0" type="line"/>
      <point x="646.0" y="1300.0" type="line"/>
    </contour>
  </outline>
</glyph>
<glyph name="circumflexcomb_gravecomb" format="2">
  <anchor x="500.0" y="1200.0" name="_top"/>
  <outline>
    <contour>
      <point x="244.0" y="1264.0" type="line"/>
      <point x="315.0" y="1264.0" type="line"/>
      <point x="513.0" y="1591.0" type="line"/>
      <point x="487.0" y="1591.0" type="line"/>
      <point x="685.0" y="1264.0" type="line"/>
      <point x="756.0" y="1264.0" type="line"/>
      <point x="538.0" y="1616.0" type="line"/>
      <point x="462.0" y="1616.0" type="line"/>
    </contour>
    <contour>
      <point x="714.0" y="1596.0" type="line"/>
      <point x="778.0" y="1596.0" type="line"/>
      <point x="603.0" y="1868.0" type="line"/>
      <point x="524.0" y="1868.0" type="line"/>
    </contour>
  </outline>
</glyph>
<glyph name="circumflexcomb_hookabovecomb.case" format="2">
  <anchor x="500.0" y="1520.0" name="_top"/>
  <outline>
    <contour>
      <point x="222.0" y="1616.0" type="line"/>
      <point x="303.0" y="1616.0" type="line"/>
      <point x="513.0" y="1859.0" type="line"/>
      <point x="487.0" y="1859.0" type="line"/>
      <point x="697.0" y="1616.0" type="line"/>
      <point x="778.0" y="1616.0" type="line"/>
      <point x="538.0" y="1888.0" type="line"/>
      <point x="462.0" y="1888.0" type="line"/>
    </contour>
    <contour>
      <point x="714.0" y="1792.0" type="curve"/>
      <point x="777.0" y="1792.0" type="line"/>
      <point x="785.0" y="1872.0"/>
      <point x="941.0" y="1850.0"/>
      <point x="941.0" y="1958.0" type="curve" smooth="yes"/>
      <point x="941.0" y="2018.0"/>
      <point x="886.0" y="2064.0"/>
      <point x="761.0" y="2064.0" type="curve" smooth="yes"/>
      <point x="683.0" y="2064.0"/>
      <point x="615.0" y="2050.0"/>
      <point x="564.0" y="2028.0" type="curve"/>
      <point x="564.0" y="1973.0" type="line"/>
      <point x="632.0" y="1999.0"/>
      <point x="691.0" y="2010.0"/>
      <point x="761.0" y="2010.0" type="curve" smooth="yes"/>
      <point x="857.0" y="2010.0"/>
      <point x="882.0" y="1988.0"/>
      <point x="882.0" y="1957.0" type="curve" smooth="yes"/>
      <point x="882.0" y="1884.0"/>
      <point x="720.0" y="1904.0"/>
    </contour>
  </outline>
</glyph>
<glyph name="circumflexcomb_hookabovecomb" format="2">
  <guideline x="754.0" y="1434.0" angle="90.0"/>
  <anchor x="500.0" y="1200.0" name="_top"/>
  <outline>
    <contour>
      <point x="244.0" y="1264.0" type="line"/>
      <point x="315.0" y="1264.0" type="line"/>
      <point x="513.0" y="1591.0" type="line"/>
      <point x="487.0" y="1591.0" type="line"/>
      <point x="685.0" y="1264.0" type="line"/>
      <point x="756.0" y="1264.0" type="line"/>
      <point x="538.0" y="1616.0" type="line"/>
      <point x="462.0" y="1616.0" type="line"/>
    </contour>
    <contour>
      <point x="693.0" y="1596.0" type="curve"/>
      <point x="756.0" y="1596.0" type="line"/>
      <point x="764.0" y="1676.0"/>
      <point x="920.0" y="1654.0"/>
      <point x="920.0" y="1762.0" type="curve" smooth="yes"/>
      <point x="920.0" y="1822.0"/>
      <point x="865.0" y="1868.0"/>
      <point x="740.0" y="1868.0" type="curve" smooth="yes"/>
      <point x="662.0" y="1868.0"/>
      <point x="594.0" y="1854.0"/>
      <point x="543.0" y="1832.0" type="curve"/>
      <point x="543.0" y="1777.0" type="line"/>
      <point x="611.0" y="1803.0"/>
      <point x="670.0" y="1814.0"/>
      <point x="740.0" y="1814.0" type="curve" smooth="yes"/>
      <point x="836.0" y="1814.0"/>
      <point x="861.0" y="1792.0"/>
      <point x="861.0" y="1761.0" type="curve" smooth="yes"/>
      <point x="861.0" y="1688.0"/>
      <point x="699.0" y="1708.0"/>
    </contour>
  </outline>
</glyph>
<glyph name="circumflexcomb_tildecomb" format="2">
  <anchor x="500.0" y="1200.0" name="_top"/>
  <outline>
    <contour>
      <point x="244.0" y="1264.0" type="line"/>
      <point x="315.0" y="1264.0" type="line"/>
      <point x="513.0" y="1591.0" type="line"/>
      <point x="487.0" y="1591.0" type="line"/>
      <point x="685.0" y="1264.0" type="line"/>
      <point x="756.0" y="1264.0" type="line"/>
      <point x="538.0" y="1616.0" type="line"/>
      <point x="462.0" y="1616.0" type="line"/>
    </contour>
    <contour>
      <point x="634.0" y="1676.0" type="curve" smooth="yes"/>
      <point x="697.0" y="1676.0"/>
      <point x="748.0" y="1698.0"/>
      <point x="783.0" y="1737.0" type="curve"/>
      <point x="783.0" y="1804.0" type="line"/>
      <point x="740.0" y="1756.0"/>
      <point x="694.0" y="1733.0"/>
      <point x="634.0" y="1733.0" type="curve" smooth="yes"/>
      <point x="552.0" y="1733.0"/>
      <point x="468.0" y="1809.0"/>
      <point x="366.0" y="1809.0" type="curve" smooth="yes"/>
      <point x="303.0" y="1809.0"/>
      <point x="252.0" y="1787.0"/>
      <point x="217.0" y="1748.0" type="curve"/>
      <point x="217.0" y="1681.0" type="line"/>
      <point x="260.0" y="1729.0"/>
      <point x="306.0" y="1752.0"/>
      <point x="366.0" y="1752.0" type="curve" smooth="yes"/>
      <point x="448.0" y="1752.0"/>
      <point x="532.0" y="1676.0"/>
    </contour>
  </outline>
</glyph>
<glyph name="commaaccentcomb.case" format="2">
  <anchor x="500.0" y="0.0" name="_bottom"/>
  <outline>
    <contour>
      <point x="474.0" y="-448.0" type="curve"/>
      <point x="518.0" y="-448.0" type="line"/>
      <point x="548.0" y="-386.0"/>
      <point x="562.0" y="-318.0"/>
      <point x="562.0" y="-270.0" type="curve" smooth="yes"/>
      <point x="562.0" y="-212.0"/>
      <point x="536.0" y="-184.0"/>
      <point x="496.0" y="-184.0" type="curve" smooth="yes"/>
      <point x="462.0" y="-184.0"/>
      <point x="438.0" y="-210.0"/>
      <point x="438.0" y="-246.0" type="curve" smooth="yes"/>
      <point x="438.0" y="-284.0"/>
      <point x="464.0" y="-310.0"/>
      <point x="500.0" y="-310.0" type="curve" smooth="yes"/>
      <point x="512.0" y="-310.0" type="line"/>
      <point x="508.0" y="-278.0" type="line"/>
      <point x="508.0" y="-326.0"/>
      <point x="502.0" y="-376.0"/>
    </contour>
  </outline>
</glyph>
<glyph name="commaturnedabovecomb.case" format="2">
  <anchor x="500.0" y="1520.0" name="_top"/>
  <anchor x="500.0" y="1908.0" name="top"/>
  <outline>
    <contour>
      <point x="504.0" y="1690.0" type="curve" smooth="yes"/>
      <point x="538.0" y="1690.0"/>
      <point x="562.0" y="1716.0"/>
      <point x="562.0" y="1752.0" type="curve" smooth="yes"/>
      <point x="562.0" y="1790.0"/>
      <point x="536.0" y="1816.0"/>
      <point x="500.0" y="1816.0" type="curve" smooth="yes"/>
      <point x="488.0" y="1816.0" type="line"/>
      <point x="492.0" y="1784.0" type="line"/>
      <point x="492.0" y="1832.0"/>
      <point x="498.0" y="1882.0"/>
      <point x="526.0" y="1954.0" type="curve"/>
      <point x="482.0" y="1954.0" type="line"/>
      <point x="452.0" y="1892.0"/>
      <point x="438.0" y="1824.0"/>
      <point x="438.0" y="1776.0" type="curve" smooth="yes"/>
      <point x="438.0" y="1718.0"/>
      <point x="464.0" y="1690.0"/>
    </contour>
  </outline>
</glyph>
<glyph name="degree.tf" format="2">
  <advance width="1100.0"/>
  <outline>
    <contour>
      <point x="550.0" y="832.0" type="curve" smooth="yes"/>
      <point x="744.0" y="832.0"/>
      <point x="882.0" y="972.0"/>
      <point x="882.0" y="1164.0" type="curve" smooth="yes"/>
      <point x="882.0" y="1356.0"/>
      <point x="744.0" y="1496.0"/>
      <point x="550.0" y="1496.0" type="curve" smooth="yes"/>
      <point x="356.0" y="1496.0"/>
      <point x="218.0" y="1356.0"/>
      <point x="218.0" y="1164.0" type="curve" smooth="yes"/>
      <point x="218.0" y="972.0"/>
      <point x="356.0" y="832.0"/>
    </contour>
    <contour>
      <point x="550.0" y="896.0" type="curve" smooth="yes"/>
      <point x="395.0" y="896.0"/>
      <point x="285.0" y="1000.0"/>
      <point x="285.0" y="1164.0" type="curve" smooth="yes"/>
      <point x="285.0" y="1328.0"/>
      <point x="395.0" y="1432.0"/>
      <point x="550.0" y="1432.0" type="curve" smooth="yes"/>
      <point x="705.0" y="1432.0"/>
      <point x="815.0" y="1328.0"/>
      <point x="815.0" y="1164.0" type="curve" smooth="yes"/>
      <point x="815.0" y="1000.0"/>
      <point x="705.0" y="896.0"/>
    </contour>
  </outline>
</glyph>
<glyph name="dieresisbelowcomb.case" format="2">
  <anchor x="500.0" y="0.0" name="_bottom"/>
  <anchor x="500.0" y="-440.0" name="bottom"/>
  <outline>
    <contour>
      <point x="720.0" y="-310.0" type="curve" smooth="yes"/>
      <point x="756.0" y="-310.0"/>
      <point x="782.0" y="-286.0"/>
      <point x="782.0" y="-248.0" type="curve" smooth="yes"/>
      <point x="782.0" y="-210.0"/>
      <point x="756.0" y="-184.0"/>
      <point x="720.0" y="-184.0" type="curve" smooth="yes"/>
      <point x="684.0" y="-184.0"/>
      <point x="658.0" y="-210.0"/>
      <point x="658.0" y="-248.0" type="curve" smooth="yes"/>
      <point x="658.0" y="-286.0"/>
      <point x="684.0" y="-310.0"/>
    </contour>
    <contour>
      <point x="280.0" y="-310.0" type="curve" smooth="yes"/>
      <point x="316.0" y="-310.0"/>
      <point x="342.0" y="-286.0"/>
      <point x="342.0" y="-248.0" type="curve" smooth="yes"/>
      <point x="342.0" y="-210.0"/>
      <point x="316.0" y="-184.0"/>
      <point x="280.0" y="-184.0" type="curve" smooth="yes"/>
      <point x="244.0" y="-184.0"/>
      <point x="218.0" y="-210.0"/>
      <point x="218.0" y="-248.0" type="curve" smooth="yes"/>
      <point x="218.0" y="-286.0"/>
      <point x="244.0" y="-310.0"/>
    </contour>
  </outline>
</glyph>
<glyph name="dieresiscomb.case" format="2">
  <anchor x="500.0" y="1520.0" name="_top"/>
  <anchor x="500.0" y="1788.0" name="top"/>
  <outline>
    <contour>
      <point x="720.0" y="1690.0" type="curve" smooth="yes"/>
      <point x="756.0" y="1690.0"/>
      <point x="782.0" y="1714.0"/>
      <point x="782.0" y="1752.0" type="curve" smooth="yes"/>
      <point x="782.0" y="1790.0"/>
      <point x="756.0" y="1816.0"/>
      <point x="720.0" y="1816.0" type="curve" smooth="yes"/>
      <point x="684.0" y="1816.0"/>
      <point x="658.0" y="1790.0"/>
      <point x="658.0" y="1752.0" type="curve" smooth="yes"/>
      <point x="658.0" y="1714.0"/>
      <point x="684.0" y="1690.0"/>
    </contour>
    <contour>
      <point x="280.0" y="1690.0" type="curve" smooth="yes"/>
      <point x="316.0" y="1690.0"/>
      <point x="342.0" y="1714.0"/>
      <point x="342.0" y="1752.0" type="curve" smooth="yes"/>
      <point x="342.0" y="1790.0"/>
      <point x="316.0" y="1816.0"/>
      <point x="280.0" y="1816.0" type="curve" smooth="yes"/>
      <point x="244.0" y="1816.0"/>
      <point x="218.0" y="1790.0"/>
      <point x="218.0" y="1752.0" type="curve" smooth="yes"/>
      <point x="218.0" y="1714.0"/>
      <point x="244.0" y="1690.0"/>
    </contour>
  </outline>
</glyph>
<glyph name="dieresiscomb_acutecomb.case" format="2">
  <outline>
    <contour>
      <point x="468.0" y="1884.0" type="line"/>
      <point x="533.0" y="1884.0" type="line"/>
      <point x="722.0" y="2116.0" type="line"/>
      <point x="642.0" y="2116.0" type="line"/>
    </contour>
    <component base="dieresiscomb.case"/>
  </outline>
</glyph>
<glyph name="divisionslash.tf" format="2">
  <advance width="1100.0"/>
  <outline>
    <contour>
      <point x="336.0" y="0.0" type="line"/>
      <point x="405.0" y="0.0" type="line"/>
      <point x="762.0" y="1480.0" type="line"/>
      <point x="693.0" y="1480.0" type="line"/>
    </contour>
  </outline>
</glyph>
<glyph name="dollar.tf" format="2">
  <advance width="1100.0"/>
  <outline>
    <contour>
      <point x="477.0" y="-18.0" type="curve" smooth="yes"/>
      <point x="815.0" y="-18.0"/>
      <point x="1005.0" y="123.0"/>
      <point x="1005.0" y="380.0" type="curve" smooth="yes"/>
      <point x="1005.0" y="594.0"/>
      <point x="874.0" y="704.0"/>
      <point x="586.0" y="772.0" type="curve" smooth="yes"/>
      <point x="519.0" y="788.0" type="line" smooth="yes"/>
      <point x="263.0" y="850.0"/>
      <point x="167.0" y="937.0"/>
      <point x="167.0" y="1116.0" type="curve" smooth="yes"/>
      <point x="167.0" y="1319.0"/>
      <point x="313.0" y="1432.0"/>
      <point x="606.0" y="1432.0" type="curve" smooth="yes"/>
      <point x="719.0" y="1432.0"/>
      <point x="828.0" y="1418.0"/>
      <point x="942.0" y="1385.0" type="curve"/>
      <point x="942.0" y="1453.0" type="line"/>
      <point x="843.0" y="1483.0"/>
      <point x="721.0" y="1498.0"/>
      <point x="611.0" y="1498.0" type="curve" smooth="yes"/>
      <point x="270.0" y="1498.0"/>
      <point x="95.0" y="1352.0"/>
      <point x="95.0" y="1112.0" type="curve" smooth="yes"/>
      <point x="95.0" y="899.0"/>
      <point x="226.0" y="785.0"/>
      <point x="493.0" y="722.0" type="curve" smooth="yes"/>
      <point x="560.0" y="706.0" type="line" smooth="yes"/>
      <point x="825.0" y="642.0"/>
      <point x="933.0" y="561.0"/>
      <point x="933.0" y="377.0" type="curve" smooth="yes"/>
      <point x="933.0" y="160.0"/>
      <point x="776.0" y="48.0"/>
      <point x="482.0" y="48.0" type="curve" smooth="yes"/>
      <point x="370.0" y="48.0"/>
      <point x="246.0" y="65.0"/>
      <point x="113.0" y="107.0" type="curve"/>
      <point x="113.0" y="39.0" type="line"/>
      <point x="233.0" y="0.0"/>
      <point x="366.0" y="-18.0"/>
    </contour>
    <contour>
      <point x="519.0" y="-240.0" type="line"/>
      <point x="583.0" y="-240.0" type="line"/>
      <point x="583.0" y="10.0" type="line"/>
      <point x="519.0" y="0.0" type="line"/>
    </contour>
    <contour>
      <point x="519.0" y="1480.0" type="line"/>
      <point x="583.0" y="1480.0" type="line"/>
      <point x="583.0" y="1720.0" type="line"/>
      <point x="519.0" y="1720.0" type="line"/>
    </contour>
  </outline>
</glyph>
<glyph name="dotbelowcomb.case" format="2">
  <anchor x="500.0" y="0.0" name="_bottom"/>
  <anchor x="500.0" y="-440.0" name="bottom"/>
  <outline>
    <contour>
      <point x="500.0" y="-310.0" type="curve" smooth="yes"/>
      <point x="536.0" y="-310.0"/>
      <point x="562.0" y="-286.0"/>
      <point x="562.0" y="-248.0" type="curve" smooth="yes"/>
      <point x="562.0" y="-210.0"/>
      <point x="536.0" y="-184.0"/>
      <point x="500.0" y="-184.0" type="curve" smooth="yes"/>
      <point x="464.0" y="-184.0"/>
      <point x="438.0" y="-210.0"/>
      <point x="438.0" y="-248.0" type="curve" smooth="yes"/>
      <point x="438.0" y="-286.0"/>
      <point x="464.0" y="-310.0"/>
    </contour>
  </outline>
</glyph>
<glyph name="eight.numr" format="2">
  <advance width="749.0"/>
  <outline>
    <contour>
      <point x="382.0" y="604.0" type="curve" smooth="yes"/>
      <point x="578.0" y="604.0"/>
      <point x="690.0" y="707.0"/>
      <point x="690.0" y="868.0" type="curve" smooth="yes"/>
      <point x="690.0" y="1010.0"/>
      <point x="610.0" y="1093.0"/>
      <point x="400.0" y="1147.0" type="curve" smooth="yes"/>
      <point x="213.0" y="1194.0"/>
      <point x="155.0" y="1258.0"/>
      <point x="155.0" y="1377.0" type="curve" smooth="yes"/>
      <point x="155.0" y="1496.0"/>
      <point x="230.0" y="1570.0"/>
      <point x="373.0" y="1570.0" type="curve" smooth="yes"/>
      <point x="513.0" y="1570.0"/>
      <point x="597.0" y="1501.0"/>
      <point x="597.0" y="1374.0" type="curve" smooth="yes"/>
      <point x="597.0" y="1259.0"/>
      <point x="544.0" y="1191.0"/>
      <point x="420.0" y="1135.0" type="curve"/>
      <point x="472.0" y="1110.0" type="line"/>
      <point x="592.0" y="1161.0"/>
      <point x="659.0" y="1253.0"/>
      <point x="659.0" y="1377.0" type="curve" smooth="yes"/>
      <point x="659.0" y="1533.0"/>
      <point x="551.0" y="1628.0"/>
      <point x="373.0" y="1628.0" type="curve" smooth="yes"/>
      <point x="198.0" y="1628.0"/>
      <point x="91.0" y="1531.0"/>
      <point x="91.0" y="1375.0" type="curve" smooth="yes"/>
      <point x="91.0" y="1228.0"/>
      <point x="170.0" y="1141.0"/>
      <point x="382.0" y="1087.0" type="curve" smooth="yes"/>
      <point x="562.0" y="1041.0"/>
      <point x="626.0" y="984.0"/>
      <point x="626.0" y="863.0" type="curve" smooth="yes"/>
      <point x="626.0" y="735.0"/>
      <point x="538.0" y="663.0"/>
      <point x="383.0" y="663.0" type="curve" smooth="yes"/>
      <point x="211.0" y="663.0"/>
      <point x="124.0" y="737.0"/>
      <point x="124.0" y="871.0" type="curve" smooth="yes"/>
      <point x="124.0" y="989.0"/>
      <point x="192.0" y="1079.0"/>
      <point x="316.0" y="1117.0" type="curve"/>
      <point x="261.0" y="1144.0" type="line"/>
      <point x="135.0" y="1099.0"/>
      <point x="60.0" y="1000.0"/>
      <point x="60.0" y="867.0" type="curve" smooth="yes"/>
      <point x="60.0" y="699.0"/>
      <point x="173.0" y="604.0"/>
    </contour>
  </outline>
</glyph>
<glyph name="eight.osf" format="2">
  <advance width="1200.0"/>
  <outline>
    <contour>
      <point x="611.0" y="-18.0" type="curve" smooth="yes"/>
      <point x="913.0" y="-18.0"/>
      <point x="1089.0" y="132.0"/>
      <point x="1089.0" y="367.0" type="curve" smooth="yes"/>
      <point x="1089.0" y="578.0"/>
      <point x="962.0" y="697.0"/>
      <point x="632.0" y="774.0" type="curve" smooth="yes"/>
      <point x="332.0" y="843.0"/>
      <point x="234.0" y="943.0"/>
      <point x="234.0" y="1129.0" type="curve" smooth="yes"/>
      <point x="234.0" y="1317.0"/>
      <point x="359.0" y="1432.0"/>
      <point x="594.0" y="1432.0" type="curve" smooth="yes"/>
      <point x="829.0" y="1432.0"/>
      <point x="969.0" y="1325.0"/>
      <point x="969.0" y="1125.0" type="curve" smooth="yes"/>
      <point x="969.0" y="946.0"/>
      <point x="880.0" y="841.0"/>
      <point x="674.0" y="758.0" type="curve"/>
      <point x="742.0" y="727.0" type="line"/>
      <point x="930.0" y="802.0"/>
      <point x="1037.0" y="937.0"/>
      <point x="1037.0" y="1126.0" type="curve" smooth="yes"/>
      <point x="1037.0" y="1356.0"/>
      <point x="870.0" y="1498.0"/>
      <point x="595.0" y="1498.0" type="curve" smooth="yes"/>
      <point x="327.0" y="1498.0"/>
      <point x="162.0" y="1356.0"/>
      <point x="162.0" y="1127.0" type="curve" smooth="yes"/>
      <point x="162.0" y="910.0"/>
      <point x="290.0" y="784.0"/>
      <point x="621.0" y="707.0" type="curve" smooth="yes"/>
      <point x="913.0" y="638.0"/>
      <point x="1017.0" y="550.0"/>
      <point x="1017.0" y="362.0" type="curve" smooth="yes"/>
      <point x="1017.0" y="161.0"/>
      <point x="870.0" y="48.0"/>
      <point x="612.0" y="48.0" type="curve" smooth="yes"/>
      <point x="329.0" y="48.0"/>
      <point x="182.0" y="163.0"/>
      <point x="182.0" y="374.0" type="curve" smooth="yes"/>
      <point x="182.0" y="557.0"/>
      <point x="297.0" y="696.0"/>
      <point x="501.0" y="753.0" type="curve"/>
      <point x="430.0" y="786.0" type="line"/>
      <point x="233.0" y="720.0"/>
      <point x="111.0" y="572.0"/>
      <point x="111.0" y="372.0" type="curve" smooth="yes"/>
      <point x="111.0" y="121.0"/>
      <point x="291.0" y="-18.0"/>
    </contour>
  </outline>
</glyph>
<glyph name="eng.sc" format="2">
  <advance width="1287.0"/>
  <outline>
    <contour>
      <point x="192.0" y="0.0" type="line"/>
      <point x="258.0" y="0.0" type="line"/>
      <point x="258.0" y="1120.0" type="line"/>
      <point x="232.0" y="1120.0" type="line"/>
      <point x="1021.0" y="0.0" type="line"/>
      <point x="1054.0" y="70.0" type="line"/>
      <point x="265.0" y="1190.0" type="line"/>
      <point x="192.0" y="1190.0" type="line"/>
    </contour>
    <contour>
      <point x="915.0" y="-460.0" type="line"/>
      <point x="1041.0" y="-300.0"/>
      <point x="1086.0" y="-166.0"/>
      <point x="1095.0" y="21.0" type="curve"/>
      <point x="1095.0" y="1190.0" type="line"/>
      <point x="1029.0" y="1190.0" type="line"/>
      <point x="1029.0" y="44.0" type="line" smooth="yes"/>
      <point x="1029.0" y="-147.0"/>
      <point x="980.0" y="-280.0"/>
      <point x="867.0" y="-425.0" type="curve"/>
    </contour>
  </outline>
</glyph>
<glyph name="f.sc" format="2">
  <advance width="962.0"/>
  <outline>
    <contour>
      <point x="192.0" y="0.0" type="line"/>
      <point x="260.0" y="0.0" type="line"/>
      <point x="260.0" y="1126.0" type="line"/>
      <point x="911.0" y="1126.0" type="line"/>
      <point x="911.0" y="1190.0" type="line"/>
      <point x="192.0" y="1190.0" type="line"/>
    </contour>
    <contour>
      <point x="249.0" y="577.0" type="line"/>
      <point x="830.0" y="577.0" type="line"/>
      <point x="830.0" y="641.0" type="line"/>
      <point x="249.0" y="641.0" type="line"/>
    </contour>
  </outline>
</glyph>
<glyph name="five.osf" format="2">
  <advance width="953.0"/>
  <outline>
    <contour>
      <point x="406.0" y="-418.0" type="curve" smooth="yes"/>
      <point x="727.0" y="-418.0"/>
      <point x="898.0" y="-270.0"/>
      <point x="898.0" y="5.0" type="curve" smooth="yes"/>
      <point x="898.0" y="269.0"/>
      <point x="727.0" y="403.0"/>
      <point x="326.0" y="427.0" type="curve" smooth="yes"/>
      <point x="141.0" y="438.0" type="line"/>
      <point x="193.0" y="392.0" type="line"/>
      <point x="238.0" y="1040.0" type="line"/>
      <point x="203.0" y="1016.0" type="line"/>
      <point x="836.0" y="1016.0" type="line"/>
      <point x="836.0" y="1080.0" type="line"/>
      <point x="173.0" y="1080.0" type="line"/>
      <point x="124.0" y="372.0" type="line"/>
      <point x="309.0" y="361.0" type="line" smooth="yes"/>
      <point x="685.0" y="339.0"/>
      <point x="828.0" y="232.0"/>
      <point x="828.0" y="4.0" type="curve" smooth="yes"/>
      <point x="828.0" y="-233.0"/>
      <point x="686.0" y="-352.0"/>
      <point x="408.0" y="-352.0" type="curve" smooth="yes"/>
      <point x="295.0" y="-352.0"/>
      <point x="176.0" y="-331.0"/>
      <point x="64.0" y="-291.0" type="curve"/>
      <point x="64.0" y="-359.0" type="line"/>
      <point x="166.0" y="-397.0"/>
      <point x="288.0" y="-418.0"/>
    </contour>
  </outline>
</glyph>
<glyph name="four.tosf" format="2">
  <advance width="1100.0"/>
  <outline>
    <contour>
      <point x="55.0" y="0.0" type="line"/>
      <point x="1043.0" y="0.0" type="line"/>
      <point x="1043.0" y="64.0" type="line"/>
      <point x="112.0" y="64.0" type="line"/>
      <point x="129.0" y="38.0" type="line"/>
      <point x="729.0" y="1080.0" type="line"/>
      <point x="653.0" y="1080.0" type="line"/>
      <point x="55.0" y="40.0" type="line"/>
    </contour>
    <contour>
      <point x="775.0" y="-400.0" type="line"/>
      <point x="843.0" y="-400.0" type="line"/>
      <point x="843.0" y="596.0" type="line"/>
      <point x="783.0" y="596.0" type="line"/>
      <point x="775.0" y="64.0" type="line"/>
    </contour>
  </outline>
</glyph>
<glyph name="germandbls.sc" format="2">
  <advance width="1440.0"/>
  <outline>
    <contour>
      <point x="933.0" y="-14.0" type="curve" smooth="yes"/>
      <point x="1208.0" y="-14.0"/>
      <point x="1353.0" y="106.0"/>
      <point x="1353.0" y="308.0" type="curve" smooth="yes"/>
      <point x="1353.0" y="476.0"/>
      <point x="1260.0" y="570.0"/>
      <point x="1022.0" y="625.0" type="curve" smooth="yes"/>
      <point x="974.0" y="637.0" type="line" smooth="yes"/>
      <point x="766.0" y="686.0"/>
      <point x="699.0" y="752.0"/>
      <point x="699.0" y="894.0" type="curve" smooth="yes"/>
      <point x="699.0" y="1049.0"/>
      <point x="808.0" y="1140.0"/>
      <point x="1039.0" y="1140.0" type="curve" smooth="yes"/>
      <point x="1127.0" y="1140.0"/>
      <point x="1214.0" y="1128.0"/>
      <point x="1303.0" y="1101.0" type="curve"/>
      <point x="1303.0" y="1169.0" type="line"/>
      <point x="1226.0" y="1192.0"/>
      <point x="1129.0" y="1204.0"/>
      <point x="1040.0" y="1204.0" type="curve" smooth="yes"/>
      <point x="765.0" y="1204.0"/>
      <point x="628.0" y="1081.0"/>
      <point x="628.0" y="891.0" type="curve" smooth="yes"/>
      <point x="628.0" y="717.0"/>
      <point x="725.0" y="626.0"/>
      <point x="959.0" y="571.0" type="curve" smooth="yes"/>
      <point x="1007.0" y="559.0" type="line" smooth="yes"/>
      <point x="1215.0" y="510.0"/>
      <point x="1283.0" y="443.0"/>
      <point x="1283.0" y="306.0" type="curve" smooth="yes"/>
      <point x="1283.0" y="140.0"/>
      <point x="1169.0" y="50.0"/>
      <point x="936.0" y="50.0" type="curve" smooth="yes"/>
      <point x="848.0" y="50.0"/>
      <point x="747.0" y="65.0"/>
      <point x="643.0" y="99.0" type="curve"/>
      <point x="643.0" y="31.0" type="line"/>
      <point x="736.0" y="0.0"/>
      <point x="843.0" y="-14.0"/>
    </contour>
    <contour>
      <point x="192.0" y="0.0" type="line"/>
      <point x="260.0" y="0.0" type="line"/>
      <point x="260.0" y="772.0" type="line" smooth="yes"/>
      <point x="260.0" y="1025.0"/>
      <point x="370.0" y="1140.0"/>
      <point x="626.0" y="1140.0" type="curve" smooth="yes"/>
      <point x="693.0" y="1140.0"/>
      <point x="750.0" y="1131.0"/>
      <point x="798.0" y="1114.0" type="curve"/>
      <point x="864.0" y="1158.0" type="line"/>
      <point x="797.0" y="1189.0"/>
      <point x="717.0" y="1204.0"/>
      <point x="626.0" y="1204.0" type="curve" smooth="yes"/>
      <point x="333.0" y="1204.0"/>
      <point x="192.0" y="1067.0"/>
      <point x="192.0" y="764.0" type="curve" smooth="yes"/>
    </contour>
  </outline>
</glyph>
<glyph name="gravecomb.case" format="2">
  <anchor x="500.0" y="1520.0" name="_top"/>
  <anchor x="500.0" y="1788.0" name="top"/>
  <outline>
    <contour>
      <point x="468.0" y="1616.0" type="line"/>
      <point x="532.0" y="1616.0" type="line"/>
      <point x="357.0" y="1888.0" type="line"/>
      <point x="278.0" y="1888.0" type="line"/>
    </contour>
  </outline>
</glyph>
<glyph name="greater.tosf" format="2">
  <advance width="1100.0"/>
  <outline>
    <contour>
      <point x="186.0" y="206.0" type="line"/>
      <point x="914.0" y="534.0" type="line"/>
      <point x="914.0" y="586.0" type="line"/>
      <point x="186.0" y="914.0" type="line"/>
      <point x="186.0" y="842.0" type="line"/>
      <point x="850.0" y="548.0" type="line"/>
      <point x="850.0" y="572.0" type="line"/>
      <point x="186.0" y="278.0" type="line"/>
    </contour>
  </outline>
</glyph>
<glyph name="hungarumlautcomb.case" format="2">
  <anchor x="500.0" y="1520.0" name="_top"/>
  <anchor x="500.0" y="1848.0" name="top"/>
  <outline>
    <contour>
      <point x="617.0" y="1616.0" type="line"/>
      <point x="678.0" y="1616.0" type="line"/>
      <point x="808.0" y="1888.0" type="line"/>
      <point x="740.0" y="1888.0" type="line"/>
    </contour>
    <contour>
      <point x="322.0" y="1616.0" type="line"/>
      <point x="383.0" y="1616.0" type="line"/>
      <point x="513.0" y="1888.0" type="line"/>
      <point x="445.0" y="1888.0" type="line"/>
    </contour>
  </outline>
</glyph>
<glyph name="infinity.osf" format="2">
  <advance width="1634.0"/>
  <outline>
    <contour>
      <point x="1204.0" y="236.0" type="curve" smooth="yes"/>
      <point x="1386.0" y="236.0"/>
      <point x="1526.0" y="362.0"/>
      <point x="1526.0" y="560.0" type="curve" smooth="yes"/>
      <point x="1526.0" y="758.0"/>
      <point x="1388.0" y="884.0"/>
      <point x="1204.0" y="884.0" type="curve" smooth="yes"/>
      <point x="832.0" y="884.0"/>
      <point x="762.0" y="300.0"/>
      <point x="436.0" y="300.0" type="curve" smooth="yes"/>
      <point x="294.0" y="300.0"/>
      <point x="174.0" y="390.0"/>
      <point x="174.0" y="560.0" type="curve" smooth="yes"/>
      <point x="174.0" y="730.0"/>
      <point x="292.0" y="820.0"/>
      <point x="436.0" y="820.0" type="curve" smooth="yes"/>
      <point x="762.0" y="820.0"/>
      <point x="832.0" y="236.0"/>
    </contour>
    <contour>
      <point x="430.0" y="236.0" type="curve" smooth="yes"/>
      <point x="802.0" y="236.0"/>
      <point x="872.0" y="820.0"/>
      <point x="1198.0" y="820.0" type="curve" smooth="yes"/>
      <point x="1342.0" y="820.0"/>
      <point x="1460.0" y="730.0"/>
      <point x="1460.0" y="560.0" type="curve" smooth="yes"/>
      <point x="1460.0" y="390.0"/>
      <point x="1340.0" y="300.0"/>
      <point x="1198.0" y="300.0" type="curve" smooth="yes"/>
      <point x="872.0" y="300.0"/>
      <point x="802.0" y="884.0"/>
      <point x="430.0" y="884.0" type="curve" smooth="yes"/>
      <point x="246.0" y="884.0"/>
      <point x="108.0" y="758.0"/>
      <point x="108.0" y="560.0" type="curve" smooth="yes"/>
      <point x="108.0" y="362.0"/>
      <point x="248.0" y="236.0"/>
    </contour>
  </outline>
</glyph>
<glyph name="kip.tf" format="2">
  <advance width="1100.0"/>
  <outline>
    <contour>
      <point x="1004.0" y="0.0" type="line"/>
      <point x="1086.0" y="0.0" type="line"/>
      <point x="531.0" y="774.0" type="line"/>
      <point x="531.0" y="750.0" type="line"/>
      <point x="1044.0" y="1480.0" type="line"/>
      <point x="964.0" y="1480.0" type="line"/>
      <point x="458.0" y="758.0" type="line"/>
    </contour>
    <contour>
      <point x="288.0" y="0.0" type="line"/>
      <point x="356.0" y="0.0" type="line"/>
      <point x="356.0" y="1480.0" type="line"/>
      <point x="288.0" y="1480.0" type="line"/>
    </contour>
    <contour>
      <point x="80.0" y="728.0" type="line"/>
      <point x="958.0" y="728.0" type="line"/>
      <point x="958.0" y="792.0" type="line"/>
      <point x="80.0" y="792.0" type="line"/>
    </contour>
  </outline>
</glyph>
<glyph name="lozenge.tf" format="2">
  <advance width="1100.0"/>
  <outline>
    <contour>
      <point x="502.0" y="0.0" type="line"/>
      <point x="596.0" y="0.0" type="line"/>
      <point x="986.0" y="740.0" type="line"/>
      <point x="596.0" y="1480.0" type="line"/>
      <point x="502.0" y="1480.0" type="line"/>
      <point x="114.0" y="740.0" type="line"/>
    </contour>
    <contour>
      <point x="546.0" y="44.0" type="line"/>
      <point x="554.0" y="44.0" type="line"/>
      <point x="177.0" y="770.0" type="line"/>
      <point x="177.0" y="710.0" type="line"/>
      <point x="554.0" y="1436.0" type="line"/>
      <point x="546.0" y="1436.0" type="line"/>
      <point x="923.0" y="710.0" type="line"/>
      <point x="923.0" y="770.0" type="line"/>
    </contour>
  </outline>
</glyph>
<glyph name="m.sc" format="2">
  <advance width="1517.0"/>
  <anchor x="760.0" y="0.0" name="bottom"/>
  <anchor x="760.0" y="1230.0" name="top"/>
  <outline>
    <contour>
      <point x="196.0" y="0.0" type="line"/>
      <point x="261.0" y="0.0" type="line"/>
      <point x="261.0" y="1130.0" type="line"/>
      <point x="227.0" y="1130.0" type="line"/>
      <point x="722.0" y="162.0" type="line"/>
      <point x="794.0" y="162.0" type="line"/>
      <point x="1285.0" y="1131.0" type="line"/>
      <point x="1255.0" y="1131.0" type="line"/>
      <point x="1255.0" y="0.0" type="line"/>
      <point x="1321.0" y="0.0" type="line"/>
      <point x="1321.0" y="1190.0" type="line"/>
      <point x="1244.0" y="1190.0" type="line"/>
      <point x="746.0" y="198.0" type="line"/>
      <point x="773.0" y="198.0" type="line"/>
      <point x="272.0" y="1190.0" type="line"/>
      <point x="196.0" y="1190.0" type="line"/>
    </contour>
  </outline>
</glyph>
<glyph name="manat.tf" format="2">
  <advance width="1100.0"/>
  <outline>
    <contour>
      <point x="154.0" y="0.0" type="curve"/>
      <point x="222.0" y="0.0" type="line"/>
      <point x="222.0" y="1291.0"/>
      <point x="354.0" y="1436.0"/>
      <point x="550.0" y="1436.0" type="curve" smooth="yes"/>
      <point x="746.0" y="1436.0"/>
      <point x="878.0" y="1291.0"/>
      <point x="878.0" y="0.0" type="curve"/>
      <point x="946.0" y="0.0" type="line"/>
      <point x="946.0" y="1339.0"/>
      <point x="801.0" y="1498.0"/>
      <point x="550.0" y="1498.0" type="curve" smooth="yes"/>
      <point x="299.0" y="1498.0"/>
      <point x="154.0" y="1339.0"/>
    </contour>
    <contour>
      <point x="519.0" y="550.0" type="line"/>
      <point x="579.0" y="550.0" type="line"/>
      <point x="579.0" y="1444.0" type="line"/>
      <point x="581.0" y="1490.0" type="line"/>
      <point x="581.0" y="1720.0" type="line"/>
      <point x="517.0" y="1720.0" type="line"/>
      <point x="517.0" y="1490.0" type="line"/>
      <point x="519.0" y="1444.0" type="line"/>
    </contour>
  </outline>
</glyph>
<glyph name="micro.tf" format="2">
  <advance width="1100.0"/>
  <outline>
    <contour>
      <point x="504.0" y="-18.0" type="curve" smooth="yes"/>
      <point x="632.0" y="-18.0"/>
      <point x="757.0" y="29.0"/>
      <point x="851.0" y="124.0" type="curve"/>
      <point x="859.0" y="124.0" type="line"/>
      <point x="865.0" y="0.0" type="line"/>
      <point x="925.0" y="0.0" type="line"/>
      <point x="925.0" y="1080.0" type="line"/>
      <point x="857.0" y="1080.0" type="line"/>
      <point x="857.0" y="225.0" type="line"/>
      <point x="764.0" y="97.0"/>
      <point x="620.0" y="48.0"/>
      <point x="506.0" y="48.0" type="curve" smooth="yes"/>
      <point x="350.0" y="48.0"/>
      <point x="242.0" y="121.0"/>
      <point x="242.0" y="338.0" type="curve" smooth="yes"/>
      <point x="242.0" y="470.0" type="line"/>
      <point x="194.0" y="470.0" type="line"/>
      <point x="194.0" y="339.0" type="line" smooth="yes"/>
      <point x="194.0" y="74.0"/>
      <point x="312.0" y="-18.0"/>
    </contour>
    <contour>
      <point x="174.0" y="-440.0" type="line"/>
      <point x="242.0" y="-440.0" type="line"/>
      <point x="242.0" y="1080.0" type="line"/>
      <point x="174.0" y="1080.0" type="line"/>
    </contour>
  </outline>
</glyph>
<glyph name="multiply.tf" format="2">
  <advance width="1100.0"/>
  <outline>
    <contour>
      <point x="242.0" y="408.0" type="line"/>
      <point x="550.0" y="716.0" type="line"/>
      <point x="858.0" y="408.0" type="line"/>
      <point x="902.0" y="452.0" type="line"/>
      <point x="594.0" y="760.0" type="line"/>
      <point x="902.0" y="1068.0" type="line"/>
      <point x="858.0" y="1112.0" type="line"/>
      <point x="550.0" y="804.0" type="line"/>
      <point x="242.0" y="1112.0" type="line"/>
      <point x="198.0" y="1068.0" type="line"/>
      <point x="506.0" y="760.0" type="line"/>
      <point x="198.0" y="452.0" type="line"/>
    </contour>
  </outline>
</glyph>
<glyph name="naira.tf" format="2">
  <advance width="1100.0"/>
  <outline>
    <contour>
      <point x="254.0" y="0.0" type="line"/>
      <point x="316.0" y="0.0" type="line"/>
      <point x="316.0" y="1420.0" type="line"/>
      <point x="290.0" y="1402.0" type="line"/>
      <point x="775.0" y="0.0" type="line"/>
      <point x="846.0" y="0.0" type="line"/>
      <point x="846.0" y="1480.0" type="line"/>
      <point x="784.0" y="1480.0" type="line"/>
      <point x="784.0" y="60.0" type="line"/>
      <point x="810.0" y="78.0" type="line"/>
      <point x="325.0" y="1480.0" type="line"/>
      <point x="254.0" y="1480.0" type="line"/>
    </contour>
    <contour>
      <point x="80.0" y="546.0" type="line"/>
      <point x="279.0" y="546.0" type="line"/>
      <point x="279.0" y="610.0" type="line"/>
      <point x="80.0" y="610.0" type="line"/>
    </contour>
    <contour>
      <point x="80.0" y="890.0" type="line"/>
      <point x="279.0" y="890.0" type="line"/>
      <point x="279.0" y="954.0" type="line"/>
      <point x="80.0" y="954.0" type="line"/>
    </contour>
    <contour>
      <point x="810.0" y="546.0" type="line"/>
      <point x="1020.0" y="546.0" type="line"/>
      <point x="1020.0" y="610.0" type="line"/>
      <point x="810.0" y="610.0" type="line"/>
    </contour>
    <contour>
      <point x="810.0" y="890.0" type="line"/>
      <point x="1020.0" y="890.0" type="line"/>
      <point x="1020.0" y="954.0" type="line"/>
      <point x="810.0" y="954.0" type="line"/>
    </contour>
  </outline>
</glyph>
<glyph name="nine.osf" format="2">
  <advance width="1096.0"/>
  <outline>
    <contour>
      <point x="394.0" y="-418.0" type="curve" smooth="yes"/>
      <point x="766.0" y="-418.0"/>
      <point x="969.0" y="-178.0"/>
      <point x="969.0" y="388.0" type="curve" smooth="yes"/>
      <point x="969.0" y="916.0"/>
      <point x="776.0" y="1098.0"/>
      <point x="490.0" y="1098.0" type="curve" smooth="yes"/>
      <point x="257.0" y="1098.0"/>
      <point x="79.0" y="961.0"/>
      <point x="79.0" y="675.0" type="curve" smooth="yes"/>
      <point x="79.0" y="391.0"/>
      <point x="259.0" y="252.0"/>
      <point x="526.0" y="252.0" type="curve" smooth="yes"/>
      <point x="679.0" y="252.0"/>
      <point x="833.0" y="308.0"/>
      <point x="921.0" y="400.0" type="curve"/>
      <point x="921.0" y="483.0" type="line"/>
      <point x="828.0" y="365.0"/>
      <point x="662.0" y="318.0"/>
      <point x="530.0" y="318.0" type="curve" smooth="yes"/>
      <point x="299.0" y="318.0"/>
      <point x="149.0" y="427.0"/>
      <point x="149.0" y="678.0" type="curve" smooth="yes"/>
      <point x="149.0" y="927.0"/>
      <point x="296.0" y="1032.0"/>
      <point x="489.0" y="1032.0" type="curve" smooth="yes"/>
      <point x="736.0" y="1032.0"/>
      <point x="899.0" y="878.0"/>
      <point x="899.0" y="388.0" type="curve" smooth="yes"/>
      <point x="899.0" y="376.0" type="line" smooth="yes"/>
      <point x="899.0" y="-143.0"/>
      <point x="724.0" y="-352.0"/>
      <point x="395.0" y="-352.0" type="curve" smooth="yes"/>
      <point x="313.0" y="-352.0"/>
      <point x="218.0" y="-339.0"/>
      <point x="143.0" y="-307.0" type="curve"/>
      <point x="143.0" y="-375.0" type="line"/>
      <point x="217.0" y="-406.0"/>
      <point x="309.0" y="-418.0"/>
    </contour>
  </outline>
</glyph>
<glyph name="nine.tf" format="2">
  <advance width="1100.0"/>
  <outline>
    <contour>
      <point x="385.0" y="-18.0" type="curve" smooth="yes"/>
      <point x="748.0" y="-18.0"/>
      <point x="947.0" y="222.0"/>
      <point x="947.0" y="788.0" type="curve" smooth="yes"/>
      <point x="947.0" y="1316.0"/>
      <point x="758.0" y="1498.0"/>
      <point x="479.0" y="1498.0" type="curve" smooth="yes"/>
      <point x="251.0" y="1498.0"/>
      <point x="77.0" y="1361.0"/>
      <point x="77.0" y="1075.0" type="curve" smooth="yes"/>
      <point x="77.0" y="791.0"/>
      <point x="253.0" y="652.0"/>
      <point x="514.0" y="652.0" type="curve" smooth="yes"/>
      <point x="664.0" y="652.0"/>
      <point x="814.0" y="708.0"/>
      <point x="900.0" y="800.0" type="curve"/>
      <point x="900.0" y="883.0" type="line"/>
      <point x="809.0" y="765.0"/>
      <point x="647.0" y="718.0"/>
      <point x="518.0" y="718.0" type="curve" smooth="yes"/>
      <point x="292.0" y="718.0"/>
      <point x="147.0" y="827.0"/>
      <point x="147.0" y="1078.0" type="curve" smooth="yes"/>
      <point x="147.0" y="1327.0"/>
      <point x="289.0" y="1432.0"/>
      <point x="478.0" y="1432.0" type="curve" smooth="yes"/>
      <point x="719.0" y="1432.0"/>
      <point x="877.0" y="1278.0"/>
      <point x="877.0" y="788.0" type="curve" smooth="yes"/>
      <point x="877.0" y="776.0" type="line" smooth="yes"/>
      <point x="877.0" y="257.0"/>
      <point x="707.0" y="48.0"/>
      <point x="386.0" y="48.0" type="curve" smooth="yes"/>
      <point x="306.0" y="48.0"/>
      <point x="213.0" y="61.0"/>
      <point x="140.0" y="93.0" type="curve"/>
      <point x="140.0" y="25.0" type="line"/>
      <point x="212.0" y="-6.0"/>
      <point x="302.0" y="-18.0"/>
    </contour>
  </outline>
</glyph>
<glyph name="nine.tosf" format="2">
  <advance width="1100.0"/>
  <outline>
    <contour>
      <point x="385.0" y="-418.0" type="curve" smooth="yes"/>
      <point x="748.0" y="-418.0"/>
      <point x="947.0" y="-178.0"/>
      <point x="947.0" y="388.0" type="curve" smooth="yes"/>
      <point x="947.0" y="916.0"/>
      <point x="758.0" y="1098.0"/>
      <point x="479.0" y="1098.0" type="curve" smooth="yes"/>
      <point x="251.0" y="1098.0"/>
      <point x="77.0" y="961.0"/>
      <point x="77.0" y="675.0" type="curve" smooth="yes"/>
      <point x="77.0" y="391.0"/>
      <point x="253.0" y="252.0"/>
      <point x="514.0" y="252.0" type="curve" smooth="yes"/>
      <point x="664.0" y="252.0"/>
      <point x="814.0" y="308.0"/>
      <point x="900.0" y="400.0" type="curve"/>
      <point x="900.0" y="483.0" type="line"/>
      <point x="809.0" y="365.0"/>
      <point x="647.0" y="318.0"/>
      <point x="518.0" y="318.0" type="curve" smooth="yes"/>
      <point x="292.0" y="318.0"/>
      <point x="147.0" y="427.0"/>
      <point x="147.0" y="678.0" type="curve" smooth="yes"/>
      <point x="147.0" y="927.0"/>
      <point x="289.0" y="1032.0"/>
      <point x="478.0" y="1032.0" type="curve" smooth="yes"/>
      <point x="719.0" y="1032.0"/>
      <point x="877.0" y="878.0"/>
      <point x="877.0" y="388.0" type="curve" smooth="yes"/>
      <point x="877.0" y="376.0" type="line" smooth="yes"/>
      <point x="877.0" y="-143.0"/>
      <point x="707.0" y="-352.0"/>
      <point x="386.0" y="-352.0" type="curve" smooth="yes"/>
      <point x="306.0" y="-352.0"/>
      <point x="213.0" y="-339.0"/>
      <point x="140.0" y="-307.0" type="curve"/>
      <point x="140.0" y="-375.0" type="line"/>
      <point x="212.0" y="-406.0"/>
      <point x="302.0" y="-418.0"/>
    </contour>
  </outline>
</glyph>
<glyph name="notequal.osf" format="2">
  <advance width="1062.0"/>
  <outline>
    <contour>
      <point x="223.0" y="208.0" type="line"/>
      <point x="883.0" y="868.0" type="line"/>
      <point x="839.0" y="912.0" type="line"/>
      <point x="179.0" y="252.0" type="line"/>
    </contour>
    <contour>
      <point x="167.0" y="346.0" type="line"/>
      <point x="895.0" y="346.0" type="line"/>
      <point x="895.0" y="410.0" type="line"/>
      <point x="167.0" y="410.0" type="line"/>
    </contour>
    <contour>
      <point x="167.0" y="710.0" type="line"/>
      <point x="895.0" y="710.0" type="line"/>
      <point x="895.0" y="774.0" type="line"/>
      <point x="167.0" y="774.0" type="line"/>
    </contour>
  </outline>
</glyph>
<glyph name="notequal.tosf" format="2">
  <advance width="1100.0"/>
  <outline>
    <contour>
      <point x="242.0" y="208.0" type="line"/>
      <point x="902.0" y="868.0" type="line"/>
      <point x="858.0" y="912.0" type="line"/>
      <point x="198.0" y="252.0" type="line"/>
    </contour>
    <contour>
      <point x="186.0" y="346.0" type="line"/>
      <point x="914.0" y="346.0" type="line"/>
      <point x="914.0" y="410.0" type="line"/>
      <point x="186.0" y="410.0" type="line"/>
    </contour>
    <contour>
      <point x="186.0" y="710.0" type="line"/>
      <point x="914.0" y="710.0" type="line"/>
      <point x="914.0" y="774.0" type="line"/>
      <point x="186.0" y="774.0" type="line"/>
    </contour>
  </outline>
</glyph>
<glyph name="o.comb" format="2">
  <advance width="1058.0"/>
  <anchor x="529.0" y="0.0" name="bottom"/>
  <anchor x="529.0" y="540.0" name="center"/>
  <anchor x="663.0" y="0.0" name="ogonek"/>
  <anchor x="529.0" y="1200.0" name="top"/>
  <anchor x="655.0" y="1080.0" name="topright"/>
  <outline>
    <contour>
      <point x="529.0" y="-18.0" type="curve" smooth="yes"/>
      <point x="781.0" y="-18.0"/>
      <point x="950.0" y="143.0"/>
      <point x="950.0" y="540.0" type="curve" smooth="yes"/>
      <point x="950.0" y="941.0"/>
      <point x="781.0" y="1096.0"/>
      <point x="529.0" y="1096.0" type="curve" smooth="yes"/>
      <point x="277.0" y="1096.0"/>
      <point x="108.0" y="937.0"/>
      <point x="108.0" y="540.0" type="curve" smooth="yes"/>
      <point x="108.0" y="139.0"/>
      <point x="277.0" y="-18.0"/>
    </contour>
    <contour>
      <point x="529.0" y="48.0" type="curve" smooth="yes"/>
      <point x="317.0" y="48.0"/>
      <point x="180.0" y="172.0"/>
      <point x="180.0" y="543.0" type="curve" smooth="yes"/>
      <point x="180.0" y="908.0"/>
      <point x="317.0" y="1030.0"/>
      <point x="529.0" y="1030.0" type="curve" smooth="yes"/>
      <point x="741.0" y="1030.0"/>
      <point x="878.0" y="908.0"/>
      <point x="878.0" y="537.0" type="curve" smooth="yes"/>
      <point x="878.0" y="172.0"/>
      <point x="741.0" y="48.0"/>
    </contour>
  </outline>
</glyph>
<glyph name="one.dnom" format="2">
  <advance width="749.0"/>
  <outline>
    <contour>
      <point x="385.0" y="-116.0" type="line"/>
      <point x="449.0" y="-116.0" type="line"/>
      <point x="449.0" y="868.0" type="line"/>
      <point x="408.0" y="868.0" type="line"/>
      <point x="140.0" y="669.0" type="line"/>
      <point x="140.0" y="597.0" type="line"/>
      <point x="408.0" y="796.0" type="line"/>
      <point x="385.0" y="807.0" type="line"/>
    </contour>
    <contour>
      <point x="145.0" y="-136.0" type="line"/>
      <point x="677.0" y="-136.0" type="line"/>
      <point x="677.0" y="-74.0" type="line"/>
      <point x="145.0" y="-74.0" type="line"/>
    </contour>
  </outline>
</glyph>
<glyph name="one.numr" format="2">
  <advance width="749.0"/>
  <outline>
    <contour>
      <point x="385.0" y="636.0" type="line"/>
      <point x="449.0" y="636.0" type="line"/>
      <point x="449.0" y="1620.0" type="line"/>
      <point x="408.0" y="1620.0" type="line"/>
      <point x="140.0" y="1421.0" type="line"/>
      <point x="140.0" y="1349.0" type="line"/>
      <point x="408.0" y="1548.0" type="line"/>
      <point x="385.0" y="1559.0" type="line"/>
    </contour>
    <contour>
      <point x="145.0" y="616.0" type="line"/>
      <point x="677.0" y="616.0" type="line"/>
      <point x="677.0" y="678.0" type="line"/>
      <point x="145.0" y="678.0" type="line"/>
    </contour>
  </outline>
</glyph>
<glyph name="one.osf" format="2">
  <advance width="637.0"/>
  <outline>
    <contour>
      <point x="389.0" y="0.0" type="line"/>
      <point x="457.0" y="0.0" type="line"/>
      <point x="457.0" y="1086.0" type="line"/>
      <point x="415.0" y="1086.0" type="line"/>
      <point x="7.0" y="815.0" type="line"/>
      <point x="7.0" y="741.0" type="line"/>
      <point x="415.0" y="1012.0" type="line"/>
      <point x="389.0" y="1004.0" type="line"/>
    </contour>
  </outline>
</glyph>
<glyph name="oogonek.sc" format="2">
  <advance width="1192.0"/>
  <anchor x="596.0" y="1230.0" name="top"/>
  <outline>
    <contour>
      <point x="674.0" y="-400.0" type="curve" smooth="yes"/>
      <point x="729.0" y="-400.0"/>
      <point x="785.0" y="-387.0"/>
      <point x="841.0" y="-361.0" type="curve"/>
      <point x="841.0" y="-307.0" type="line"/>
      <point x="771.0" y="-336.0"/>
      <point x="723.0" y="-348.0"/>
      <point x="671.0" y="-348.0" type="curve" smooth="yes"/>
      <point x="573.0" y="-348.0"/>
      <point x="521.0" y="-307.0"/>
      <point x="521.0" y="-228.0" type="curve" smooth="yes"/>
      <point x="521.0" y="-144.0"/>
      <point x="569.0" y="-60.0"/>
      <point x="775.0" y="14.0" type="curve" smooth="yes"/>
      <point x="962.0" y="78.0"/>
      <point x="1084.0" y="254.0"/>
      <point x="1084.0" y="594.0" type="curve" smooth="yes"/>
      <point x="1084.0" y="1031.0"/>
      <point x="889.0" y="1204.0"/>
      <point x="596.0" y="1204.0" type="curve" smooth="yes"/>
      <point x="307.0" y="1204.0"/>
      <point x="108.0" y="1031.0"/>
      <point x="108.0" y="594.0" type="curve" smooth="yes"/>
      <point x="108.0" y="159.0"/>
      <point x="304.0" y="-14.0"/>
      <point x="596.0" y="-14.0" type="curve" smooth="yes"/>
      <point x="630.0" y="-14.0" type="line"/>
      <point x="622.0" y="0.0" type="line"/>
      <point x="514.0" y="-61.0"/>
      <point x="465.0" y="-140.0"/>
      <point x="465.0" y="-231.0" type="curve" smooth="yes"/>
      <point x="465.0" y="-339.0"/>
      <point x="540.0" y="-400.0"/>
    </contour>
    <contour>
      <point x="596.0" y="50.0" type="curve" smooth="yes"/>
      <point x="348.0" y="50.0"/>
      <point x="180.0" y="190.0"/>
      <point x="180.0" y="598.0" type="curve" smooth="yes"/>
      <point x="180.0" y="1000.0"/>
      <point x="348.0" y="1140.0"/>
      <point x="596.0" y="1140.0" type="curve" smooth="yes"/>
      <point x="845.0" y="1140.0"/>
      <point x="1014.0" y="1000.0"/>
      <point x="1014.0" y="592.0" type="curve" smooth="yes"/>
      <point x="1014.0" y="190.0"/>
      <point x="845.0" y="50.0"/>
    </contour>
  </outline>
</glyph>
<glyph name="p.sc" format="2">
  <advance width="1065.0"/>
  <outline>
    <contour>
      <point x="192.0" y="0.0" type="line"/>
      <point x="260.0" y="0.0" type="line"/>
      <point x="260.0" y="419.0" type="line"/>
      <point x="319.0" y="414.0"/>
      <point x="382.0" y="411.0"/>
      <point x="448.0" y="411.0" type="curve" smooth="yes"/>
      <point x="807.0" y="411.0"/>
      <point x="964.0" y="550.0"/>
      <point x="964.0" y="807.0" type="curve" smooth="yes"/>
      <point x="964.0" y="1079.0"/>
      <point x="797.0" y="1202.0"/>
      <point x="486.0" y="1202.0" type="curve" smooth="yes"/>
      <point x="380.0" y="1202.0"/>
      <point x="289.0" y="1192.0"/>
      <point x="192.0" y="1174.0" type="curve"/>
    </contour>
    <contour>
      <point x="450.0" y="475.0" type="curve" smooth="yes"/>
      <point x="380.0" y="475.0"/>
      <point x="321.0" y="479.0"/>
      <point x="260.0" y="486.0" type="curve"/>
      <point x="260.0" y="1121.0" type="line"/>
      <point x="329.0" y="1132.0"/>
      <point x="402.0" y="1138.0"/>
      <point x="487.0" y="1138.0" type="curve" smooth="yes"/>
      <point x="760.0" y="1138.0"/>
      <point x="894.0" y="1037.0"/>
      <point x="894.0" y="805.0" type="curve" smooth="yes"/>
      <point x="894.0" y="584.0"/>
      <point x="763.0" y="475.0"/>
    </contour>
  </outline>
</glyph>
<glyph name="percent.tf" format="2">
  <advance width="1100.0"/>
  <note>
450
</note>
  <outline>
    <contour>
      <point x="60.0" y="312.0" type="line"/>
      <point x="1040.0" y="1088.0" type="line"/>
      <point x="1040.0" y="1168.0" type="line"/>
      <point x="60.0" y="392.0" type="line"/>
    </contour>
    <contour>
      <point x="747.0" y="-18.0" type="curve" smooth="yes"/>
      <point x="922.0" y="-18.0"/>
      <point x="1024.0" y="111.0"/>
      <point x="1024.0" y="312.0" type="curve" smooth="yes"/>
      <point x="1024.0" y="513.0"/>
      <point x="922.0" y="642.0"/>
      <point x="747.0" y="642.0" type="curve" smooth="yes"/>
      <point x="572.0" y="642.0"/>
      <point x="470.0" y="513.0"/>
      <point x="470.0" y="312.0" type="curve" smooth="yes"/>
      <point x="470.0" y="111.0"/>
      <point x="572.0" y="-18.0"/>
    </contour>
    <contour>
      <point x="747.0" y="43.0" type="curve" smooth="yes"/>
      <point x="611.0" y="43.0"/>
      <point x="535.0" y="144.0"/>
      <point x="535.0" y="314.0" type="curve" smooth="yes"/>
      <point x="535.0" y="482.0"/>
      <point x="611.0" y="581.0"/>
      <point x="747.0" y="581.0" type="curve" smooth="yes"/>
      <point x="883.0" y="581.0"/>
      <point x="959.0" y="480.0"/>
      <point x="959.0" y="310.0" type="curve" smooth="yes"/>
      <point x="959.0" y="141.0"/>
      <point x="883.0" y="43.0"/>
    </contour>
    <contour>
      <point x="353.0" y="838.0" type="curve" smooth="yes"/>
      <point x="528.0" y="838.0"/>
      <point x="630.0" y="967.0"/>
      <point x="630.0" y="1168.0" type="curve" smooth="yes"/>
      <point x="630.0" y="1369.0"/>
      <point x="528.0" y="1498.0"/>
      <point x="353.0" y="1498.0" type="curve" smooth="yes"/>
      <point x="178.0" y="1498.0"/>
      <point x="76.0" y="1369.0"/>
      <point x="76.0" y="1168.0" type="curve" smooth="yes"/>
      <point x="76.0" y="967.0"/>
      <point x="178.0" y="838.0"/>
    </contour>
    <contour>
      <point x="353.0" y="899.0" type="curve" smooth="yes"/>
      <point x="217.0" y="899.0"/>
      <point x="141.0" y="1000.0"/>
      <point x="141.0" y="1170.0" type="curve" smooth="yes"/>
      <point x="141.0" y="1338.0"/>
      <point x="217.0" y="1437.0"/>
      <point x="353.0" y="1437.0" type="curve" smooth="yes"/>
      <point x="489.0" y="1437.0"/>
      <point x="565.0" y="1336.0"/>
      <point x="565.0" y="1166.0" type="curve" smooth="yes"/>
      <point x="565.0" y="997.0"/>
      <point x="489.0" y="899.0"/>
    </contour>
  </outline>
</glyph>
<glyph name="peso.tf" format="2">
  <advance width="1100.0"/>
  <outline>
    <contour>
      <point x="254.0" y="0.0" type="line"/>
      <point x="322.0" y="0.0" type="line"/>
      <point x="322.0" y="524.0" type="line"/>
      <point x="375.0" y="520.0"/>
      <point x="423.0" y="518.0"/>
      <point x="462.0" y="518.0" type="curve" smooth="yes"/>
      <point x="790.0" y="518.0"/>
      <point x="941.0" y="672.0"/>
      <point x="941.0" y="1003.0" type="curve" smooth="yes"/>
      <point x="941.0" y="1343.0"/>
      <point x="791.0" y="1494.0"/>
      <point x="501.0" y="1494.0" type="curve" smooth="yes"/>
      <point x="426.0" y="1494.0"/>
      <point x="336.0" y="1482.0"/>
      <point x="254.0" y="1465.0" type="curve"/>
    </contour>
    <contour>
      <point x="80.0" y="802.0" type="line"/>
      <point x="278.0" y="802.0" type="line"/>
      <point x="278.0" y="866.0" type="line"/>
      <point x="80.0" y="866.0" type="line"/>
    </contour>
    <contour>
      <point x="80.0" y="1146.0" type="line"/>
      <point x="278.0" y="1146.0" type="line"/>
      <point x="278.0" y="1210.0" type="line"/>
      <point x="80.0" y="1210.0" type="line"/>
    </contour>
    <contour>
      <point x="467.0" y="584.0" type="curve" smooth="yes"/>
      <point x="413.0" y="584.0"/>
      <point x="381.0" y="586.0"/>
      <point x="322.0" y="592.0" type="curve"/>
      <point x="322.0" y="1409.0" type="line"/>
      <point x="386.0" y="1421.0"/>
      <point x="446.0" y="1428.0"/>
      <point x="501.0" y="1428.0" type="curve" smooth="yes"/>
      <point x="753.0" y="1428.0"/>
      <point x="871.0" y="1304.0"/>
      <point x="871.0" y="1001.0" type="curve" smooth="yes"/>
      <point x="871.0" y="707.0"/>
      <point x="747.0" y="584.0"/>
    </contour>
    <contour>
      <point x="878.0" y="802.0" type="line"/>
      <point x="1074.0" y="802.0" type="line"/>
      <point x="1074.0" y="866.0" type="line"/>
      <point x="895.0" y="866.0" type="line"/>
    </contour>
    <contour>
      <point x="891.0" y="1146.0" type="line"/>
      <point x="1074.0" y="1146.0" type="line"/>
      <point x="1074.0" y="1210.0" type="line"/>
      <point x="874.0" y="1210.0" type="line"/>
    </contour>
  </outline>
</glyph>
<glyph name="pi.tf" format="2">
  <advance width="1100.0"/>
  <outline>
    <contour>
      <point x="980.0" y="-18.0" type="curve" smooth="yes"/>
      <point x="1018.0" y="-18.0"/>
      <point x="1064.0" y="-12.0"/>
      <point x="1100.0" y="-4.0" type="curve"/>
      <point x="1100.0" y="64.0" type="line"/>
      <point x="1060.0" y="54.0"/>
      <point x="1020.0" y="48.0"/>
      <point x="984.0" y="48.0" type="curve" smooth="yes"/>
      <point x="868.0" y="48.0"/>
      <point x="809.0" y="108.0"/>
      <point x="809.0" y="290.0" type="curve" smooth="yes"/>
      <point x="809.0" y="1046.0" type="line"/>
      <point x="737.0" y="1046.0" type="line"/>
      <point x="741.0" y="278.0" type="line" smooth="yes"/>
      <point x="743.0" y="64.0"/>
      <point x="834.0" y="-18.0"/>
    </contour>
    <contour>
      <point x="190.0" y="-2.0" type="line"/>
      <point x="258.0" y="-2.0" type="line"/>
      <point x="258.0" y="1046.0" type="line"/>
      <point x="190.0" y="1046.0" type="line"/>
    </contour>
    <contour>
      <point x="0.0" y="1016.0" type="line"/>
      <point x="1000.0" y="1016.0" type="line"/>
      <point x="1000.0" y="1080.0" type="line"/>
      <point x="0.0" y="1080.0" type="line"/>
    </contour>
  </outline>
</glyph>
<glyph name="product.tf" format="2">
  <advance width="1100.0"/>
  <outline>
    <contour>
      <point x="129.0" y="-440.0" type="line"/>
      <point x="197.0" y="-440.0" type="line"/>
      <point x="197.0" y="1414.0" type="line"/>
      <point x="903.0" y="1414.0" type="line"/>
      <point x="903.0" y="-440.0" type="line"/>
      <point x="971.0" y="-440.0" type="line"/>
      <point x="971.0" y="1480.0" type="line"/>
      <point x="129.0" y="1480.0" type="line"/>
    </contour>
  </outline>
</glyph>
<glyph name="q.sc" format="2">
  <advance width="1192.0"/>
  <outline>
    <contour>
      <point x="1052.0" y="-154.0" type="curve"/>
      <point x="1060.0" y="-88.0" type="line"/>
      <point x="879.0" y="-74.0"/>
      <point x="667.0" y="-44.0"/>
      <point x="524.0" y="18.0" type="curve"/>
      <point x="523.0" y="-4.0" type="line"/>
      <point x="882.0" y="-47.0"/>
      <point x="1084.0" y="158.0"/>
      <point x="1084.0" y="594.0" type="curve" smooth="yes"/>
      <point x="1084.0" y="1031.0"/>
      <point x="889.0" y="1204.0"/>
      <point x="596.0" y="1204.0" type="curve" smooth="yes"/>
      <point x="307.0" y="1204.0"/>
      <point x="108.0" y="1031.0"/>
      <point x="108.0" y="594.0" type="curve" smooth="yes"/>
      <point x="108.0" y="105.0"/>
      <point x="324.0" y="-80.0"/>
    </contour>
    <contour>
      <point x="596.0" y="50.0" type="curve" smooth="yes"/>
      <point x="348.0" y="50.0"/>
      <point x="180.0" y="190.0"/>
      <point x="180.0" y="598.0" type="curve" smooth="yes"/>
      <point x="180.0" y="1000.0"/>
      <point x="348.0" y="1140.0"/>
      <point x="596.0" y="1140.0" type="curve" smooth="yes"/>
      <point x="845.0" y="1140.0"/>
      <point x="1014.0" y="1000.0"/>
      <point x="1014.0" y="592.0" type="curve" smooth="yes"/>
      <point x="1014.0" y="190.0"/>
      <point x="845.0" y="50.0"/>
    </contour>
  </outline>
</glyph>
<glyph name="ringcomb.case" format="2">
  <anchor x="500.0" y="1520.0" name="_top"/>
  <anchor x="500.0" y="1848.0" name="top"/>
  <outline>
    <contour>
      <point x="500.0" y="1611.0" type="curve" smooth="yes"/>
      <point x="606.0" y="1611.0"/>
      <point x="684.0" y="1689.0"/>
      <point x="684.0" y="1795.0" type="curve" smooth="yes"/>
      <point x="684.0" y="1901.0"/>
      <point x="606.0" y="1979.0"/>
      <point x="500.0" y="1979.0" type="curve" smooth="yes"/>
      <point x="394.0" y="1979.0"/>
      <point x="316.0" y="1901.0"/>
      <point x="316.0" y="1795.0" type="curve" smooth="yes"/>
      <point x="316.0" y="1689.0"/>
      <point x="394.0" y="1611.0"/>
    </contour>
    <contour>
      <point x="500.0" y="1663.0" type="curve" smooth="yes"/>
      <point x="424.0" y="1663.0"/>
      <point x="370.0" y="1713.0"/>
      <point x="370.0" y="1795.0" type="curve" smooth="yes"/>
      <point x="370.0" y="1877.0"/>
      <point x="424.0" y="1927.0"/>
      <point x="500.0" y="1927.0" type="curve" smooth="yes"/>
      <point x="576.0" y="1927.0"/>
      <point x="630.0" y="1877.0"/>
      <point x="630.0" y="1795.0" type="curve" smooth="yes"/>
      <point x="630.0" y="1713.0"/>
      <point x="576.0" y="1663.0"/>
    </contour>
  </outline>
</glyph>
<glyph name="schwa.sc" format="2">
  <advance width="1193.0"/>
  <anchor x="595.0" y="0.0" name="bottom"/>
  <anchor x="595.0" y="1230.0" name="top"/>
  <outline>
    <contour>
      <point x="595.0" y="-14.0" type="curve" smooth="yes"/>
      <point x="885.0" y="-14.0"/>
      <point x="1085.0" y="155.0"/>
      <point x="1085.0" y="591.0" type="curve" smooth="yes"/>
      <point x="1085.0" y="1034.0"/>
      <point x="862.0" y="1204.0"/>
      <point x="488.0" y="1204.0" type="curve" smooth="yes"/>
      <point x="378.0" y="1204.0"/>
      <point x="271.0" y="1194.0"/>
      <point x="161.0" y="1167.0" type="curve"/>
      <point x="161.0" y="1099.0" type="line"/>
      <point x="269.0" y="1128.0"/>
      <point x="388.0" y="1140.0"/>
      <point x="486.0" y="1140.0" type="curve" smooth="yes"/>
      <point x="828.0" y="1140.0"/>
      <point x="1013.0" y="1002.0"/>
      <point x="1013.0" y="591.0" type="curve" smooth="yes"/>
      <point x="1013.0" y="187.0"/>
      <point x="846.0" y="50.0"/>
      <point x="595.0" y="50.0" type="curve" smooth="yes"/>
      <point x="333.0" y="50.0"/>
      <point x="170.0" y="188.0"/>
      <point x="170.0" y="592.0" type="curve"/>
      <point x="141.0" y="567.0" type="line"/>
      <point x="1041.0" y="567.0" type="line"/>
      <point x="1041.0" y="631.0" type="line"/>
      <point x="98.0" y="631.0" type="line"/>
      <point x="98.0" y="589.0" type="line" smooth="yes"/>
      <point x="98.0" y="155.0"/>
      <point x="296.0" y="-14.0"/>
    </contour>
  </outline>
</glyph>
<glyph name="seven.dnom" format="2">
  <advance width="749.0"/>
  <outline>
    <contour>
      <point x="170.0" y="-136.0" type="line"/>
      <point x="238.0" y="-136.0" type="line"/>
      <point x="667.0" y="825.0" type="line"/>
      <point x="667.0" y="864.0" type="line"/>
      <point x="49.0" y="864.0" type="line"/>
      <point x="49.0" y="803.0" type="line"/>
      <point x="617.0" y="803.0" type="line"/>
      <point x="602.0" y="826.0" type="line"/>
    </contour>
  </outline>
</glyph>
<glyph name="seven.numr" format="2">
  <advance width="749.0"/>
  <outline>
    <contour>
      <point x="170.0" y="616.0" type="line"/>
      <point x="238.0" y="616.0" type="line"/>
      <point x="667.0" y="1577.0" type="line"/>
      <point x="667.0" y="1616.0" type="line"/>
      <point x="49.0" y="1616.0" type="line"/>
      <point x="49.0" y="1555.0" type="line"/>
      <point x="617.0" y="1555.0" type="line"/>
      <point x="602.0" y="1578.0" type="line"/>
    </contour>
  </outline>
</glyph>
<glyph name="seven.osf" format="2">
  <advance width="887.0"/>
  <outline>
    <contour>
      <point x="171.0" y="-400.0" type="line"/>
      <point x="244.0" y="-400.0" type="line"/>
      <point x="824.0" y="1040.0" type="line"/>
      <point x="824.0" y="1080.0" type="line"/>
      <point x="3.0" y="1080.0" type="line"/>
      <point x="3.0" y="1016.0" type="line"/>
      <point x="766.0" y="1016.0" type="line"/>
      <point x="753.0" y="1042.0" type="line"/>
    </contour>
  </outline>
</glyph>
